<svg id="svg" xmlns="http://www.w3.org/2000/svg" xmlns:xlink="http://www.w3.org/1999/xlink" width="400" height="93.78330373001775" viewBox="0, 0, 400,93.78330373001775" version="1.1"><g id="svgg"><path id="path0" d="M42.910 11.709 C 42.852 11.858,42.384 11.908,41.259 11.887 C 40.072 11.864,39.640 11.915,39.490 12.095 C 39.356 12.257,38.947 12.333,38.220 12.333 C 37.547 12.333,37.185 12.395,37.250 12.500 C 37.312 12.600,37.096 12.667,36.710 12.667 C 36.356 12.667,35.966 12.760,35.842 12.875 C 35.660 13.044,35.643 13.036,35.750 12.833 C 35.857 12.630,35.840 12.622,35.658 12.792 C 35.534 12.906,35.276 13.000,35.083 13.000 C 34.891 13.000,34.643 13.090,34.533 13.200 C 34.378 13.356,34.332 13.346,34.328 13.158 C 34.324 12.966,34.291 12.971,34.166 13.186 C 34.068 13.353,33.838 13.436,33.558 13.406 C 33.068 13.352,32.426 13.700,32.626 13.911 C 32.694 13.983,32.593 13.993,32.401 13.934 C 32.176 13.865,31.903 13.945,31.632 14.158 C 31.401 14.340,31.160 14.437,31.097 14.374 C 31.033 14.311,30.923 14.355,30.851 14.472 C 30.779 14.588,30.539 14.693,30.318 14.704 C 30.097 14.716,29.794 14.828,29.644 14.955 C 29.493 15.081,29.212 15.197,29.019 15.211 C 28.825 15.226,28.667 15.288,28.667 15.349 C 28.667 15.482,27.636 15.929,27.458 15.873 C 27.390 15.851,27.333 15.908,27.333 16.000 C 27.333 16.092,27.237 16.167,27.120 16.167 C 27.003 16.167,26.799 16.317,26.667 16.500 C 26.535 16.683,26.301 16.833,26.148 16.833 C 25.994 16.833,25.824 16.951,25.769 17.094 C 25.714 17.237,25.600 17.312,25.515 17.259 C 25.431 17.207,25.138 17.352,24.865 17.582 C 24.592 17.812,24.267 18.001,24.143 18.002 C 24.018 18.003,23.598 18.308,23.208 18.681 C 22.819 19.054,22.500 19.315,22.500 19.263 C 22.500 19.210,22.350 19.317,22.167 19.500 C 21.983 19.683,21.758 19.833,21.667 19.833 C 21.575 19.833,21.500 19.950,21.500 20.093 C 21.500 20.236,21.425 20.307,21.333 20.250 C 21.242 20.193,21.167 20.268,21.167 20.417 C 21.167 20.565,21.092 20.640,21.000 20.583 C 20.908 20.527,20.833 20.604,20.833 20.756 C 20.833 20.907,20.684 21.070,20.502 21.118 C 20.320 21.166,20.211 21.271,20.262 21.352 C 20.312 21.434,20.161 21.500,19.927 21.500 C 19.682 21.500,19.518 21.586,19.542 21.701 C 19.565 21.811,19.491 21.905,19.378 21.909 C 19.139 21.918,18.636 22.581,18.768 22.713 C 18.818 22.762,18.688 22.857,18.479 22.923 C 17.993 23.078,17.667 23.405,17.667 23.738 C 17.667 23.882,17.592 24.000,17.500 24.000 C 17.408 24.000,17.342 24.056,17.353 24.125 C 17.402 24.438,17.318 24.667,17.154 24.667 C 17.055 24.667,16.685 24.959,16.331 25.316 C 15.977 25.673,15.658 25.936,15.622 25.900 C 15.586 25.863,15.453 26.040,15.328 26.292 C 15.203 26.544,14.896 26.975,14.647 27.250 C 14.398 27.525,13.990 28.184,13.741 28.714 C 13.492 29.245,13.149 29.754,12.978 29.845 C 12.807 29.937,12.667 30.155,12.667 30.329 C 12.667 30.504,12.592 30.693,12.500 30.750 C 12.408 30.807,12.333 31.074,12.333 31.343 C 12.333 31.613,12.275 31.833,12.203 31.833 C 12.026 31.833,11.489 32.759,11.588 32.893 C 11.631 32.952,11.614 32.960,11.551 32.912 C 11.439 32.827,10.833 33.913,10.833 34.196 C 10.833 34.272,10.679 34.487,10.491 34.675 C 10.291 34.876,10.188 35.138,10.242 35.309 C 10.293 35.469,10.224 35.747,10.089 35.925 C 9.954 36.104,9.842 36.381,9.839 36.542 C 9.836 36.702,9.758 36.833,9.667 36.833 C 9.575 36.833,9.500 37.058,9.500 37.333 C 9.500 37.608,9.421 37.833,9.323 37.833 C 9.226 37.833,9.190 37.903,9.243 37.988 C 9.296 38.074,9.267 38.188,9.179 38.243 C 9.091 38.297,9.035 38.640,9.056 39.004 C 9.081 39.450,9.023 39.667,8.880 39.667 C 8.744 39.667,8.667 39.898,8.667 40.306 C 8.667 40.657,8.610 41.001,8.542 41.069 C 8.382 41.229,8.379 41.257,8.354 42.760 C 8.341 43.552,8.272 43.981,8.167 43.917 C 8.002 43.815,7.932 44.039,7.991 44.475 C 8.008 44.599,7.961 44.662,7.886 44.616 C 7.601 44.440,7.778 53.448,8.068 53.862 C 8.234 54.099,8.333 54.590,8.333 55.170 C 8.333 55.682,8.404 56.171,8.491 56.258 C 8.577 56.345,8.667 56.782,8.690 57.229 C 8.712 57.675,8.810 58.125,8.907 58.229 C 9.004 58.332,9.072 58.698,9.058 59.042 C 9.045 59.385,9.097 59.667,9.176 59.667 C 9.254 59.667,9.369 59.948,9.431 60.292 C 9.493 60.635,9.606 60.997,9.683 61.094 C 9.760 61.192,9.841 61.509,9.863 61.798 C 9.886 62.088,9.999 62.361,10.116 62.406 C 10.239 62.453,10.282 62.607,10.219 62.771 C 10.145 62.963,10.173 63.016,10.305 62.934 C 10.490 62.820,10.579 63.114,10.512 63.625 C 10.498 63.740,10.564 63.833,10.659 63.833 C 10.755 63.833,10.822 63.890,10.808 63.958 C 10.757 64.205,11.342 65.333,11.520 65.333 C 11.620 65.333,11.662 65.440,11.612 65.570 C 11.562 65.699,11.629 65.847,11.761 65.898 C 11.892 65.948,12.000 66.127,12.000 66.295 C 12.000 66.463,12.073 66.673,12.162 66.762 C 12.251 66.851,12.349 67.088,12.379 67.288 C 12.410 67.488,12.549 67.786,12.690 67.951 C 12.830 68.115,13.075 68.536,13.235 68.885 C 13.394 69.234,13.632 69.561,13.762 69.611 C 13.892 69.661,13.961 69.761,13.917 69.833 C 13.872 69.906,13.947 70.008,14.084 70.061 C 14.221 70.113,14.333 70.267,14.333 70.403 C 14.333 70.701,15.046 71.500,15.311 71.500 C 15.490 71.500,15.573 71.828,15.512 72.294 C 15.497 72.410,15.544 72.485,15.617 72.461 C 15.690 72.437,15.767 72.474,15.788 72.545 C 15.848 72.745,16.241 73.137,16.333 73.088 C 16.379 73.064,16.588 73.222,16.798 73.439 C 17.007 73.656,17.120 73.838,17.048 73.844 C 16.976 73.850,17.085 73.922,17.292 74.005 C 17.498 74.088,17.667 74.262,17.667 74.392 C 17.667 74.522,17.817 74.667,18.000 74.715 C 18.183 74.763,18.333 74.926,18.333 75.078 C 18.333 75.229,18.408 75.307,18.500 75.250 C 18.592 75.193,18.667 75.232,18.667 75.335 C 18.667 75.439,18.779 75.636,18.917 75.774 C 19.054 75.911,19.167 75.978,19.167 75.923 C 19.167 75.867,19.344 75.993,19.561 76.202 C 19.778 76.412,19.929 76.631,19.897 76.689 C 19.864 76.748,19.986 76.834,20.169 76.882 C 20.351 76.930,20.500 77.071,20.500 77.195 C 20.500 77.319,20.669 77.498,20.875 77.592 C 21.081 77.685,21.231 77.853,21.208 77.964 C 21.185 78.076,21.260 78.148,21.375 78.125 C 21.490 78.102,21.567 78.170,21.547 78.276 C 21.497 78.540,21.898 78.846,22.340 78.880 C 22.541 78.895,22.894 79.153,23.123 79.454 C 23.352 79.754,23.643 80.000,23.770 80.000 C 23.896 80.000,24.150 80.150,24.333 80.333 C 24.517 80.517,24.667 80.618,24.667 80.558 C 24.667 80.497,24.830 80.591,25.029 80.766 C 25.271 80.978,25.349 81.001,25.266 80.833 C 25.198 80.696,25.260 80.729,25.404 80.907 C 25.549 81.085,25.781 81.247,25.920 81.268 C 26.059 81.288,26.303 81.465,26.462 81.661 C 26.621 81.857,26.863 82.034,27.000 82.055 C 27.356 82.109,28.897 82.865,29.019 83.044 C 29.075 83.127,29.172 83.181,29.234 83.164 C 29.449 83.104,30.418 83.555,30.791 83.889 C 30.997 84.073,31.211 84.178,31.266 84.123 C 31.321 84.068,31.660 84.176,32.020 84.363 C 32.379 84.551,32.819 84.666,32.997 84.619 C 33.175 84.573,33.404 84.635,33.506 84.757 C 33.608 84.880,33.790 84.942,33.912 84.895 C 34.034 84.849,34.183 84.892,34.245 84.991 C 34.306 85.091,34.421 85.132,34.500 85.083 C 34.579 85.035,34.691 85.071,34.748 85.164 C 34.806 85.257,35.096 85.333,35.393 85.333 C 35.690 85.333,36.005 85.401,36.092 85.485 C 36.179 85.568,36.662 85.683,37.167 85.739 C 37.671 85.796,38.796 85.924,39.667 86.023 C 41.732 86.258,355.790 86.410,356.072 86.176 C 356.176 86.090,356.877 86.004,357.631 85.986 C 358.384 85.968,359.000 85.889,359.000 85.810 C 359.000 85.731,359.444 85.667,359.986 85.667 C 360.528 85.667,360.997 85.599,361.028 85.515 C 361.058 85.432,361.346 85.340,361.667 85.311 C 361.988 85.281,362.295 85.195,362.350 85.118 C 362.404 85.042,362.686 84.972,362.975 84.964 C 363.264 84.956,363.500 84.886,363.500 84.808 C 363.500 84.730,363.556 84.676,363.625 84.686 C 364.034 84.751,364.339 84.645,364.234 84.474 C 364.161 84.356,364.188 84.327,364.304 84.399 C 364.408 84.463,364.663 84.421,364.872 84.306 C 365.080 84.190,365.297 84.109,365.355 84.125 C 365.413 84.140,365.593 84.006,365.756 83.827 C 365.939 83.624,366.267 83.500,366.619 83.500 C 366.955 83.500,367.144 83.432,367.083 83.333 C 367.027 83.242,367.083 83.167,367.209 83.167 C 367.335 83.167,367.740 83.021,368.109 82.842 C 368.479 82.663,368.887 82.495,369.015 82.467 C 369.144 82.439,369.324 82.331,369.416 82.226 C 369.508 82.121,370.049 81.790,370.618 81.490 C 371.186 81.190,371.623 80.898,371.588 80.841 C 371.523 80.736,372.403 80.291,372.591 80.333 C 372.646 80.345,372.826 80.200,372.991 80.011 C 373.155 79.822,373.382 79.667,373.496 79.667 C 373.610 79.667,374.040 79.310,374.453 78.875 C 374.865 78.440,375.153 78.177,375.092 78.292 C 375.030 78.406,375.035 78.500,375.102 78.500 C 375.281 78.500,376.667 77.022,376.667 76.830 C 376.667 76.740,376.750 76.667,376.851 76.667 C 377.062 76.667,379.500 74.171,379.500 73.955 C 379.500 73.877,379.565 73.854,379.644 73.903 C 379.803 74.001,380.890 72.864,380.962 72.524 C 381.048 72.121,381.538 71.500,381.769 71.500 C 381.896 71.500,382.000 71.344,382.000 71.154 C 382.000 70.963,382.219 70.588,382.487 70.321 C 382.755 70.053,382.939 69.833,382.895 69.833 C 382.852 69.833,383.045 69.590,383.324 69.292 C 383.603 68.994,383.832 68.625,383.833 68.472 C 383.833 68.319,383.908 68.169,383.999 68.139 C 384.089 68.108,384.180 67.882,384.201 67.637 C 384.221 67.391,384.303 67.204,384.384 67.220 C 384.465 67.237,384.615 67.100,384.717 66.917 C 384.820 66.733,385.038 66.380,385.202 66.132 C 385.366 65.883,385.500 65.597,385.500 65.495 C 385.500 65.393,385.615 65.194,385.756 65.054 C 385.911 64.899,385.969 64.666,385.904 64.462 C 385.840 64.258,385.887 64.070,386.024 63.985 C 386.148 63.908,386.258 63.787,386.269 63.714 C 386.309 63.433,386.745 62.500,386.836 62.500 C 386.889 62.500,386.950 62.219,386.973 61.875 C 386.996 61.531,387.086 61.225,387.174 61.194 C 387.262 61.164,387.333 60.879,387.333 60.561 C 387.333 60.243,387.450 59.758,387.592 59.483 C 387.734 59.208,387.807 58.845,387.753 58.676 C 387.697 58.501,387.771 58.253,387.923 58.101 C 388.070 57.954,388.138 57.833,388.075 57.833 C 388.011 57.833,388.062 57.706,388.188 57.551 C 388.385 57.308,388.382 57.290,388.167 57.417 C 387.951 57.544,387.948 57.525,388.145 57.282 C 388.271 57.127,388.320 57.000,388.254 57.000 C 388.188 57.000,388.275 56.756,388.448 56.458 C 388.654 56.103,388.779 55.517,388.810 54.752 C 388.837 54.111,388.925 53.507,389.006 53.410 C 389.233 53.135,389.194 45.953,388.964 45.811 C 388.844 45.737,388.782 45.172,388.796 44.264 C 388.808 43.399,388.750 42.833,388.648 42.833 C 388.556 42.833,388.523 42.764,388.575 42.680 C 388.627 42.596,388.569 42.426,388.446 42.303 C 388.323 42.180,388.238 41.893,388.257 41.665 C 388.276 41.437,388.207 41.142,388.104 41.010 C 387.961 40.826,387.966 40.799,388.125 40.895 C 388.257 40.974,388.333 40.922,388.333 40.755 C 388.333 40.609,388.221 40.446,388.083 40.394 C 387.935 40.337,387.833 40.085,387.832 39.774 C 387.832 39.486,387.719 39.035,387.582 38.773 C 387.445 38.510,387.333 38.160,387.333 37.995 C 387.333 37.830,387.264 37.669,387.179 37.639 C 387.095 37.608,386.994 37.358,386.956 37.083 C 386.918 36.808,386.839 36.471,386.782 36.333 C 386.724 36.196,386.649 35.896,386.615 35.667 C 386.523 35.053,386.198 34.333,386.014 34.333 C 385.925 34.333,385.884 34.169,385.923 33.967 C 385.997 33.581,385.267 32.167,384.993 32.167 C 384.905 32.167,384.833 32.051,384.833 31.910 C 384.833 31.768,384.683 31.492,384.500 31.295 C 384.317 31.098,384.167 30.810,384.167 30.656 C 384.167 30.501,384.055 30.281,383.919 30.168 C 383.782 30.055,383.706 29.905,383.749 29.835 C 383.888 29.610,383.318 28.667,383.043 28.667 C 382.897 28.667,382.823 28.622,382.878 28.567 C 382.933 28.512,382.758 28.252,382.489 27.989 C 382.220 27.726,382.000 27.375,382.000 27.209 C 382.000 27.043,381.850 26.799,381.667 26.667 C 381.483 26.535,381.333 26.325,381.333 26.202 C 381.333 25.938,376.254 20.833,375.992 20.833 C 375.894 20.833,375.853 20.770,375.901 20.692 C 375.949 20.614,375.806 20.453,375.583 20.333 C 375.360 20.214,375.212 20.061,375.254 19.993 C 375.342 19.851,374.277 19.000,374.011 19.000 C 373.913 19.000,373.833 18.921,373.833 18.823 C 373.833 18.726,373.758 18.693,373.667 18.750 C 373.575 18.807,373.500 18.736,373.500 18.593 C 373.500 18.434,373.353 18.333,373.123 18.333 C 372.916 18.333,372.653 18.183,372.539 18.000 C 372.424 17.817,372.209 17.667,372.060 17.667 C 371.911 17.667,371.668 17.530,371.520 17.363 C 371.244 17.054,370.683 16.759,370.458 16.807 C 370.390 16.821,370.333 16.760,370.333 16.671 C 370.333 16.462,369.409 15.980,369.271 16.118 C 369.214 16.175,369.167 16.135,369.167 16.028 C 369.167 15.921,368.993 15.833,368.781 15.833 C 368.570 15.833,368.235 15.683,368.038 15.500 C 367.842 15.317,367.527 15.167,367.340 15.167 C 367.153 15.167,367.000 15.097,367.000 15.011 C 367.000 14.853,366.352 14.574,366.125 14.634 C 366.056 14.652,366.000 14.592,366.000 14.500 C 366.000 14.408,365.846 14.333,365.658 14.333 C 365.471 14.333,365.089 14.215,364.810 14.071 C 364.531 13.927,364.194 13.851,364.060 13.903 C 363.923 13.955,363.861 13.924,363.918 13.831 C 363.974 13.741,363.865 13.667,363.677 13.667 C 363.488 13.667,363.333 13.592,363.333 13.500 C 363.333 13.408,363.221 13.333,363.083 13.333 C 362.946 13.333,362.833 13.258,362.833 13.167 C 362.833 13.075,362.454 13.000,361.990 13.000 C 361.526 13.000,361.186 12.937,361.234 12.860 C 361.282 12.782,360.930 12.705,360.452 12.689 C 359.974 12.672,359.558 12.585,359.528 12.496 C 359.497 12.406,359.110 12.333,358.667 12.333 C 358.170 12.333,357.835 12.253,357.792 12.125 C 357.741 11.973,356.986 11.901,354.988 11.860 C 353.485 11.828,352.127 11.735,351.971 11.651 C 351.495 11.396,43.007 11.454,42.910 11.709 M355.167 19.833 C 355.167 19.926,355.613 20.000,356.174 20.000 C 356.950 20.000,357.262 20.076,357.538 20.333 C 357.839 20.614,358.231 20.697,359.085 20.663 C 359.132 20.661,359.394 20.776,359.668 20.918 C 359.942 21.059,360.167 21.127,360.167 21.067 C 360.167 21.008,360.291 21.062,360.442 21.188 C 360.594 21.314,360.845 21.417,361.000 21.417 C 361.155 21.417,361.387 21.500,361.516 21.602 C 361.645 21.704,361.863 21.793,362.000 21.800 C 362.659 21.833,362.970 21.914,362.895 22.035 C 362.850 22.107,362.953 22.167,363.124 22.167 C 363.504 22.167,364.330 22.537,364.332 22.708 C 364.333 22.777,364.525 22.833,364.760 22.833 C 364.994 22.833,365.148 22.895,365.102 22.970 C 365.056 23.045,365.414 23.307,365.899 23.552 C 366.384 23.798,366.916 24.149,367.083 24.333 C 367.249 24.516,367.523 24.667,367.692 24.667 C 367.862 24.667,368.000 24.746,368.000 24.843 C 368.000 24.940,368.075 24.973,368.167 24.917 C 368.258 24.860,368.333 24.931,368.333 25.073 C 368.333 25.298,368.738 25.427,369.208 25.353 C 369.277 25.342,369.315 25.421,369.292 25.528 C 369.269 25.635,369.418 25.811,369.624 25.918 C 369.830 26.025,369.958 26.153,369.909 26.202 C 369.780 26.331,370.813 27.167,371.100 27.167 C 371.446 27.167,373.624 29.430,374.015 30.197 C 374.213 30.584,374.421 30.799,374.532 30.730 C 374.639 30.664,374.672 30.690,374.609 30.792 C 374.548 30.890,374.740 31.172,375.034 31.420 C 375.328 31.667,375.587 31.991,375.609 32.139 C 375.630 32.287,375.765 32.493,375.907 32.597 C 376.050 32.701,376.167 32.838,376.167 32.900 C 376.167 33.053,376.884 34.069,377.042 34.139 C 377.110 34.169,377.167 34.306,377.167 34.442 C 377.167 34.579,377.280 34.804,377.418 34.942 C 377.557 35.080,377.627 35.262,377.575 35.347 C 377.523 35.431,377.560 35.500,377.657 35.500 C 377.754 35.500,377.833 35.617,377.833 35.759 C 377.833 35.901,378.058 36.422,378.333 36.917 C 378.608 37.411,378.833 37.972,378.833 38.163 C 378.833 38.354,378.930 38.548,379.048 38.593 C 379.166 38.638,379.276 38.841,379.291 39.044 C 379.306 39.246,379.397 39.438,379.493 39.470 C 379.588 39.502,379.667 39.859,379.667 40.264 C 379.667 40.669,379.723 41.001,379.792 41.001 C 380.065 41.004,380.333 41.953,380.333 42.917 C 380.333 43.476,380.419 44.019,380.525 44.125 C 380.635 44.235,380.710 44.810,380.701 45.491 C 380.693 46.138,380.745 46.667,380.816 46.667 C 380.977 46.667,380.970 46.580,381.032 49.625 C 381.060 51.023,381.023 52.167,380.948 52.167 C 380.874 52.167,380.860 52.242,380.917 52.333 C 380.973 52.425,380.943 52.500,380.850 52.500 C 380.750 52.500,380.695 52.910,380.715 53.498 C 380.739 54.171,380.682 54.523,380.542 54.576 C 380.414 54.625,380.333 54.976,380.333 55.485 C 380.333 55.941,380.258 56.360,380.167 56.417 C 380.075 56.473,380.000 56.775,380.000 57.088 C 380.000 57.401,379.842 57.938,379.649 58.281 C 379.456 58.625,379.264 59.095,379.222 59.325 C 379.180 59.555,379.066 59.792,378.968 59.853 C 378.871 59.913,378.839 60.042,378.899 60.138 C 378.958 60.234,378.889 60.379,378.745 60.459 C 378.602 60.540,378.472 60.764,378.457 60.958 C 378.443 61.152,378.384 61.281,378.327 61.246 C 378.270 61.211,378.121 61.441,377.997 61.758 C 377.873 62.074,377.710 62.333,377.636 62.333 C 377.561 62.333,377.500 62.468,377.500 62.633 C 377.500 63.006,377.127 63.830,376.958 63.832 C 376.890 63.833,376.833 63.956,376.833 64.105 C 376.833 64.255,376.677 64.513,376.487 64.678 C 376.296 64.843,376.123 65.099,376.101 65.245 C 376.080 65.392,375.823 65.765,375.531 66.075 C 375.239 66.385,375.000 66.755,375.000 66.898 C 375.000 67.238,369.780 72.443,369.292 72.590 C 369.085 72.652,368.635 72.972,368.292 73.302 C 367.948 73.631,367.666 73.830,367.664 73.742 C 367.663 73.655,367.590 73.696,367.504 73.833 C 367.417 73.971,367.287 74.087,367.214 74.092 C 366.873 74.113,366.337 74.371,366.405 74.481 C 366.447 74.549,366.037 74.825,365.493 75.094 C 364.950 75.363,364.504 75.640,364.503 75.708 C 364.501 75.777,364.290 75.833,364.033 75.833 C 363.777 75.833,363.494 75.906,363.405 75.995 C 363.316 76.084,363.094 76.182,362.913 76.212 C 362.732 76.242,362.415 76.359,362.208 76.472 C 362.002 76.586,361.833 76.629,361.833 76.569 C 361.833 76.509,361.706 76.562,361.551 76.688 C 361.311 76.883,361.290 76.882,361.410 76.683 C 361.506 76.524,361.490 76.487,361.359 76.567 C 361.253 76.633,361.166 76.813,361.164 76.968 C 361.162 77.211,361.139 77.215,361.000 77.000 C 360.892 76.833,360.838 76.819,360.836 76.958 C 360.834 77.073,360.679 77.167,360.490 77.167 C 360.301 77.167,360.193 77.242,360.250 77.333 C 360.313 77.436,360.030 77.500,359.510 77.500 C 358.867 77.500,358.667 77.560,358.667 77.753 C 358.667 77.926,358.546 77.985,358.286 77.937 C 358.077 77.900,357.762 77.973,357.587 78.101 C 357.370 78.260,356.782 78.333,355.718 78.333 C 354.795 78.333,354.167 78.401,354.167 78.500 C 354.167 78.731,42.226 78.731,42.083 78.500 C 42.027 78.408,41.495 78.333,40.901 78.333 C 40.188 78.333,39.682 78.242,39.410 78.064 C 39.184 77.916,38.816 77.830,38.591 77.873 C 38.348 77.919,38.197 77.876,38.217 77.767 C 38.236 77.660,37.920 77.562,37.458 77.533 C 37.023 77.505,36.667 77.423,36.667 77.351 C 36.667 77.149,35.866 76.831,35.607 76.931 C 35.480 76.979,35.330 76.899,35.274 76.752 C 35.217 76.605,35.076 76.497,34.961 76.512 C 34.543 76.567,34.316 76.497,34.410 76.343 C 34.464 76.257,34.374 76.196,34.212 76.208 C 33.798 76.238,32.333 75.788,32.333 75.630 C 32.333 75.559,32.215 75.500,32.071 75.500 C 31.927 75.500,31.696 75.387,31.558 75.248 C 31.420 75.110,31.237 75.040,31.152 75.092 C 31.067 75.145,30.953 75.071,30.898 74.928 C 30.843 74.785,30.734 74.708,30.655 74.757 C 30.577 74.806,30.363 74.697,30.182 74.515 C 30.000 74.333,29.622 74.066,29.342 73.921 C 29.062 73.777,28.833 73.581,28.833 73.486 C 28.833 73.391,28.758 73.360,28.667 73.417 C 28.575 73.473,28.500 73.398,28.500 73.250 C 28.500 73.102,28.435 73.021,28.355 73.070 C 28.227 73.149,28.025 73.019,27.215 72.336 C 27.105 72.243,26.930 72.167,26.828 72.167 C 26.725 72.167,26.113 71.623,25.467 70.958 C 24.821 70.294,24.226 69.769,24.146 69.792 C 24.066 69.815,24.000 69.755,24.000 69.658 C 24.000 69.562,23.587 69.103,23.083 68.638 C 22.522 68.120,22.167 67.654,22.167 67.436 C 22.167 67.240,22.017 66.987,21.833 66.872 C 21.650 66.758,21.500 66.560,21.500 66.433 C 21.500 66.306,21.383 66.157,21.239 66.102 C 21.096 66.047,21.022 65.933,21.074 65.848 C 21.127 65.763,20.984 65.547,20.757 65.369 C 20.530 65.190,20.395 64.994,20.457 64.932 C 20.519 64.870,20.366 64.645,20.118 64.432 C 19.870 64.219,19.667 63.922,19.667 63.772 C 19.667 63.623,19.592 63.500,19.500 63.500 C 19.408 63.500,19.333 63.345,19.333 63.155 C 19.333 62.965,19.220 62.696,19.082 62.558 C 18.943 62.420,18.873 62.238,18.925 62.153 C 18.977 62.069,18.945 62.000,18.854 62.000 C 18.689 62.000,18.405 61.359,18.467 61.125 C 18.485 61.056,18.421 61.000,18.323 61.000 C 18.226 61.000,18.191 60.929,18.244 60.843 C 18.297 60.757,18.175 60.532,17.972 60.343 C 17.770 60.154,17.579 59.835,17.548 59.632 C 17.517 59.430,17.421 59.221,17.334 59.167 C 17.248 59.114,17.159 58.829,17.137 58.535 C 17.114 58.241,17.037 58.000,16.965 58.000 C 16.892 58.000,16.833 57.700,16.833 57.333 C 16.833 56.967,16.758 56.667,16.667 56.667 C 16.575 56.667,16.500 56.373,16.500 56.014 C 16.500 55.655,16.431 55.336,16.346 55.306 C 16.261 55.275,16.174 54.800,16.152 54.250 C 16.130 53.700,16.012 53.102,15.889 52.921 C 15.577 52.460,15.566 44.963,15.877 44.637 C 15.993 44.516,16.113 44.159,16.143 43.844 C 16.173 43.530,16.266 43.093,16.349 42.875 C 16.432 42.657,16.500 42.183,16.500 41.822 C 16.500 41.462,16.575 41.167,16.667 41.167 C 16.758 41.167,16.833 40.984,16.833 40.760 C 16.833 40.536,16.908 40.307,17.000 40.250 C 17.092 40.193,17.167 39.930,17.167 39.665 C 17.167 39.400,17.268 39.123,17.392 39.050 C 17.657 38.893,18.067 38.167,17.891 38.167 C 17.824 38.167,17.890 38.073,18.038 37.958 C 18.186 37.844,18.342 37.464,18.386 37.115 C 18.430 36.766,18.581 36.354,18.721 36.199 C 18.861 36.044,18.974 35.857,18.971 35.785 C 18.960 35.518,19.413 34.574,19.702 34.260 C 19.866 34.083,20.000 33.844,20.000 33.730 C 20.000 33.616,20.226 33.362,20.502 33.165 C 20.778 32.969,20.961 32.739,20.909 32.654 C 20.856 32.569,20.898 32.500,21.000 32.500 C 21.102 32.500,21.140 32.424,21.083 32.332 C 21.026 32.240,21.096 32.119,21.239 32.064 C 21.383 32.009,21.500 31.855,21.500 31.722 C 21.500 31.589,21.580 31.530,21.678 31.590 C 21.780 31.654,21.833 31.591,21.803 31.442 C 21.734 31.106,27.058 25.667,27.456 25.667 C 27.619 25.667,27.847 25.517,27.961 25.333 C 28.076 25.150,28.251 25.000,28.351 25.000 C 28.450 25.000,28.768 24.831,29.058 24.625 C 29.347 24.419,29.642 24.250,29.714 24.250 C 29.787 24.250,29.899 24.175,29.964 24.083 C 30.030 23.992,30.233 23.892,30.417 23.861 C 30.600 23.831,30.924 23.587,31.137 23.320 C 31.350 23.052,31.669 22.833,31.845 22.833 C 32.022 22.833,32.167 22.758,32.167 22.667 C 32.167 22.575,32.377 22.500,32.633 22.500 C 32.890 22.500,33.171 22.431,33.258 22.347 C 33.345 22.263,33.567 22.170,33.750 22.139 C 33.933 22.108,34.183 21.989,34.305 21.873 C 34.427 21.758,34.596 21.707,34.681 21.759 C 34.766 21.812,34.876 21.748,34.926 21.619 C 34.983 21.471,35.169 21.412,35.425 21.461 C 35.661 21.506,35.833 21.460,35.833 21.353 C 35.833 21.250,36.071 21.167,36.362 21.167 C 36.653 21.167,37.040 21.035,37.224 20.875 C 37.407 20.715,37.502 20.677,37.435 20.792 C 37.368 20.906,37.390 21.000,37.484 21.000 C 37.578 21.000,37.741 20.840,37.845 20.644 C 37.950 20.448,38.084 20.358,38.143 20.443 C 38.354 20.747,39.159 20.674,39.373 20.331 C 39.540 20.064,39.762 20.000,40.530 20.000 C 41.053 20.000,41.527 19.925,41.583 19.833 C 41.726 19.602,355.167 19.602,355.167 19.833 M42.667 29.500 C 42.932 29.671,42.748 29.706,41.542 29.713 C 41.244 29.715,41.000 29.780,41.000 29.858 C 41.000 29.936,40.840 30.000,40.644 30.000 C 40.076 30.000,38.929 30.380,38.783 30.617 C 38.710 30.736,38.368 30.833,38.023 30.833 C 37.520 30.833,37.323 30.932,37.026 31.333 C 36.823 31.608,36.509 31.833,36.328 31.833 C 36.148 31.833,36.000 31.908,36.000 32.000 C 36.000 32.092,35.930 32.167,35.844 32.167 C 35.758 32.167,35.477 32.254,35.219 32.361 C 34.961 32.468,34.712 32.568,34.667 32.584 C 34.191 32.746,34.000 32.921,34.000 33.194 C 34.000 33.373,33.925 33.473,33.833 33.417 C 33.742 33.360,33.667 33.398,33.667 33.500 C 33.667 33.602,33.592 33.640,33.500 33.583 C 33.408 33.527,33.333 33.560,33.333 33.657 C 33.333 33.754,33.192 33.833,33.019 33.833 C 32.846 33.833,32.585 34.017,32.437 34.242 C 32.290 34.467,31.861 34.935,31.485 35.284 C 31.108 35.632,30.700 36.109,30.579 36.343 C 30.457 36.578,30.063 37.065,29.704 37.427 C 29.344 37.788,28.958 38.365,28.845 38.708 C 28.733 39.052,28.567 39.333,28.477 39.333 C 28.387 39.333,28.355 39.400,28.406 39.483 C 28.457 39.565,28.386 39.675,28.249 39.727 C 28.112 39.780,28.000 40.017,28.000 40.255 C 28.000 40.500,27.928 40.642,27.833 40.583 C 27.740 40.525,27.667 40.659,27.667 40.889 C 27.667 41.114,27.546 41.344,27.399 41.400 C 27.249 41.458,27.173 41.610,27.226 41.747 C 27.277 41.882,27.192 42.063,27.035 42.151 C 26.878 42.238,26.769 42.353,26.792 42.405 C 26.910 42.675,26.812 43.340,26.667 43.250 C 26.565 43.187,26.500 43.439,26.500 43.897 C 26.500 44.309,26.425 44.693,26.333 44.750 C 26.242 44.807,26.167 45.486,26.167 46.260 C 26.167 47.087,26.098 47.667,26.000 47.667 C 25.897 47.667,25.833 48.524,25.833 49.907 C 25.833 51.220,25.902 52.190,26.000 52.250 C 26.092 52.307,26.167 52.757,26.167 53.250 C 26.167 53.743,26.242 54.193,26.333 54.250 C 26.425 54.307,26.500 54.654,26.500 55.022 C 26.500 55.396,26.611 55.801,26.752 55.942 C 26.890 56.080,26.956 56.270,26.899 56.363 C 26.841 56.456,26.869 56.693,26.960 56.891 C 27.052 57.088,27.259 57.567,27.420 57.954 C 27.581 58.341,27.778 58.618,27.857 58.569 C 27.935 58.520,28.000 58.635,28.000 58.823 C 28.000 59.012,28.150 59.317,28.333 59.500 C 28.517 59.683,28.667 59.988,28.667 60.177 C 28.667 60.365,28.742 60.473,28.833 60.417 C 28.925 60.360,29.000 60.398,29.000 60.502 C 29.000 60.606,29.113 60.804,29.252 60.942 C 29.390 61.080,29.460 61.262,29.408 61.347 C 29.356 61.431,29.435 61.500,29.583 61.500 C 29.732 61.500,29.810 61.569,29.758 61.653 C 29.622 61.873,30.156 62.358,30.388 62.225 C 30.496 62.163,30.535 62.168,30.475 62.234 C 30.415 62.301,30.865 62.874,31.475 63.508 C 32.085 64.142,32.682 64.776,32.802 64.917 C 32.922 65.058,33.109 65.123,33.218 65.060 C 33.327 64.998,33.365 65.004,33.303 65.073 C 33.166 65.225,34.092 66.166,34.381 66.168 C 34.492 66.169,34.761 66.394,34.977 66.668 C 35.194 66.942,35.501 67.167,35.661 67.167 C 35.821 67.167,36.140 67.341,36.370 67.555 C 36.600 67.768,36.908 67.925,37.054 67.904 C 37.200 67.882,37.406 67.970,37.513 68.099 C 37.620 68.228,37.889 68.333,38.111 68.333 C 38.332 68.333,38.675 68.483,38.872 68.667 C 39.128 68.905,39.460 69.000,40.041 69.000 C 40.488 69.000,40.812 69.067,40.761 69.149 C 40.651 69.326,41.057 69.513,41.748 69.604 C 42.222 69.666,42.357 69.697,43.188 69.935 C 43.423 70.002,43.504 69.974,43.428 69.851 C 43.363 69.746,43.426 69.667,43.573 69.667 C 43.716 69.667,43.833 69.742,43.833 69.833 C 43.833 69.939,45.136 70.000,47.407 70.000 C 49.609 70.000,51.020 69.936,51.083 69.833 C 51.140 69.742,51.339 69.667,51.526 69.667 C 51.712 69.667,52.071 69.520,52.322 69.342 C 52.573 69.163,53.086 68.999,53.462 68.976 C 53.839 68.954,54.109 68.875,54.064 68.801 C 54.018 68.727,54.172 68.667,54.407 68.667 C 54.641 68.667,54.833 68.597,54.833 68.511 C 54.833 68.426,54.976 68.311,55.150 68.255 C 55.381 68.182,55.467 67.998,55.467 67.578 C 55.467 67.261,55.399 67.043,55.317 67.094 C 55.234 67.145,55.167 67.064,55.167 66.915 C 55.167 66.597,54.753 66.135,54.603 66.286 C 54.546 66.342,54.500 66.259,54.500 66.101 C 54.500 65.943,54.444 65.839,54.375 65.870 C 54.306 65.901,53.976 65.643,53.642 65.297 C 53.308 64.950,53.065 64.667,53.103 64.667 C 53.141 64.667,52.890 64.383,52.544 64.036 C 52.199 63.690,51.860 63.432,51.792 63.463 C 51.723 63.494,51.667 63.403,51.667 63.260 C 51.667 63.117,51.573 63.019,51.458 63.042 C 51.344 63.065,51.269 62.990,51.292 62.875 C 51.315 62.760,51.208 62.667,51.056 62.667 C 50.903 62.667,50.827 62.617,50.887 62.557 C 51.301 62.144,50.518 62.024,47.288 62.007 C 45.441 61.997,43.888 61.922,43.838 61.840 C 43.787 61.759,43.522 61.667,43.248 61.638 C 42.974 61.608,42.703 61.518,42.645 61.439 C 42.587 61.359,42.291 61.265,41.988 61.230 C 41.684 61.195,41.386 61.085,41.324 60.985 C 41.263 60.886,41.165 60.811,41.106 60.819 C 40.711 60.872,40.495 60.809,40.583 60.667 C 40.640 60.575,40.532 60.500,40.343 60.500 C 40.154 60.500,40.000 60.441,40.000 60.369 C 40.000 60.297,39.842 60.226,39.648 60.211 C 39.315 60.186,38.645 59.652,38.028 58.920 C 37.875 58.738,37.356 58.196,36.875 57.715 C 36.394 57.234,36.000 56.733,36.000 56.601 C 36.000 56.469,35.924 56.336,35.832 56.305 C 35.739 56.274,35.627 56.062,35.584 55.833 C 35.540 55.604,35.315 55.279,35.085 55.111 C 34.835 54.929,34.667 54.641,34.667 54.398 C 34.667 54.173,34.550 53.945,34.407 53.890 C 34.264 53.835,34.189 53.682,34.240 53.550 C 34.291 53.417,34.260 53.174,34.171 53.008 C 34.082 52.842,33.996 52.279,33.979 51.756 C 33.961 51.222,33.850 50.707,33.724 50.581 C 33.410 50.267,33.424 48.386,33.743 48.067 C 33.887 47.922,33.966 47.584,33.938 47.229 C 33.911 46.885,33.975 46.602,34.089 46.558 C 34.197 46.517,34.265 46.299,34.241 46.075 C 34.216 45.851,34.276 45.619,34.374 45.558 C 34.472 45.497,34.503 45.526,34.443 45.623 C 34.384 45.720,34.452 45.843,34.595 45.898 C 34.738 45.953,34.807 46.075,34.748 46.170 C 34.690 46.264,34.704 46.321,34.779 46.296 C 34.855 46.271,34.949 46.325,34.988 46.417 C 35.106 46.692,35.464 47.000,35.665 47.000 C 35.768 47.000,35.807 47.075,35.750 47.167 C 35.693 47.258,35.725 47.333,35.820 47.333 C 36.016 47.333,40.734 52.009,40.779 52.248 C 40.811 52.418,41.358 52.658,41.513 52.570 C 41.567 52.540,42.089 53.037,42.674 53.674 C 43.259 54.312,43.871 54.833,44.035 54.833 C 44.199 54.833,44.333 54.908,44.333 55.000 C 44.333 55.092,44.446 55.167,44.583 55.167 C 44.721 55.167,44.833 55.242,44.833 55.333 C 44.833 55.433,45.503 55.500,46.510 55.500 C 47.585 55.500,48.149 55.440,48.083 55.333 C 47.944 55.108,48.221 55.121,48.450 55.350 C 48.627 55.527,49.541 55.034,49.872 54.583 C 49.940 54.492,49.996 54.478,49.997 54.553 C 50.002 54.783,51.561 53.186,51.602 52.909 C 51.623 52.766,51.765 52.458,51.918 52.224 C 52.071 51.991,52.159 51.657,52.114 51.483 C 52.068 51.309,52.099 51.167,52.182 51.167 C 52.265 51.167,52.333 51.050,52.333 50.907 C 52.333 50.764,52.397 50.686,52.475 50.735 C 52.762 50.912,52.596 48.421,52.290 47.954 C 52.129 47.708,51.982 47.323,51.963 47.099 C 51.944 46.874,51.870 46.727,51.798 46.772 C 51.726 46.816,51.667 46.657,51.667 46.417 C 51.667 46.168,51.595 46.025,51.500 46.083 C 51.408 46.140,51.333 46.069,51.333 45.927 C 51.333 45.784,51.216 45.667,51.073 45.667 C 50.931 45.667,50.860 45.592,50.917 45.500 C 50.973 45.408,50.898 45.333,50.750 45.333 C 50.602 45.333,50.527 45.258,50.583 45.167 C 50.640 45.075,50.569 45.000,50.427 45.000 C 50.284 45.000,50.167 44.883,50.167 44.740 C 50.167 44.597,50.092 44.527,50.000 44.583 C 49.908 44.640,49.833 44.565,49.833 44.417 C 49.833 44.268,49.758 44.193,49.667 44.250 C 49.575 44.307,49.500 44.281,49.500 44.193 C 49.500 43.985,48.348 42.833,48.140 42.833 C 48.052 42.833,48.027 42.758,48.083 42.667 C 48.140 42.575,48.057 42.500,47.899 42.500 C 47.741 42.500,47.653 42.458,47.705 42.406 C 47.831 42.280,46.952 41.361,46.792 41.450 C 46.723 41.488,46.667 41.435,46.667 41.331 C 46.667 41.071,46.239 40.667,45.963 40.667 C 45.701 40.667,42.833 37.919,42.833 37.668 C 42.833 37.575,43.002 37.494,43.208 37.486 C 44.059 37.455,44.403 37.374,44.464 37.192 C 44.556 36.916,49.017 36.921,48.958 37.197 C 48.935 37.306,49.124 37.414,49.377 37.438 C 49.630 37.461,49.957 37.600,50.103 37.746 C 50.322 37.965,50.415 37.974,50.633 37.797 C 50.793 37.668,50.852 37.659,50.782 37.775 C 50.664 37.973,51.559 38.409,51.961 38.349 C 52.076 38.332,52.213 38.427,52.264 38.561 C 52.316 38.694,52.690 38.902,53.095 39.022 C 53.501 39.141,53.833 39.298,53.833 39.370 C 53.833 39.441,53.914 39.500,54.012 39.500 C 54.259 39.500,54.674 39.937,54.548 40.063 C 54.491 40.120,54.569 40.167,54.722 40.167 C 54.875 40.167,55.000 40.284,55.000 40.427 C 55.000 40.569,55.075 40.640,55.167 40.583 C 55.258 40.527,55.333 40.563,55.333 40.664 C 55.333 40.766,55.521 41.036,55.750 41.265 C 55.979 41.494,56.167 41.641,56.167 41.590 C 56.167 41.540,56.429 41.790,56.750 42.145 C 57.071 42.500,57.333 42.913,57.333 43.062 C 57.333 43.211,57.443 43.333,57.578 43.333 C 57.728 43.333,57.785 43.431,57.726 43.585 C 57.608 43.894,58.120 44.715,58.345 44.576 C 58.435 44.521,58.498 44.537,58.484 44.613 C 58.418 44.994,58.523 45.500,58.708 45.696 C 58.823 45.818,58.913 46.104,58.909 46.333 C 58.904 46.563,58.964 46.794,59.042 46.848 C 59.120 46.903,59.189 48.473,59.195 50.338 L 59.206 53.730 59.801 54.240 C 60.409 54.761,61.872 56.217,62.347 56.774 C 62.492 56.944,62.886 57.308,63.224 57.583 C 63.561 57.858,63.874 58.201,63.920 58.344 C 63.976 58.519,64.180 58.595,64.543 58.575 C 65.437 58.525,65.500 58.507,65.500 58.311 C 65.500 58.207,65.661 57.982,65.859 57.811 C 66.074 57.625,66.233 57.270,66.256 56.926 C 66.296 56.326,66.931 54.841,67.239 54.625 C 67.358 54.541,67.334 54.446,67.167 54.336 C 66.968 54.206,66.964 54.171,67.147 54.169 C 67.320 54.167,67.356 53.984,67.293 53.426 C 67.234 52.904,67.275 52.661,67.430 52.601 C 67.734 52.485,67.752 46.689,67.449 46.573 C 67.320 46.523,67.269 46.226,67.307 45.748 C 67.351 45.202,67.306 44.999,67.142 44.997 C 66.968 44.995,66.974 44.955,67.167 44.818 C 67.356 44.684,67.366 44.621,67.207 44.556 C 67.092 44.510,67.040 44.403,67.092 44.319 C 67.144 44.235,67.094 44.167,66.982 44.167 C 66.870 44.167,66.822 44.123,66.875 44.069 C 66.976 43.968,66.688 42.981,66.514 42.833 C 66.248 42.606,65.833 41.648,65.833 41.259 C 65.833 41.017,65.683 40.658,65.500 40.462 C 65.317 40.265,65.167 39.958,65.167 39.779 C 65.167 39.601,64.975 39.278,64.741 39.061 C 64.508 38.844,64.355 38.667,64.403 38.667 C 64.450 38.667,64.427 38.498,64.351 38.292 C 64.274 38.085,64.164 37.935,64.106 37.958 C 63.900 38.039,63.333 37.329,63.333 36.990 C 63.333 36.801,63.258 36.693,63.167 36.750 C 63.075 36.807,63.000 36.753,63.000 36.630 C 63.000 36.382,62.552 35.953,62.118 35.786 C 61.961 35.726,61.833 35.586,61.833 35.475 C 61.833 35.234,60.177 33.601,60.055 33.722 C 60.010 33.768,59.669 33.512,59.299 33.153 C 58.929 32.794,58.486 32.500,58.313 32.500 C 58.141 32.500,58.000 32.421,58.000 32.323 C 58.000 32.226,57.925 32.193,57.833 32.250 C 57.742 32.307,57.667 32.236,57.667 32.093 C 57.667 31.927,57.516 31.833,57.250 31.833 C 57.021 31.833,56.833 31.758,56.833 31.667 C 56.833 31.575,56.687 31.500,56.508 31.500 C 56.330 31.500,56.114 31.376,56.029 31.225 C 55.944 31.073,55.678 30.928,55.437 30.903 C 55.196 30.877,54.877 30.734,54.728 30.585 C 54.579 30.436,54.356 30.353,54.233 30.400 C 54.110 30.447,53.942 30.367,53.861 30.222 C 53.779 30.076,53.609 29.994,53.481 30.039 C 53.354 30.084,52.984 30.017,52.660 29.889 C 52.335 29.762,51.923 29.672,51.743 29.689 C 51.099 29.749,50.649 29.664,50.750 29.500 C 50.818 29.391,49.405 29.334,46.635 29.336 C 43.850 29.338,42.502 29.393,42.667 29.500 M179.500 30.168 C 179.500 30.259,179.219 30.334,178.875 30.334 C 178.531 30.334,177.997 30.489,177.688 30.677 C 177.379 30.866,177.027 30.982,176.907 30.936 C 176.787 30.890,176.665 30.907,176.636 30.973 C 176.557 31.155,175.346 31.833,175.100 31.833 C 174.982 31.833,174.749 31.983,174.583 32.167 C 174.417 32.350,174.143 32.500,173.974 32.500 C 173.805 32.500,173.685 32.590,173.708 32.701 C 173.731 32.811,173.637 32.908,173.500 32.917 C 173.362 32.925,173.269 33.022,173.292 33.133 C 173.315 33.243,173.277 33.317,173.208 33.296 C 172.906 33.207,170.417 35.347,170.417 35.698 C 170.417 35.763,170.323 35.910,170.208 36.025 C 170.094 36.140,170.000 36.343,170.000 36.478 C 170.000 36.612,169.955 36.677,169.899 36.621 C 169.767 36.489,169.345 36.879,169.444 37.042 C 169.486 37.110,169.403 37.167,169.260 37.167 C 169.101 37.167,169.000 37.313,169.000 37.543 C 169.000 37.750,168.857 38.009,168.682 38.119 C 168.507 38.228,168.313 38.546,168.252 38.825 C 168.190 39.105,168.067 39.333,167.977 39.333 C 167.887 39.333,167.863 39.413,167.923 39.511 C 167.983 39.608,167.924 39.814,167.791 39.969 C 167.657 40.123,167.447 40.488,167.322 40.780 C 167.198 41.071,167.035 41.272,166.961 41.226 C 166.886 41.180,166.873 41.437,166.930 41.797 C 167.012 42.309,166.977 42.473,166.767 42.554 C 166.620 42.610,166.500 42.831,166.500 43.045 C 166.500 43.258,166.423 43.511,166.328 43.605 C 166.139 43.795,166.213 52.075,166.419 53.655 C 166.536 54.557,166.835 55.089,167.100 54.867 C 167.176 54.803,167.137 54.883,167.012 55.047 C 166.815 55.304,166.832 55.394,167.142 55.724 C 167.355 55.951,167.500 56.322,167.500 56.641 C 167.500 56.973,167.599 57.215,167.760 57.277 C 167.902 57.332,167.981 57.476,167.934 57.599 C 167.887 57.721,168.033 57.966,168.258 58.143 C 168.483 58.320,168.667 58.611,168.667 58.790 C 168.667 58.969,168.817 59.251,169.000 59.417 C 169.183 59.583,169.333 59.817,169.333 59.937 C 169.333 60.186,170.174 61.095,170.399 61.088 C 170.480 61.085,170.630 61.230,170.732 61.410 C 170.996 61.875,171.208 62.086,171.542 62.212 C 171.702 62.273,171.833 62.406,171.833 62.507 C 171.833 62.757,172.269 63.176,172.397 63.048 C 172.454 62.991,172.500 63.074,172.500 63.232 C 172.500 63.390,172.556 63.486,172.625 63.444 C 172.694 63.402,172.847 63.473,172.965 63.601 C 173.083 63.729,173.136 63.833,173.082 63.833 C 172.827 63.833,173.857 64.667,174.117 64.672 C 174.282 64.675,174.559 64.785,174.733 64.917 C 174.907 65.048,175.105 65.121,175.174 65.079 C 175.242 65.037,175.336 65.099,175.381 65.218 C 175.427 65.338,175.773 65.537,176.149 65.661 C 176.525 65.785,176.833 65.950,176.833 66.027 C 176.833 66.104,177.025 66.167,177.260 66.167 C 177.494 66.167,177.645 66.234,177.594 66.316 C 177.476 66.507,177.973 66.703,178.207 66.558 C 178.313 66.493,178.336 66.528,178.264 66.644 C 178.178 66.784,178.309 66.819,178.726 66.767 C 179.115 66.719,179.337 66.769,179.395 66.919 C 179.464 67.099,180.315 67.146,183.665 67.152 C 186.347 67.156,187.812 67.100,187.748 66.996 C 187.651 66.839,187.759 66.816,188.816 66.771 C 189.081 66.759,189.443 66.619,189.621 66.458 C 189.798 66.298,190.139 66.167,190.378 66.167 C 190.618 66.167,190.860 66.092,190.917 66.000 C 190.973 65.908,191.133 65.833,191.272 65.833 C 191.410 65.833,191.637 65.720,191.775 65.582 C 191.914 65.443,192.088 65.368,192.163 65.414 C 192.237 65.460,192.341 65.386,192.394 65.249 C 192.447 65.112,192.650 65.000,192.846 65.000 C 193.042 65.000,193.347 64.816,193.524 64.591 C 193.731 64.328,193.943 64.219,194.117 64.286 C 194.298 64.355,194.348 64.325,194.268 64.195 C 194.197 64.082,194.244 64.000,194.380 64.000 C 194.727 64.000,196.041 62.534,195.899 62.305 C 195.823 62.182,195.865 62.141,196.014 62.195 C 196.151 62.244,196.634 61.900,197.167 61.372 C 197.671 60.872,197.971 60.520,197.833 60.590 C 197.630 60.692,197.623 60.673,197.792 60.491 C 197.906 60.368,198.000 60.132,198.000 59.968 C 198.000 59.804,198.150 59.576,198.333 59.461 C 198.517 59.347,198.667 59.156,198.667 59.038 C 198.667 58.920,198.774 58.782,198.905 58.731 C 199.044 58.678,199.138 58.430,199.129 58.137 C 199.121 57.861,199.183 57.586,199.266 57.526 C 199.497 57.359,200.036 56.333,199.893 56.333 C 199.823 56.333,199.857 56.243,199.967 56.133 C 200.209 55.891,200.233 55.606,200.000 55.750 C 199.908 55.807,199.833 55.732,199.833 55.583 C 199.833 55.435,199.908 55.360,200.000 55.417 C 200.092 55.473,200.167 55.365,200.167 55.177 C 200.167 54.988,200.223 54.833,200.292 54.833 C 200.360 54.833,200.406 52.952,200.393 50.652 L 200.369 46.471 199.916 46.235 C 199.237 45.883,183.424 45.886,183.071 46.238 C 182.669 46.640,182.728 52.687,183.138 53.058 C 183.403 53.297,183.939 53.333,187.221 53.333 L 191.000 53.333 191.000 53.750 C 191.000 53.979,190.925 54.167,190.833 54.167 C 190.742 54.167,190.667 54.299,190.667 54.460 C 190.667 54.621,190.517 54.847,190.333 54.961 C 190.150 55.076,190.000 55.292,190.000 55.442 C 190.000 55.591,189.775 55.929,189.500 56.192 C 189.225 56.455,189.000 56.744,189.000 56.835 C 189.000 56.926,188.887 57.000,188.750 57.000 C 188.612 57.000,188.500 57.075,188.500 57.167 C 188.500 57.258,188.411 57.333,188.302 57.333 C 188.194 57.333,187.950 57.477,187.761 57.652 C 187.572 57.827,187.192 57.996,186.917 58.027 C 186.642 58.058,186.318 58.177,186.196 58.292 C 186.047 58.433,185.369 58.500,184.083 58.500 C 182.801 58.500,182.117 58.433,181.964 58.292 C 181.609 57.966,181.029 57.667,180.752 57.667 C 180.614 57.667,180.500 57.592,180.500 57.500 C 180.500 57.408,180.385 57.333,180.245 57.333 C 180.104 57.333,179.940 57.204,179.879 57.045 C 179.729 56.654,178.725 55.667,178.478 55.667 C 178.368 55.667,178.323 55.621,178.379 55.566 C 178.434 55.510,178.353 55.328,178.198 55.160 C 178.043 54.993,177.767 54.570,177.585 54.220 C 177.402 53.870,177.211 53.546,177.159 53.500 C 177.107 53.454,176.966 53.174,176.846 52.877 C 176.726 52.580,176.562 52.379,176.481 52.429 C 176.400 52.479,176.333 52.295,176.333 52.020 C 176.333 51.745,176.258 51.473,176.167 51.417 C 176.067 51.355,176.000 50.224,176.000 48.583 C 176.000 46.943,176.067 45.812,176.167 45.750 C 176.258 45.693,176.333 45.498,176.333 45.317 C 176.333 45.135,176.483 44.825,176.667 44.628 C 176.850 44.431,177.000 44.109,177.000 43.911 C 177.000 43.713,177.158 43.409,177.351 43.234 C 177.544 43.060,177.815 42.635,177.953 42.292 C 178.090 41.948,178.270 41.667,178.351 41.667 C 178.433 41.667,178.500 41.484,178.500 41.261 C 178.500 41.014,178.620 40.818,178.807 40.758 C 178.975 40.705,179.213 40.475,179.335 40.247 C 179.463 40.007,179.704 39.833,179.908 39.833 C 180.101 39.833,180.388 39.683,180.545 39.500 C 180.731 39.282,181.036 39.167,181.425 39.167 C 181.779 39.167,181.978 39.099,181.917 39.000 C 181.826 38.853,182.322 38.745,182.735 38.822 C 182.818 38.838,182.941 38.763,183.007 38.655 C 183.150 38.424,184.977 38.347,185.051 38.568 C 185.078 38.652,185.435 38.748,185.842 38.781 C 186.540 38.839,187.961 39.409,188.185 39.720 C 188.241 39.798,188.335 39.855,188.394 39.848 C 188.754 39.799,189.009 39.851,188.944 39.958 C 188.902 40.027,188.973 40.180,189.101 40.298 C 189.229 40.416,189.333 40.470,189.333 40.417 C 189.333 40.364,189.438 40.417,189.566 40.535 C 189.694 40.653,189.774 40.790,189.745 40.839 C 189.716 40.888,189.911 41.103,190.179 41.316 C 190.447 41.530,190.667 41.846,190.667 42.019 C 190.667 42.222,190.784 42.333,191.000 42.333 C 191.183 42.333,191.333 42.408,191.333 42.500 C 191.333 42.759,192.161 42.696,192.442 42.415 C 192.580 42.277,192.749 42.198,192.816 42.240 C 192.884 42.281,193.047 42.154,193.178 41.957 C 193.506 41.465,194.842 40.167,195.021 40.167 C 195.101 40.167,195.148 40.110,195.125 40.042 C 195.102 39.973,195.126 39.917,195.179 39.917 C 195.368 39.917,195.833 39.351,195.833 39.121 C 195.833 38.991,196.249 38.469,196.756 37.961 C 197.628 37.090,198.047 35.833,197.466 35.833 C 197.393 35.833,197.333 35.716,197.333 35.573 C 197.333 35.431,197.258 35.360,197.167 35.417 C 197.075 35.473,197.000 35.403,197.000 35.260 C 197.000 35.117,196.940 35.000,196.866 35.000 C 196.667 35.000,195.411 33.809,195.453 33.661 C 195.473 33.591,195.307 33.488,195.084 33.432 C 194.861 33.376,194.492 33.143,194.263 32.915 C 194.035 32.687,193.733 32.500,193.591 32.500 C 193.449 32.500,193.333 32.421,193.333 32.323 C 193.333 32.226,193.272 32.185,193.197 32.231 C 193.122 32.278,192.878 32.148,192.655 31.944 C 192.432 31.740,191.912 31.473,191.500 31.351 C 191.088 31.229,190.694 31.044,190.625 30.940 C 190.534 30.802,190.461 30.811,190.356 30.972 C 190.248 31.141,190.190 31.107,190.118 30.831 C 190.065 30.629,189.943 30.515,189.845 30.576 C 189.747 30.637,189.667 30.607,189.667 30.510 C 189.667 30.413,189.587 30.333,189.490 30.333 C 189.393 30.333,189.367 30.427,189.431 30.542 C 189.525 30.708,189.504 30.708,189.324 30.542 C 189.201 30.427,188.928 30.333,188.717 30.333 C 188.506 30.333,188.333 30.265,188.333 30.182 C 188.333 30.097,186.431 30.025,183.917 30.017 C 181.099 30.008,179.500 30.063,179.500 30.168 M310.580 30.172 C 310.525 30.261,310.232 30.333,309.929 30.333 C 309.626 30.333,309.199 30.473,308.981 30.644 C 308.762 30.814,308.413 31.007,308.206 31.072 C 307.998 31.137,307.865 31.249,307.909 31.320 C 307.953 31.392,307.673 31.552,307.286 31.676 C 306.900 31.801,306.546 31.943,306.500 31.993 C 306.454 32.043,306.065 32.249,305.635 32.451 C 304.728 32.878,302.790 34.629,302.946 34.880 C 303.004 34.975,302.975 35.004,302.881 34.946 C 302.625 34.788,300.653 36.938,300.772 37.246 C 300.825 37.386,300.783 37.500,300.678 37.500 C 300.301 37.500,299.856 38.101,299.414 39.208 C 299.167 39.827,298.893 40.333,298.806 40.333 C 298.718 40.333,298.698 40.415,298.760 40.516 C 298.822 40.616,298.714 40.913,298.520 41.176 C 298.325 41.438,298.167 41.844,298.167 42.077 C 298.167 42.309,298.104 42.500,298.027 42.500 C 297.950 42.500,297.878 42.762,297.865 43.081 C 297.853 43.401,297.721 43.850,297.570 44.080 C 297.420 44.310,297.342 44.614,297.396 44.757 C 297.454 44.907,297.426 44.974,297.331 44.915 C 297.225 44.850,297.167 46.142,297.167 48.583 C 297.167 51.396,297.216 52.323,297.360 52.234 C 297.492 52.152,297.523 52.228,297.458 52.474 C 297.402 52.688,297.455 52.885,297.589 52.960 C 297.716 53.031,297.837 53.433,297.866 53.874 C 297.895 54.331,298.009 54.698,298.136 54.747 C 298.256 54.793,298.305 54.911,298.245 55.008 C 298.105 55.234,298.301 56.040,298.470 55.935 C 298.539 55.893,298.612 56.054,298.632 56.294 C 298.652 56.535,298.748 56.781,298.845 56.841 C 298.943 56.901,299.042 57.055,299.067 57.183 C 299.144 57.586,299.547 58.333,299.688 58.333 C 299.762 58.333,299.785 58.432,299.738 58.553 C 299.692 58.674,299.901 59.041,300.202 59.367 C 300.503 59.694,300.767 60.040,300.788 60.137 C 300.809 60.234,301.743 61.236,302.862 62.365 C 303.982 63.493,304.838 64.317,304.765 64.196 C 304.655 64.013,304.692 64.013,304.983 64.194 C 305.175 64.315,305.333 64.453,305.333 64.502 C 305.333 64.551,305.615 64.738,305.958 64.919 C 306.302 65.099,306.621 65.290,306.667 65.344 C 306.756 65.448,307.340 65.712,307.533 65.736 C 307.597 65.744,307.744 65.844,307.858 65.958 C 307.973 66.073,308.291 66.167,308.564 66.167 C 308.838 66.167,309.217 66.303,309.406 66.469 C 310.109 67.088,319.500 67.566,319.500 66.983 C 319.500 66.901,319.706 66.828,319.958 66.822 C 320.364 66.811,320.379 66.794,320.083 66.667 C 319.802 66.546,319.834 66.522,320.282 66.512 C 320.574 66.505,320.860 66.425,320.917 66.333 C 320.973 66.242,321.234 66.167,321.496 66.167 C 321.758 66.167,321.997 66.094,322.028 66.005 C 322.058 65.916,322.233 65.820,322.417 65.791 C 322.935 65.711,324.387 64.972,324.686 64.636 C 324.834 64.470,325.042 64.333,325.148 64.333 C 325.658 64.333,329.833 59.858,329.833 59.311 C 329.833 59.228,330.035 58.843,330.282 58.455 C 330.528 58.067,330.741 57.637,330.755 57.500 C 330.806 57.000,331.398 55.333,331.525 55.333 C 331.862 55.333,331.669 46.576,331.325 46.282 C 330.958 45.967,315.000 45.836,315.000 46.147 C 315.000 46.228,314.856 46.332,314.681 46.378 C 314.126 46.523,314.165 52.231,314.724 52.875 L 315.122 53.333 318.542 53.333 C 322.235 53.333,322.511 53.409,321.894 54.253 C 321.769 54.424,321.667 54.685,321.667 54.834 C 321.667 54.982,321.514 55.268,321.327 55.469 C 321.140 55.669,321.028 55.833,321.078 55.833 C 321.436 55.833,319.443 57.422,318.481 57.903 C 316.719 58.785,312.333 58.700,312.333 57.784 C 312.333 57.709,312.272 57.685,312.197 57.732 C 311.981 57.865,311.000 57.199,311.000 56.919 C 311.000 56.780,310.944 56.685,310.875 56.708 C 310.806 56.731,310.749 56.712,310.747 56.667 C 310.745 56.621,310.333 56.171,309.830 55.667 C 308.884 54.717,308.263 53.792,308.449 53.607 C 308.508 53.548,308.468 53.500,308.361 53.500 C 308.254 53.500,308.167 53.317,308.167 53.093 C 308.167 52.869,308.092 52.640,308.000 52.583 C 307.908 52.527,307.831 52.241,307.827 51.948 C 307.824 51.656,307.714 51.229,307.583 51.000 C 307.266 50.445,307.240 46.768,307.550 46.167 C 307.668 45.938,307.783 45.450,307.807 45.084 C 307.830 44.717,307.976 44.229,308.130 44.000 C 308.538 43.395,308.833 42.819,308.833 42.631 C 308.833 42.541,309.066 42.249,309.351 41.984 C 309.636 41.718,309.808 41.500,309.735 41.500 C 309.661 41.500,309.853 41.240,310.160 40.923 C 310.468 40.606,310.783 40.385,310.860 40.433 C 310.937 40.481,311.000 40.390,311.000 40.232 C 311.000 40.074,311.050 39.994,311.110 40.054 C 311.171 40.115,311.325 40.015,311.453 39.832 C 311.581 39.650,311.831 39.500,312.009 39.500 C 312.188 39.500,312.333 39.437,312.333 39.360 C 312.333 39.208,313.665 38.723,313.884 38.795 C 313.958 38.819,314.122 38.735,314.250 38.607 C 314.532 38.326,315.867 38.349,316.220 38.641 C 316.355 38.753,316.529 38.834,316.607 38.819 C 317.026 38.744,318.008 38.852,317.938 38.965 C 317.893 39.038,318.014 39.109,318.207 39.124 C 318.747 39.165,319.507 39.521,319.405 39.686 C 319.355 39.767,319.439 39.833,319.593 39.833 C 319.947 39.833,322.167 41.789,322.167 42.100 C 322.167 42.547,323.943 42.406,324.428 41.920 C 324.655 41.693,324.829 41.452,324.815 41.385 C 324.800 41.317,324.918 41.184,325.075 41.089 C 325.454 40.861,326.534 39.777,326.768 39.390 C 326.870 39.221,326.984 39.121,327.022 39.167 C 327.124 39.289,327.645 38.771,327.561 38.632 C 327.521 38.568,327.679 38.390,327.911 38.238 C 328.143 38.086,328.333 37.867,328.333 37.751 C 328.333 37.636,328.452 37.442,328.597 37.322 C 329.126 36.883,328.596 35.023,327.933 34.991 C 327.832 34.986,327.385 34.539,326.939 33.998 C 326.493 33.456,326.080 33.019,326.022 33.026 C 325.700 33.067,325.473 32.958,325.098 32.583 C 324.869 32.354,324.566 32.167,324.424 32.167 C 324.283 32.167,324.167 32.110,324.167 32.041 C 324.167 31.890,323.036 31.477,322.625 31.478 C 322.465 31.479,322.333 31.405,322.333 31.313 C 322.333 31.222,322.258 31.193,322.167 31.250 C 322.075 31.307,322.000 31.280,322.000 31.191 C 322.000 30.915,320.516 30.291,320.063 30.378 C 319.801 30.428,319.608 30.374,319.555 30.235 C 319.450 29.962,310.748 29.901,310.580 30.172 M72.740 30.777 C 72.262 31.292,72.090 37.672,72.542 38.158 C 72.711 38.340,72.703 38.357,72.500 38.250 C 72.362 38.177,72.416 38.279,72.618 38.475 C 72.973 38.820,73.125 38.833,76.776 38.833 C 79.724 38.833,80.522 38.878,80.367 39.033 C 80.214 39.186,80.167 42.406,80.167 52.512 L 80.167 65.790 80.737 66.181 C 81.051 66.397,81.283 66.612,81.253 66.661 C 81.039 67.007,88.937 66.730,89.296 66.379 L 89.674 66.007 89.672 52.420 L 89.669 38.833 93.475 38.833 C 96.951 38.833,97.306 38.807,97.558 38.529 C 97.882 38.170,97.986 31.000,97.667 31.000 C 97.575 31.000,97.500 30.896,97.500 30.768 C 97.500 30.351,97.116 30.338,85.066 30.338 L 73.147 30.338 72.740 30.777 M100.387 30.762 C 100.128 30.984,99.860 31.166,99.792 31.166 C 99.723 31.167,99.667 31.284,99.667 31.427 C 99.667 31.569,99.592 31.640,99.502 31.584 C 99.393 31.517,99.336 37.400,99.336 48.786 L 99.337 66.090 99.733 66.388 C 100.148 66.700,108.000 66.925,108.000 66.625 C 108.000 66.556,108.085 66.500,108.190 66.500 C 108.782 66.500,108.823 66.046,108.828 59.458 L 108.833 53.000 113.667 53.000 L 118.500 53.000 118.500 59.507 C 118.500 67.630,117.891 66.686,123.127 66.686 L 127.129 66.686 127.600 66.249 C 127.988 65.889,128.028 65.786,127.827 65.659 C 127.658 65.553,127.648 65.504,127.793 65.503 C 127.961 65.501,127.998 62.040,127.980 48.375 L 127.956 31.250 127.475 30.799 L 126.993 30.347 123.244 30.347 C 117.963 30.346,118.500 29.500,118.500 37.825 L 118.500 44.167 113.667 44.167 L 108.833 44.167 108.833 37.675 L 108.833 31.184 108.268 30.753 L 107.704 30.322 104.280 30.340 C 100.909 30.358,100.849 30.364,100.387 30.762 M132.531 30.673 C 132.331 30.860,132.167 30.967,132.167 30.911 C 132.167 30.855,132.056 30.920,131.921 31.055 C 131.514 31.462,131.542 65.321,131.950 66.012 C 132.109 66.280,132.339 66.500,132.462 66.500 C 132.586 66.500,132.652 66.556,132.609 66.625 C 132.567 66.694,137.005 66.733,142.473 66.712 C 150.352 66.682,152.428 66.631,152.482 66.462 C 152.519 66.346,152.620 66.204,152.707 66.148 C 153.036 65.932,152.896 59.063,152.555 58.722 C 152.269 58.436,151.888 58.420,146.542 58.465 L 140.833 58.513 140.833 55.756 L 140.833 53.000 146.000 52.979 C 152.123 52.954,151.447 53.010,151.839 52.500 C 152.274 51.935,152.341 44.984,151.917 44.560 C 151.779 44.422,151.667 44.367,151.667 44.438 C 151.667 44.509,151.577 44.477,151.467 44.367 C 151.320 44.220,149.885 44.167,146.050 44.167 L 140.833 44.167 140.833 41.500 L 140.833 38.833 146.639 38.833 L 152.444 38.833 152.652 38.443 C 152.887 38.006,153.014 31.167,152.788 31.167 C 152.717 31.167,152.587 30.979,152.500 30.750 L 152.342 30.333 142.787 30.333 C 135.375 30.333,133.183 30.380,133.009 30.542 C 132.829 30.708,132.808 30.708,132.902 30.542 C 133.072 30.241,132.948 30.285,132.531 30.673 M213.333 30.507 C 213.333 30.595,213.242 30.648,213.131 30.625 C 213.020 30.602,212.852 30.752,212.758 30.958 C 212.664 31.165,212.530 31.333,212.460 31.333 C 212.391 31.333,212.333 31.558,212.333 31.833 C 212.333 32.108,212.258 32.333,212.167 32.333 C 212.075 32.333,212.000 32.512,212.000 32.730 C 212.000 32.948,211.881 33.224,211.737 33.344 C 211.583 33.472,211.504 33.724,211.547 33.948 C 211.589 34.170,211.539 34.333,211.429 34.333 C 211.324 34.333,211.226 34.492,211.211 34.685 C 211.197 34.879,211.066 35.168,210.922 35.328 C 210.777 35.488,210.706 35.741,210.764 35.893 C 210.822 36.043,210.798 36.167,210.711 36.167 C 210.503 36.167,209.748 37.637,209.886 37.774 C 209.944 37.833,209.892 38.076,209.771 38.315 C 209.123 39.594,208.994 39.958,209.096 40.223 C 209.172 40.421,209.134 40.498,208.979 40.465 C 208.846 40.437,208.769 40.531,208.795 40.689 C 208.819 40.839,208.737 41.001,208.612 41.049 C 208.487 41.097,208.378 41.369,208.370 41.653 C 208.362 41.936,208.121 42.516,207.835 42.940 C 207.549 43.364,207.357 43.820,207.408 43.954 C 207.459 44.087,207.446 44.284,207.378 44.390 C 207.310 44.496,207.244 44.621,207.230 44.667 C 207.047 45.277,206.943 45.485,206.850 45.427 C 206.788 45.389,206.721 45.555,206.701 45.796 C 206.681 46.038,206.590 46.310,206.499 46.401 C 206.408 46.492,206.333 46.702,206.333 46.867 C 206.333 47.032,206.254 47.167,206.157 47.167 C 206.060 47.167,206.027 47.242,206.083 47.333 C 206.140 47.425,206.099 47.500,205.992 47.500 C 205.885 47.500,205.842 47.615,205.896 47.756 C 205.952 47.902,205.888 48.053,205.747 48.107 C 205.611 48.160,205.500 48.373,205.500 48.581 C 205.500 49.072,205.042 50.167,204.836 50.167 C 204.749 50.167,204.725 50.291,204.784 50.444 C 204.857 50.635,204.827 50.682,204.688 50.597 C 204.543 50.507,204.515 50.586,204.589 50.880 C 204.661 51.166,204.613 51.318,204.429 51.389 C 204.284 51.445,204.167 51.682,204.167 51.921 C 204.167 52.159,204.107 52.316,204.033 52.271 C 203.960 52.225,203.882 52.462,203.859 52.797 C 203.836 53.132,203.763 53.446,203.697 53.495 C 203.405 53.708,203.012 54.503,203.093 54.715 C 203.142 54.842,203.070 55.039,202.934 55.152 C 202.798 55.265,202.723 55.453,202.767 55.569 C 202.812 55.685,202.733 55.876,202.591 55.994 C 202.449 56.111,202.333 56.382,202.333 56.595 C 202.333 56.809,202.108 57.317,201.833 57.724 C 201.504 58.213,201.333 58.673,201.333 59.076 C 201.333 59.440,201.266 59.645,201.167 59.583 C 201.072 59.525,201.000 59.668,201.000 59.917 C 201.000 60.165,200.928 60.309,200.833 60.250 C 200.667 60.147,200.618 60.301,200.625 60.906 C 200.627 61.084,200.524 61.333,200.398 61.460 C 200.271 61.587,200.167 61.831,200.167 62.002 C 200.167 62.173,200.092 62.360,200.000 62.417 C 199.908 62.473,199.833 62.698,199.833 62.917 C 199.833 63.135,199.758 63.360,199.667 63.417 C 199.575 63.473,199.500 63.627,199.500 63.758 C 199.500 63.889,199.370 64.148,199.210 64.334 C 198.933 64.659,198.784 65.883,199.042 65.724 C 199.110 65.682,199.167 65.764,199.167 65.907 C 199.167 66.050,199.236 66.167,199.321 66.167 C 199.406 66.167,199.500 66.284,199.529 66.426 C 199.577 66.653,200.121 66.686,203.857 66.685 L 208.130 66.685 208.565 66.281 C 208.804 66.060,209.000 65.760,209.000 65.616 C 209.000 65.471,209.075 65.307,209.167 65.250 C 209.258 65.193,209.333 64.889,209.333 64.573 C 209.333 64.258,209.413 64.000,209.510 64.000 C 209.607 64.000,209.645 63.933,209.595 63.852 C 209.545 63.771,209.615 63.612,209.750 63.500 C 209.885 63.388,209.955 63.229,209.905 63.148 C 209.855 63.067,209.887 63.000,209.976 63.000 C 210.065 63.000,210.101 62.767,210.056 62.482 C 210.007 62.170,210.039 62.004,210.136 62.065 C 210.330 62.184,210.500 61.796,210.500 61.236 C 210.500 61.015,210.570 60.833,210.656 60.833 C 210.741 60.833,210.835 60.627,210.864 60.375 L 210.917 59.917 217.125 59.873 L 223.333 59.829 223.353 60.206 C 223.364 60.414,223.362 60.645,223.349 60.721 C 223.336 60.796,223.402 60.811,223.496 60.753 C 223.595 60.691,223.667 60.820,223.667 61.060 C 223.667 61.287,223.754 61.501,223.860 61.537 C 223.966 61.572,224.046 61.840,224.038 62.132 C 224.029 62.424,224.111 62.720,224.220 62.790 C 224.328 62.860,224.429 63.104,224.445 63.333 C 224.489 63.986,225.025 65.353,225.275 65.449 C 225.399 65.497,225.500 65.660,225.500 65.811 C 225.500 66.082,226.131 66.604,226.375 66.535 C 226.444 66.516,226.500 66.556,226.500 66.625 C 226.500 66.779,234.636 66.732,235.042 66.576 C 235.202 66.515,235.333 66.360,235.333 66.232 C 235.333 65.909,235.483 65.942,235.807 66.338 C 236.069 66.659,236.290 66.678,240.112 66.713 L 244.141 66.750 244.500 66.299 C 244.852 65.857,244.859 65.742,244.840 60.341 C 244.823 55.490,244.852 54.833,245.077 54.833 C 245.218 54.833,245.333 54.933,245.333 55.054 C 245.333 55.176,245.521 55.451,245.749 55.666 C 245.978 55.881,246.129 56.093,246.084 56.138 C 245.953 56.269,246.357 56.672,246.519 56.572 C 246.600 56.521,246.667 56.597,246.667 56.740 C 246.667 56.883,246.737 57.000,246.822 57.000 C 246.957 57.000,247.265 57.671,247.187 57.795 C 247.142 57.868,247.904 58.564,248.260 58.776 C 248.438 58.882,248.565 59.051,248.542 59.151 C 248.519 59.251,248.575 59.333,248.667 59.333 C 248.758 59.333,248.833 59.457,248.833 59.609 C 248.833 59.761,249.133 60.170,249.500 60.519 C 249.867 60.868,250.167 61.229,250.167 61.321 C 250.167 61.413,250.429 61.751,250.750 62.072 C 251.071 62.393,251.333 62.808,251.333 62.994 C 251.333 63.181,251.390 63.335,251.458 63.337 C 251.730 63.346,252.779 64.450,253.037 65.000 C 253.188 65.321,253.567 65.830,253.880 66.132 L 254.448 66.681 262.931 66.678 C 269.645 66.675,271.429 66.630,271.483 66.462 C 271.521 66.345,271.672 66.137,271.819 66.000 C 272.106 65.731,272.462 65.071,272.537 64.667 C 272.562 64.530,272.689 64.335,272.819 64.233 C 272.948 64.131,273.010 63.934,272.957 63.794 C 272.903 63.655,272.943 63.457,273.045 63.355 C 273.147 63.253,273.253 63.076,273.281 62.960 C 273.594 61.681,273.763 61.167,273.871 61.167 C 273.942 61.167,274.000 60.974,274.000 60.738 C 274.000 59.830,273.974 59.833,280.486 59.833 L 286.496 59.833 286.747 60.434 C 286.885 60.765,286.954 61.106,286.901 61.192 C 286.848 61.277,286.996 61.598,287.229 61.904 C 287.467 62.216,287.671 62.726,287.694 63.064 C 287.717 63.395,287.794 63.667,287.867 63.667 C 287.940 63.667,288.000 63.882,288.000 64.146 C 288.000 64.410,288.107 64.715,288.238 64.824 C 288.369 64.932,288.449 65.167,288.415 65.344 C 288.379 65.531,288.549 65.883,288.821 66.180 L 289.289 66.693 293.682 66.687 C 297.748 66.682,298.083 66.659,298.192 66.382 C 298.257 66.218,298.318 66.158,298.327 66.250 C 298.336 66.342,298.453 66.273,298.586 66.097 C 298.779 65.841,298.787 65.727,298.622 65.523 C 298.452 65.313,298.460 65.294,298.667 65.412 C 298.804 65.490,298.748 65.368,298.542 65.141 C 298.335 64.914,298.172 64.621,298.178 64.489 C 298.186 64.344,298.246 64.380,298.333 64.583 C 298.436 64.823,298.480 64.843,298.488 64.656 C 298.495 64.513,298.350 64.235,298.167 64.038 C 297.983 63.842,297.833 63.523,297.833 63.330 C 297.833 63.138,297.758 63.027,297.667 63.083 C 297.567 63.145,297.500 62.946,297.500 62.593 C 297.500 62.267,297.425 62.000,297.333 62.000 C 297.242 62.000,297.178 61.944,297.192 61.875 C 297.207 61.806,297.092 61.465,296.937 61.118 C 296.783 60.770,296.699 60.416,296.752 60.331 C 296.884 60.116,296.334 59.313,296.137 59.435 C 296.050 59.489,295.992 59.432,296.009 59.308 C 296.089 58.720,295.985 57.990,295.833 58.083 C 295.739 58.142,295.667 58.005,295.667 57.769 C 295.667 57.540,295.535 57.254,295.375 57.134 C 295.073 56.909,295.019 56.769,294.961 56.076 C 294.943 55.851,294.887 55.667,294.838 55.667 C 294.680 55.667,294.292 54.649,294.292 54.234 C 294.292 53.991,294.194 53.833,294.045 53.833 C 293.885 53.833,293.834 53.737,293.902 53.562 C 293.959 53.413,293.923 53.192,293.822 53.070 C 293.722 52.949,293.617 52.650,293.590 52.406 C 293.564 52.162,293.476 51.914,293.396 51.856 C 293.120 51.655,292.833 51.004,292.833 50.576 C 292.833 50.336,292.761 50.192,292.669 50.249 C 292.577 50.305,292.544 50.245,292.595 50.113 C 292.645 49.983,292.569 49.759,292.426 49.617 C 292.283 49.474,292.167 49.239,292.167 49.095 C 292.167 48.951,292.092 48.833,292.000 48.833 C 291.908 48.833,291.833 48.661,291.833 48.450 C 291.833 48.239,291.760 47.994,291.671 47.905 C 291.582 47.816,291.486 47.594,291.458 47.413 C 291.430 47.232,291.336 46.971,291.250 46.833 C 291.163 46.696,291.080 46.497,291.064 46.392 C 291.048 46.286,290.842 45.818,290.607 45.350 C 290.373 44.883,290.234 44.499,290.299 44.497 C 290.364 44.496,290.315 44.430,290.190 44.351 C 290.065 44.272,289.952 43.985,289.938 43.714 C 289.925 43.443,289.713 42.918,289.468 42.548 C 289.224 42.178,288.993 41.660,288.955 41.396 C 288.867 40.778,288.570 40.063,288.342 39.922 C 288.244 39.862,288.196 39.635,288.235 39.419 C 288.280 39.173,288.214 38.990,288.059 38.931 C 287.923 38.878,287.854 38.769,287.904 38.687 C 287.955 38.605,287.885 38.445,287.748 38.332 C 287.609 38.216,287.500 37.851,287.500 37.497 C 287.500 37.068,287.413 36.836,287.226 36.764 C 287.076 36.706,286.998 36.613,287.055 36.557 C 287.111 36.500,287.009 36.247,286.828 35.993 C 286.648 35.739,286.500 35.337,286.500 35.099 C 286.500 34.861,286.443 34.667,286.373 34.667 C 286.180 34.667,285.636 33.319,285.730 33.074 C 285.776 32.956,285.630 32.662,285.406 32.421 C 285.183 32.180,285.000 31.836,285.000 31.657 C 285.000 31.477,284.786 31.106,284.524 30.832 L 284.047 30.333 280.394 30.333 L 276.741 30.333 276.287 30.850 C 276.038 31.135,275.833 31.439,275.833 31.527 C 275.833 31.615,275.758 31.640,275.667 31.583 C 275.575 31.527,275.500 31.630,275.500 31.814 C 275.500 31.997,275.425 32.193,275.333 32.250 C 275.242 32.307,275.167 32.569,275.167 32.833 C 275.167 33.098,275.092 33.360,275.000 33.417 C 274.908 33.473,274.833 33.703,274.833 33.927 C 274.833 34.150,274.758 34.333,274.667 34.333 C 274.575 34.333,274.500 34.446,274.500 34.583 C 274.500 34.721,274.425 34.833,274.333 34.833 C 274.242 34.833,274.167 35.028,274.167 35.266 C 274.167 35.504,274.003 35.928,273.804 36.208 C 273.604 36.489,273.430 36.838,273.416 36.984 C 273.403 37.130,273.229 37.583,273.030 37.990 C 272.830 38.396,272.667 38.940,272.667 39.198 C 272.667 39.456,272.592 39.667,272.500 39.667 C 272.408 39.667,272.333 39.817,272.333 40.000 C 272.333 40.183,272.258 40.333,272.167 40.333 C 272.075 40.333,272.000 40.525,272.000 40.759 C 272.000 40.993,271.764 41.650,271.475 42.218 C 270.816 43.512,270.584 44.065,270.321 44.958 C 270.207 45.348,270.046 45.667,269.963 45.667 C 269.881 45.667,269.856 45.736,269.908 45.820 C 269.960 45.904,269.890 46.086,269.752 46.225 C 269.613 46.363,269.500 46.702,269.500 46.978 C 269.500 47.254,269.425 47.527,269.333 47.583 C 269.242 47.640,269.167 47.837,269.167 48.022 C 269.167 48.206,269.054 48.470,268.917 48.607 C 268.779 48.745,268.667 49.039,268.667 49.262 C 268.667 49.485,268.587 49.667,268.490 49.667 C 268.393 49.667,268.360 49.742,268.417 49.833 C 268.473 49.925,268.436 50.000,268.333 50.000 C 268.231 50.000,268.193 50.075,268.250 50.167 C 268.307 50.258,268.274 50.333,268.177 50.333 C 268.079 50.333,268.000 50.488,268.000 50.677 C 268.000 50.865,267.926 50.974,267.835 50.918 C 267.741 50.860,267.713 50.926,267.769 51.073 C 267.825 51.220,267.762 51.371,267.621 51.425 C 267.486 51.477,267.375 51.697,267.375 51.914 C 267.375 52.131,267.216 52.638,267.021 53.040 C 266.826 53.443,266.667 53.936,266.667 54.136 C 266.667 54.336,266.592 54.500,266.500 54.500 C 266.408 54.500,266.333 54.618,266.333 54.762 C 266.333 54.906,266.221 55.136,266.083 55.274 C 265.946 55.411,265.833 55.673,265.833 55.856 C 265.833 56.039,265.743 56.352,265.633 56.553 C 265.523 56.753,265.417 57.009,265.398 57.122 C 265.379 57.234,265.240 57.450,265.089 57.601 C 264.938 57.753,264.858 57.990,264.911 58.129 C 264.964 58.268,264.899 58.502,264.766 58.649 C 264.518 58.923,264.500 58.976,264.500 59.427 C 264.500 59.569,264.425 59.640,264.333 59.583 C 264.234 59.522,264.167 59.720,264.167 60.073 C 264.167 60.400,264.092 60.667,264.000 60.667 C 263.908 60.667,263.833 60.817,263.833 61.000 C 263.833 61.183,263.758 61.333,263.667 61.333 C 263.575 61.333,263.509 61.390,263.520 61.458 C 263.643 62.238,263.478 63.052,263.276 62.667 C 263.155 62.438,262.963 62.271,262.849 62.296 C 262.735 62.321,262.682 62.277,262.731 62.197 C 262.780 62.118,262.561 61.801,262.244 61.494 C 261.926 61.186,261.667 60.845,261.667 60.735 C 261.667 60.625,261.554 60.492,261.417 60.440 C 261.279 60.387,261.167 60.216,261.167 60.061 C 261.167 59.905,261.122 59.822,261.068 59.876 C 260.898 60.047,259.336 58.354,259.432 58.103 C 259.487 57.960,259.274 57.681,258.890 57.392 C 257.844 56.607,257.667 56.436,257.667 56.213 C 257.667 56.096,257.592 56.000,257.500 56.000 C 257.408 56.000,257.333 55.884,257.333 55.743 C 257.333 55.601,256.921 55.070,256.417 54.562 C 255.912 54.053,255.500 53.550,255.499 53.444 C 255.499 53.337,255.269 53.005,254.988 52.705 C 254.450 52.132,254.392 51.549,254.881 51.632 C 255.038 51.659,255.167 51.609,255.167 51.521 C 255.167 51.432,255.397 51.309,255.679 51.247 C 255.960 51.186,256.148 51.093,256.096 51.041 C 256.044 50.989,256.170 50.859,256.376 50.751 C 256.582 50.644,256.731 50.468,256.708 50.361 C 256.685 50.254,256.760 50.185,256.875 50.208 C 256.990 50.231,257.065 50.156,257.042 50.042 C 257.019 49.927,257.066 49.852,257.146 49.875 C 257.327 49.926,258.232 49.004,258.381 48.617 C 258.441 48.461,258.609 48.333,258.755 48.333 C 258.900 48.333,258.979 48.267,258.928 48.186 C 258.878 48.104,258.996 47.996,259.190 47.946 C 259.414 47.887,259.509 47.764,259.450 47.609 C 259.398 47.475,259.461 47.227,259.589 47.058 C 259.718 46.889,259.825 46.586,259.828 46.385 C 259.831 46.184,259.908 45.973,260.000 45.917 C 260.092 45.860,260.168 45.537,260.170 45.198 C 260.172 44.846,260.313 44.405,260.500 44.167 C 260.879 43.683,260.994 39.945,260.650 39.302 C 260.517 39.053,260.517 38.991,260.650 39.073 C 260.882 39.217,260.881 39.120,260.642 38.596 C 260.537 38.366,260.387 38.217,260.309 38.265 C 260.231 38.313,260.167 38.202,260.167 38.018 C 260.167 37.688,260.069 37.404,259.498 36.083 C 259.340 35.717,259.158 35.248,259.094 35.042 C 259.030 34.835,258.866 34.667,258.729 34.667 C 258.592 34.667,258.521 34.600,258.572 34.519 C 258.622 34.438,258.514 34.332,258.331 34.285 C 258.149 34.237,258.000 34.074,258.000 33.922 C 258.000 33.771,257.925 33.693,257.833 33.750 C 257.742 33.807,257.667 33.732,257.667 33.583 C 257.667 33.435,257.592 33.360,257.500 33.417 C 257.408 33.473,257.333 33.414,257.333 33.286 C 257.333 32.949,256.784 32.500,256.372 32.500 C 256.178 32.500,255.973 32.425,255.917 32.333 C 255.860 32.242,255.668 32.167,255.490 32.167 C 255.312 32.167,255.167 32.092,255.167 32.000 C 255.167 31.908,255.053 31.833,254.914 31.833 C 254.619 31.833,254.063 31.529,253.661 31.147 C 253.481 30.976,253.057 30.871,252.496 30.858 C 251.980 30.846,251.503 30.737,251.344 30.593 C 250.970 30.254,237.612 30.202,237.198 30.538 C 236.994 30.703,236.964 30.704,237.061 30.542 C 237.313 30.123,236.848 30.350,236.118 31.004 C 235.650 31.423,235.370 31.814,235.372 32.046 C 235.445 40.007,235.286 64.824,235.163 64.748 C 235.074 64.692,235.000 64.497,235.000 64.314 C 235.000 64.130,234.936 64.020,234.857 64.068 C 234.779 64.117,234.749 63.977,234.791 63.756 C 234.840 63.501,234.743 63.223,234.523 62.986 C 234.333 62.783,234.218 62.553,234.266 62.475 C 234.314 62.397,234.274 62.333,234.177 62.333 C 234.079 62.333,234.000 62.133,234.000 61.888 C 234.000 61.643,233.883 61.314,233.741 61.157 C 233.599 60.999,233.470 60.712,233.456 60.519 C 233.441 60.325,233.370 60.167,233.298 60.167 C 233.226 60.167,233.167 59.974,233.167 59.738 C 233.167 59.502,233.053 59.196,232.915 59.058 C 232.777 58.920,232.701 58.745,232.748 58.671 C 232.794 58.596,232.723 58.326,232.591 58.071 C 232.459 57.816,232.388 57.546,232.435 57.470 C 232.482 57.395,232.440 57.333,232.343 57.333 C 232.246 57.333,232.185 57.264,232.208 57.178 C 232.231 57.093,232.100 56.900,231.917 56.749 C 231.733 56.599,231.676 56.522,231.790 56.580 C 231.923 56.647,231.963 56.597,231.902 56.438 C 231.850 56.303,231.702 56.152,231.573 56.103 C 231.439 56.051,231.382 55.899,231.441 55.747 C 231.552 55.457,231.036 54.167,230.808 54.167 C 230.730 54.167,230.667 53.867,230.667 53.500 C 230.667 53.133,230.592 52.833,230.500 52.833 C 230.408 52.833,230.333 52.688,230.333 52.510 C 230.333 52.332,230.254 52.137,230.156 52.077 C 229.933 51.939,229.635 51.203,229.598 50.698 C 229.582 50.486,229.498 50.261,229.410 50.198 C 229.322 50.135,229.226 49.933,229.197 49.750 C 229.168 49.567,229.055 49.342,228.947 49.250 C 228.839 49.158,228.730 48.900,228.704 48.676 C 228.679 48.451,228.548 48.145,228.413 47.996 C 228.277 47.846,228.167 47.594,228.167 47.435 C 228.167 47.277,228.092 47.193,228.000 47.250 C 227.901 47.311,227.833 47.113,227.833 46.760 C 227.833 46.434,227.758 46.167,227.667 46.167 C 227.575 46.167,227.500 45.985,227.500 45.764 C 227.500 45.542,227.426 45.336,227.336 45.306 C 227.246 45.275,227.146 45.010,227.114 44.718 C 227.083 44.425,226.969 44.081,226.863 43.952 C 226.757 43.824,226.719 43.670,226.779 43.610 C 226.840 43.549,226.801 43.500,226.694 43.500 C 226.588 43.500,226.500 43.308,226.500 43.073 C 226.500 42.793,226.434 42.688,226.307 42.766 C 226.175 42.848,226.144 42.772,226.208 42.525 C 226.271 42.286,226.200 42.092,225.997 41.950 C 225.829 41.833,225.705 41.589,225.721 41.410 C 225.737 41.227,225.659 41.102,225.542 41.125 C 225.407 41.152,225.333 40.961,225.333 40.583 C 225.333 40.262,225.277 39.999,225.208 39.999 C 225.029 39.997,224.667 39.162,224.667 38.750 C 224.667 38.558,224.573 38.299,224.458 38.176 C 224.289 37.993,224.297 37.974,224.500 38.071 C 224.657 38.147,224.642 38.103,224.461 37.954 C 224.302 37.824,224.219 37.670,224.276 37.613 C 224.334 37.555,224.276 37.382,224.149 37.228 C 224.021 37.075,223.916 36.829,223.915 36.683 C 223.912 36.294,223.484 35.333,223.313 35.333 C 223.233 35.333,223.167 35.141,223.167 34.907 C 223.167 34.624,223.101 34.521,222.972 34.601 C 222.846 34.678,222.810 34.635,222.870 34.479 C 222.921 34.345,222.859 34.094,222.731 33.919 C 222.604 33.745,222.500 33.463,222.500 33.292 C 222.500 33.120,222.425 33.027,222.333 33.083 C 222.233 33.146,222.167 32.915,222.167 32.500 C 222.167 32.085,222.101 31.854,222.000 31.917 C 221.908 31.973,221.833 31.896,221.833 31.744 C 221.833 31.367,221.178 30.474,220.987 30.591 C 220.903 30.644,220.833 30.610,220.833 30.517 C 220.833 30.406,219.519 30.347,217.083 30.347 C 214.799 30.347,213.333 30.409,213.333 30.507 M334.833 30.530 C 334.833 30.636,334.785 30.674,334.725 30.614 C 334.666 30.555,334.441 30.711,334.225 30.961 L 333.834 31.417 333.834 48.708 C 333.833 60.125,333.890 66.000,334.000 66.000 C 334.092 66.000,334.167 66.104,334.167 66.232 C 334.167 66.653,334.626 66.673,344.545 66.676 C 354.163 66.680,354.387 66.672,354.690 66.347 C 354.999 66.015,355.200 58.577,354.891 58.886 C 354.832 58.946,354.699 58.880,354.596 58.739 C 354.434 58.518,353.648 58.485,348.705 58.496 L 343.000 58.507 343.000 55.754 L 343.000 53.000 348.321 53.000 L 353.641 53.000 354.154 52.569 L 354.667 52.137 354.667 48.594 C 354.667 45.146,354.657 45.040,354.286 44.609 L 353.906 44.167 348.453 44.167 L 343.000 44.167 343.000 41.500 L 343.000 38.833 348.583 38.813 C 355.108 38.788,354.424 38.832,354.738 38.417 C 354.943 38.145,354.990 37.455,354.995 34.706 C 355.000 31.389,354.924 30.830,354.417 30.463 C 354.118 30.246,334.833 30.313,334.833 30.530 M248.333 38.636 C 248.334 38.699,248.531 38.761,248.772 38.775 C 249.013 38.789,249.257 38.870,249.313 38.954 C 249.370 39.039,249.548 39.156,249.708 39.215 C 249.869 39.274,250.000 39.438,250.000 39.578 C 250.000 39.718,250.075 39.833,250.167 39.833 C 250.258 39.833,250.333 39.988,250.333 40.177 C 250.333 40.365,250.400 40.479,250.481 40.428 C 250.864 40.192,250.971 43.093,250.597 43.583 C 250.458 43.767,250.342 44.016,250.339 44.137 C 250.331 44.470,250.012 44.724,248.958 45.238 C 248.431 45.495,248.000 45.772,248.000 45.853 C 248.000 46.141,245.047 46.029,244.934 45.736 C 244.761 45.285,244.819 38.533,244.996 38.472 C 245.293 38.371,248.333 38.521,248.333 38.636 M217.509 45.078 C 217.596 45.024,217.667 45.172,217.667 45.407 C 217.667 45.641,217.742 45.833,217.833 45.833 C 217.925 45.833,218.000 46.100,218.000 46.427 C 218.000 46.780,218.067 46.978,218.167 46.917 C 218.314 46.825,218.400 47.180,218.378 47.790 C 218.374 47.903,218.450 47.947,218.547 47.888 C 218.656 47.820,218.684 47.882,218.619 48.051 C 218.559 48.207,218.636 48.446,218.799 48.608 C 218.955 48.764,219.098 49.010,219.117 49.154 C 219.193 49.753,219.281 50.014,219.468 50.202 C 219.577 50.311,219.667 50.488,219.667 50.596 C 219.667 50.704,219.779 50.886,219.917 51.000 C 220.613 51.578,220.257 51.667,217.250 51.667 C 214.422 51.667,214.118 51.615,214.526 51.207 C 214.669 51.064,214.671 50.956,214.533 50.789 C 214.390 50.617,214.423 50.509,214.673 50.329 C 214.853 50.199,215.000 49.901,215.000 49.667 C 215.000 49.433,215.108 49.086,215.241 48.897 C 215.373 48.708,215.574 48.185,215.687 47.735 C 215.800 47.285,216.028 46.692,216.195 46.417 C 216.362 46.142,216.499 45.747,216.499 45.539 C 216.500 45.332,216.566 45.032,216.647 44.873 C 216.728 44.714,216.897 44.364,217.022 44.096 L 217.250 43.609 217.301 44.392 C 217.329 44.829,217.421 45.132,217.509 45.078 M280.828 45.038 C 280.836 45.445,281.342 46.667,281.504 46.667 C 281.577 46.667,281.604 46.882,281.562 47.146 C 281.510 47.476,281.567 47.657,281.743 47.724 C 281.884 47.779,282.000 48.013,282.000 48.245 C 282.000 48.477,282.075 48.667,282.167 48.667 C 282.258 48.667,282.336 48.835,282.339 49.042 C 282.342 49.248,282.447 49.600,282.571 49.825 C 282.696 50.049,282.759 50.333,282.712 50.455 C 282.665 50.577,282.802 50.829,283.017 51.014 C 283.641 51.556,283.188 51.661,280.218 51.664 C 277.317 51.667,277.074 51.569,277.909 50.734 C 278.052 50.590,278.125 50.401,278.071 50.313 C 278.016 50.224,278.062 50.043,278.173 49.909 C 278.284 49.776,278.316 49.667,278.245 49.667 C 278.173 49.667,278.246 49.521,278.407 49.344 C 278.568 49.166,278.650 48.941,278.590 48.844 C 278.530 48.746,278.559 48.667,278.655 48.667 C 278.751 48.667,278.877 48.367,278.936 48.000 C 278.995 47.633,279.108 47.333,279.188 47.333 C 279.268 47.333,279.333 47.071,279.333 46.750 C 279.333 46.429,279.413 46.167,279.510 46.167 C 279.607 46.167,279.640 46.092,279.583 46.000 C 279.527 45.908,279.560 45.833,279.657 45.833 C 279.754 45.833,279.833 45.721,279.833 45.583 C 279.833 45.446,279.917 45.333,280.019 45.333 C 280.122 45.333,280.169 45.194,280.125 45.024 C 279.983 44.482,280.312 44.076,280.593 44.447 C 280.719 44.614,280.825 44.880,280.828 45.038 M245.009 54.106 C 245.203 54.617,245.153 54.715,244.774 54.569 C 244.500 54.464,244.402 53.987,244.611 53.778 C 244.787 53.602,244.831 53.639,245.009 54.106 " stroke="none" fill="#fcdc6b" fill-rule="evenodd"></path><path id="path1" d="M251.312 30.542 C 251.453 30.722,251.740 30.824,252.062 30.808 L 252.583 30.783 252.083 30.710 C 251.808 30.670,251.471 30.550,251.333 30.444 C 251.116 30.275,251.113 30.288,251.312 30.542 M152.902 34.583 C 152.902 36.233,152.927 36.886,152.958 36.033 C 152.988 35.181,152.988 33.831,152.957 33.033 C 152.927 32.236,152.902 32.933,152.902 34.583 M244.904 42.083 C 244.904 44.100,244.929 44.902,244.958 43.866 C 244.987 42.829,244.987 41.179,244.958 40.199 C 244.928 39.219,244.904 40.067,244.904 42.083 M89.667 52.417 C 89.667 61.139,89.724 65.667,89.833 65.667 C 89.943 65.667,90.000 61.139,90.000 52.417 C 90.000 43.694,89.943 39.167,89.833 39.167 C 89.724 39.167,89.667 43.694,89.667 52.417 M310.158 40.958 L 309.583 41.583 310.208 41.009 C 310.552 40.693,310.833 40.412,310.833 40.384 C 310.833 40.257,310.692 40.377,310.158 40.958 M321.500 41.417 C 321.811 41.737,322.103 42.000,322.149 42.000 C 322.195 42.000,321.978 41.737,321.667 41.417 C 321.356 41.096,321.064 40.833,321.018 40.833 C 320.972 40.833,321.189 41.096,321.500 41.417 M250.721 42.250 C 250.722 42.892,250.752 43.134,250.788 42.788 C 250.824 42.442,250.824 41.917,250.787 41.621 C 250.750 41.325,250.721 41.608,250.721 42.250 M15.739 48.750 C 15.739 50.950,15.762 51.827,15.791 50.699 C 15.820 49.571,15.820 47.771,15.791 46.699 C 15.762 45.627,15.738 46.550,15.739 48.750 M7.739 48.917 C 7.739 51.117,7.762 51.994,7.791 50.865 C 7.820 49.737,7.820 47.937,7.791 46.865 C 7.762 45.794,7.738 46.717,7.739 48.917 M34.321 45.542 C 34.192 45.975,34.193 46.374,34.323 46.173 C 34.460 45.960,34.518 45.960,34.790 46.173 C 34.960 46.307,34.932 46.256,34.727 46.059 C 34.522 45.862,34.400 45.656,34.455 45.600 C 34.510 45.545,34.506 45.500,34.444 45.500 C 34.383 45.500,34.328 45.519,34.321 45.542 M307.394 48.583 C 307.395 49.500,307.423 49.854,307.456 49.369 C 307.490 48.885,307.490 48.135,307.456 47.703 C 307.421 47.270,307.394 47.667,307.394 48.583 M200.404 50.750 C 200.404 52.675,200.428 53.440,200.458 52.449 C 200.487 51.459,200.487 49.884,200.458 48.949 C 200.428 48.015,200.404 48.825,200.404 50.750 M52.382 50.792 C 52.323 50.952,52.194 51.138,52.095 51.206 C 51.973 51.290,51.979 51.329,52.115 51.331 C 52.328 51.334,52.554 51.047,52.606 50.708 C 52.652 50.401,52.506 50.455,52.382 50.792 M244.873 60.208 L 244.912 65.583 244.958 60.342 C 244.993 56.405,245.056 55.067,245.211 54.969 C 245.356 54.877,245.330 54.838,245.125 54.836 C 244.852 54.834,244.836 55.185,244.873 60.208 M143.542 58.458 C 145.077 58.486,147.590 58.486,149.125 58.458 C 150.660 58.431,149.404 58.408,146.333 58.408 C 143.262 58.408,142.006 58.431,143.542 58.458 M183.132 58.457 C 183.708 58.490,184.608 58.489,185.132 58.456 C 185.655 58.423,185.183 58.397,184.083 58.397 C 182.983 58.397,182.555 58.424,183.132 58.457 M314.458 58.457 C 315.031 58.489,315.969 58.489,316.542 58.457 C 317.115 58.424,316.646 58.398,315.500 58.398 C 314.354 58.398,313.885 58.424,314.458 58.457 M345.719 58.458 C 347.260 58.486,349.735 58.486,351.219 58.458 C 352.703 58.430,351.442 58.408,348.417 58.408 C 345.392 58.408,344.178 58.431,345.719 58.458 M17.566 59.751 C 17.587 59.890,17.688 60.088,17.792 60.192 C 17.933 60.333,17.957 60.290,17.887 60.021 C 17.778 59.602,17.512 59.378,17.566 59.751 M152.902 62.583 C 152.902 64.233,152.927 64.886,152.958 64.033 C 152.988 63.181,152.988 61.831,152.957 61.033 C 152.927 60.236,152.902 60.933,152.902 62.583 M298.205 64.416 C 298.187 64.637,298.229 64.852,298.299 64.896 C 298.369 64.939,298.419 64.793,298.409 64.572 C 298.385 64.026,298.246 63.920,298.205 64.416 M198.864 65.467 C 198.886 65.760,198.965 66.000,199.039 66.000 C 199.113 66.000,199.124 65.794,199.063 65.542 C 198.905 64.883,198.817 64.850,198.864 65.467 M80.932 66.564 C 81.013 66.774,81.623 66.808,84.972 66.789 L 88.917 66.767 85.083 66.675 C 82.975 66.625,81.157 66.523,81.044 66.450 C 80.903 66.359,80.867 66.395,80.932 66.564 M320.333 66.484 C 319.833 66.576,319.802 66.606,320.117 66.695 C 320.325 66.753,320.615 66.699,320.784 66.571 C 320.949 66.446,321.046 66.351,321.000 66.361 C 320.954 66.370,320.654 66.425,320.333 66.484 M102.199 66.791 C 103.179 66.820,104.829 66.820,105.866 66.791 C 106.902 66.762,106.100 66.738,104.083 66.738 C 102.067 66.738,101.219 66.762,102.199 66.791 M121.292 66.791 C 122.323 66.820,124.010 66.820,125.042 66.791 C 126.073 66.762,125.229 66.738,123.167 66.738 C 121.104 66.738,120.260 66.762,121.292 66.791 M137.637 66.792 C 140.325 66.817,144.675 66.817,147.304 66.792 C 149.932 66.766,147.733 66.745,142.417 66.745 C 137.100 66.745,134.949 66.766,137.637 66.792 M201.968 66.791 C 203.096 66.820,204.896 66.820,205.968 66.791 C 207.040 66.762,206.117 66.738,203.917 66.739 C 201.717 66.739,200.840 66.762,201.968 66.791 M228.635 66.791 C 229.763 66.820,231.563 66.820,232.635 66.791 C 233.706 66.762,232.783 66.738,230.583 66.739 C 228.383 66.739,227.506 66.762,228.635 66.791 M238.292 66.791 C 239.323 66.820,241.010 66.820,242.042 66.791 C 243.073 66.762,242.229 66.738,240.167 66.738 C 238.104 66.738,237.260 66.762,238.292 66.791 M259.137 66.792 C 261.366 66.818,264.966 66.818,267.137 66.791 C 269.307 66.765,267.483 66.744,263.083 66.744 C 258.683 66.744,256.907 66.765,259.137 66.792 M291.875 66.791 C 292.952 66.820,294.715 66.820,295.792 66.791 C 296.869 66.762,295.987 66.738,293.833 66.738 C 291.679 66.738,290.798 66.762,291.875 66.791 M339.613 66.792 C 342.196 66.817,346.471 66.817,349.113 66.792 C 351.755 66.766,349.642 66.745,344.417 66.745 C 339.192 66.745,337.030 66.766,339.613 66.792 M29.014 73.727 C 29.350 74.021,29.897 74.197,29.688 73.944 C 29.562 73.791,29.343 73.667,29.202 73.667 C 29.060 73.667,28.976 73.694,29.014 73.727 M22.500 78.865 C 22.500 78.911,22.650 79.122,22.833 79.333 C 23.017 79.545,23.167 79.643,23.167 79.551 C 23.167 79.460,23.017 79.249,22.833 79.083 C 22.650 78.917,22.500 78.819,22.500 78.865 M42.333 86.500 C 42.494 86.604,98.152 86.662,198.583 86.662 C 299.015 86.662,354.672 86.604,354.833 86.500 C 354.995 86.396,299.681 86.338,198.583 86.338 C 97.485 86.338,42.172 86.396,42.333 86.500 " stroke="none" fill="#dcbc5c" fill-rule="evenodd"></path></g></svg>