<svg id="svg" version="1.1" xmlns="http://www.w3.org/2000/svg" xmlns:xlink="http://www.w3.org/1999/xlink" width="400" height="149.38574938574936" viewBox="0, 0, 400,149.38574938574936"><g id="svgg"><path id="path0" d="M144.814 1.904 C 144.057 2.293,142.833 3.374,142.833 3.654 C 142.833 3.733,142.721 3.841,142.583 3.894 C 142.365 3.977,142.333 5.226,142.333 13.736 L 142.333 23.482 143.180 23.908 L 144.027 24.333 180.852 24.333 C 213.432 24.333,217.688 24.305,217.773 24.083 C 217.826 23.946,218.028 23.833,218.222 23.833 C 218.634 23.833,219.833 22.562,219.833 22.125 C 219.833 21.965,219.946 21.833,220.083 21.833 C 220.221 21.833,220.333 21.721,220.333 21.583 C 220.333 21.446,220.446 21.333,220.583 21.333 C 220.721 21.333,220.833 21.221,220.833 21.083 C 220.833 20.946,220.946 20.833,221.083 20.833 C 221.250 20.833,221.333 20.667,221.333 20.333 C 221.333 20.000,221.417 19.833,221.583 19.833 C 221.721 19.833,221.833 19.721,221.833 19.583 C 221.833 19.446,221.946 19.333,222.083 19.333 C 222.221 19.333,222.333 19.229,222.333 19.101 C 222.333 18.973,222.446 18.826,222.583 18.773 C 222.721 18.720,222.833 18.560,222.833 18.416 C 222.833 18.273,223.058 17.935,223.333 17.667 C 223.608 17.398,223.833 17.100,223.833 17.006 C 223.833 16.911,223.903 16.833,223.989 16.833 C 224.074 16.833,224.186 16.702,224.237 16.542 C 224.289 16.381,224.669 15.887,225.082 15.444 C 225.495 15.001,225.833 14.532,225.833 14.402 C 225.833 14.273,226.123 13.885,226.476 13.541 C 226.830 13.198,227.176 12.736,227.246 12.516 C 227.315 12.295,227.551 11.949,227.769 11.747 C 227.988 11.544,228.167 11.335,228.167 11.283 C 228.167 11.230,228.392 10.941,228.667 10.640 C 228.942 10.339,229.167 9.959,229.167 9.796 C 229.167 9.633,229.279 9.500,229.417 9.500 C 229.554 9.500,229.667 9.387,229.667 9.250 C 229.667 9.112,229.779 9.000,229.917 9.000 C 230.054 9.000,230.167 8.852,230.167 8.671 C 230.167 8.490,230.504 8.005,230.917 7.592 C 231.329 7.180,231.667 6.690,231.667 6.504 C 231.667 6.315,231.777 6.167,231.917 6.167 C 232.054 6.167,232.167 6.054,232.167 5.917 C 232.167 5.779,232.279 5.667,232.417 5.667 C 232.554 5.667,232.667 5.596,232.667 5.510 C 232.667 5.424,232.892 5.108,233.167 4.806 C 233.777 4.138,233.899 2.579,233.375 2.141 C 232.589 1.485,233.635 1.500,188.867 1.504 L 145.583 1.509 144.814 1.904 M176.000 125.370 C 175.390 125.751,174.669 126.434,174.664 126.634 C 174.663 126.698,174.364 127.087,174.000 127.500 C 173.636 127.912,173.337 128.341,173.336 128.453 C 173.335 128.564,173.108 128.885,172.833 129.167 C 172.558 129.448,172.333 129.721,172.333 129.773 C 172.333 129.826,172.108 130.153,171.833 130.500 C 171.558 130.847,171.333 131.214,171.333 131.316 C 171.333 131.417,171.221 131.500,171.083 131.500 C 170.946 131.500,170.833 131.612,170.833 131.750 C 170.833 131.887,170.756 132.000,170.663 132.000 C 170.569 132.000,170.420 132.188,170.333 132.417 C 170.246 132.646,170.098 132.833,170.004 132.833 C 169.910 132.833,169.833 132.948,169.833 133.089 C 169.833 133.229,169.721 133.387,169.583 133.440 C 169.446 133.492,169.333 133.632,169.333 133.750 C 169.333 133.868,169.221 134.008,169.083 134.060 C 168.946 134.113,168.830 134.290,168.826 134.453 C 168.822 134.616,168.597 134.934,168.326 135.159 C 168.055 135.384,167.833 135.631,167.833 135.708 C 167.833 135.849,167.652 136.098,167.125 136.679 C 166.965 136.855,166.833 137.033,166.833 137.073 C 166.833 137.113,166.608 137.392,166.333 137.694 C 166.058 137.995,165.833 138.318,165.832 138.412 C 165.831 138.506,165.418 139.032,164.914 139.581 C 164.410 140.130,163.952 140.723,163.896 140.899 C 163.840 141.075,163.616 141.384,163.397 141.587 C 163.179 141.789,163.000 142.026,163.000 142.113 C 163.000 142.200,162.775 142.487,162.500 142.750 C 162.225 143.013,162.000 143.330,162.000 143.453 C 162.000 143.576,161.887 143.720,161.750 143.773 C 161.612 143.826,161.500 143.965,161.500 144.083 C 161.500 144.201,161.387 144.341,161.250 144.394 C 161.112 144.446,161.000 144.596,161.000 144.727 C 161.000 144.858,160.887 145.008,160.750 145.060 C 160.612 145.113,160.500 145.294,160.500 145.461 C 160.500 145.629,160.418 145.848,160.319 145.948 C 160.188 146.078,160.188 146.160,160.319 146.241 C 160.418 146.303,160.500 146.482,160.500 146.639 C 160.500 146.797,160.669 147.074,160.875 147.255 C 161.246 147.580,161.745 147.584,208.500 147.632 L 255.750 147.681 256.458 147.302 L 257.167 146.924 257.167 136.291 L 257.167 125.658 256.766 125.506 C 256.546 125.422,256.317 125.274,256.256 125.177 C 256.180 125.053,244.250 125.001,216.365 125.003 L 176.583 125.006 176.000 125.370 " stroke="none" fill="#fcfcfc" fill-rule="evenodd"></path><path id="path1" d="M236.792 1.762 C 236.417 2.008,236.167 2.304,236.167 2.502 C 236.167 2.685,236.055 2.833,235.917 2.833 C 235.779 2.833,235.667 2.946,235.667 3.083 C 235.667 3.221,235.590 3.333,235.496 3.333 C 235.402 3.333,235.254 3.521,235.167 3.750 C 235.080 3.979,234.931 4.167,234.837 4.167 C 234.744 4.167,234.667 4.236,234.667 4.320 C 234.667 4.404,234.371 4.780,234.010 5.156 C 233.649 5.532,233.306 5.992,233.246 6.178 C 233.187 6.364,232.939 6.731,232.694 6.992 C 232.087 7.640,231.667 8.206,231.667 8.375 C 231.667 8.453,231.479 8.690,231.250 8.902 C 231.021 9.114,230.833 9.373,230.833 9.477 C 230.833 9.582,230.757 9.667,230.663 9.667 C 230.569 9.667,230.403 9.873,230.292 10.125 C 230.182 10.377,229.828 10.853,229.504 11.182 C 228.917 11.780,228.599 12.200,228.384 12.662 C 228.321 12.797,228.059 13.113,227.801 13.365 C 227.544 13.616,227.333 13.900,227.333 13.994 C 227.333 14.089,227.263 14.167,227.178 14.167 C 227.092 14.167,226.970 14.332,226.906 14.535 C 226.842 14.737,226.574 15.091,226.311 15.322 C 226.048 15.552,225.833 15.877,225.833 16.042 C 225.833 16.208,225.721 16.387,225.583 16.440 C 225.446 16.492,225.333 16.640,225.333 16.768 C 225.333 16.896,225.221 17.000,225.083 17.000 C 224.946 17.000,224.833 17.072,224.833 17.161 C 224.833 17.249,224.608 17.552,224.333 17.833 C 224.058 18.115,223.833 18.492,223.833 18.672 C 223.833 18.853,223.721 19.000,223.583 19.000 C 223.446 19.000,223.333 19.112,223.333 19.250 C 223.333 19.387,223.221 19.500,223.083 19.500 C 222.946 19.500,222.833 19.597,222.833 19.715 C 222.833 19.833,222.611 20.189,222.340 20.506 C 222.069 20.824,221.844 21.142,221.840 21.215 C 221.836 21.287,221.533 21.658,221.167 22.040 C 220.800 22.422,220.500 22.869,220.500 23.034 C 220.500 23.198,220.387 23.333,220.250 23.333 C 220.112 23.333,220.000 23.411,220.000 23.506 C 220.000 23.600,219.775 23.898,219.500 24.167 C 219.225 24.435,219.000 24.808,219.000 24.994 C 219.000 25.185,218.890 25.333,218.750 25.333 C 218.612 25.333,218.500 25.446,218.500 25.583 C 218.500 25.721,218.387 25.833,218.250 25.833 C 218.112 25.833,218.000 25.915,218.000 26.015 C 218.000 26.115,217.662 26.582,217.250 27.054 C 216.838 27.525,216.500 28.006,216.500 28.122 C 216.500 28.238,216.429 28.333,216.342 28.333 C 216.187 28.333,215.776 28.975,215.568 29.542 C 215.509 29.702,215.357 29.833,215.231 29.833 C 215.104 29.833,215.000 29.906,215.000 29.994 C 215.000 30.083,214.775 30.385,214.500 30.667 C 214.225 30.948,214.000 31.288,214.000 31.422 C 214.000 31.557,213.939 31.667,213.865 31.667 C 213.791 31.667,213.385 32.135,212.962 32.708 C 212.142 33.818,211.708 34.352,210.760 35.417 C 210.434 35.783,210.167 36.215,210.167 36.375 C 210.167 36.535,210.054 36.667,209.917 36.667 C 209.779 36.667,209.667 36.779,209.667 36.917 C 209.667 37.054,209.554 37.167,209.417 37.167 C 209.250 37.167,209.167 37.333,209.167 37.667 C 209.167 37.942,209.092 38.167,209.000 38.167 C 208.784 38.167,208.167 38.784,208.167 39.000 C 208.167 39.092,208.054 39.167,207.917 39.167 C 207.779 39.167,207.667 39.301,207.667 39.466 C 207.667 39.631,207.445 39.950,207.174 40.174 C 206.903 40.399,206.678 40.679,206.674 40.797 C 206.670 40.914,206.554 41.054,206.417 41.106 C 206.279 41.159,206.167 41.299,206.167 41.417 C 206.167 41.535,206.054 41.674,205.917 41.727 C 205.779 41.780,205.667 41.919,205.667 42.037 C 205.667 42.154,205.258 42.686,204.758 43.219 C 204.258 43.752,203.802 44.337,203.744 44.519 C 203.686 44.701,203.420 45.074,203.153 45.348 C 202.885 45.621,202.667 45.938,202.667 46.052 C 202.667 46.166,202.535 46.376,202.375 46.519 C 202.021 46.834,201.333 47.641,201.333 47.741 C 201.333 47.780,201.108 48.059,200.833 48.360 C 200.558 48.661,200.333 49.006,200.333 49.126 C 200.333 49.246,200.221 49.387,200.083 49.440 C 199.946 49.492,199.833 49.632,199.833 49.750 C 199.833 49.868,199.721 50.008,199.583 50.060 C 199.446 50.113,199.333 50.309,199.333 50.495 C 199.333 50.685,199.224 50.833,199.083 50.833 C 198.946 50.833,198.830 50.927,198.826 51.042 C 198.822 51.156,198.597 51.434,198.326 51.659 C 198.055 51.884,197.833 52.165,197.833 52.284 C 197.833 52.403,197.763 52.500,197.678 52.500 C 197.592 52.500,197.475 52.649,197.418 52.830 C 197.360 53.012,196.980 53.518,196.573 53.955 C 196.166 54.392,195.833 54.837,195.833 54.944 C 195.833 55.052,195.533 55.452,195.166 55.834 C 194.800 56.215,194.454 56.709,194.398 56.931 C 194.343 57.152,194.193 57.333,194.065 57.333 C 193.938 57.333,193.833 57.412,193.833 57.508 C 193.833 57.604,193.665 57.848,193.458 58.050 C 193.252 58.251,192.825 58.792,192.510 59.250 C 192.194 59.708,191.726 60.304,191.468 60.573 C 191.211 60.843,190.997 61.180,190.993 61.323 C 190.989 61.466,190.764 61.767,190.493 61.992 C 190.209 62.228,190.000 62.563,190.000 62.784 C 190.000 63.013,189.900 63.167,189.750 63.167 C 189.612 63.167,189.500 63.279,189.500 63.417 C 189.500 63.554,189.387 63.667,189.250 63.667 C 189.112 63.667,189.000 63.779,189.000 63.917 C 189.000 64.054,188.887 64.167,188.750 64.167 C 188.612 64.167,188.500 64.303,188.500 64.469 C 188.500 64.635,188.275 64.987,188.000 65.250 C 187.725 65.513,187.497 65.809,187.493 65.906 C 187.489 66.004,187.264 66.267,186.993 66.492 C 186.722 66.717,186.500 66.969,186.500 67.052 C 186.500 67.194,185.665 68.329,185.211 68.804 C 185.095 68.925,185.000 69.091,185.000 69.173 C 185.000 69.255,184.744 69.578,184.431 69.891 C 184.119 70.203,183.742 70.693,183.594 70.980 C 183.446 71.266,183.268 71.500,183.198 71.500 C 183.129 71.500,182.949 71.706,182.799 71.958 C 182.649 72.210,182.351 72.601,182.138 72.827 C 181.710 73.280,181.395 73.762,181.233 74.208 C 181.175 74.369,181.024 74.500,180.897 74.500 C 180.770 74.500,180.667 74.604,180.667 74.732 C 180.667 74.860,180.554 75.008,180.417 75.060 C 180.279 75.113,180.167 75.293,180.167 75.461 C 180.167 75.629,179.945 75.950,179.674 76.174 C 179.403 76.399,179.178 76.677,179.174 76.792 C 179.170 76.906,179.054 77.000,178.917 77.000 C 178.779 77.000,178.667 77.112,178.667 77.250 C 178.667 77.387,178.597 77.500,178.511 77.500 C 178.426 77.500,178.306 77.657,178.245 77.850 C 178.184 78.042,178.010 78.328,177.859 78.484 C 177.370 78.989,176.667 79.894,176.667 80.018 C 176.667 80.084,176.367 80.460,176.001 80.853 C 175.634 81.246,175.289 81.709,175.234 81.883 C 175.179 82.057,174.852 82.473,174.508 82.808 C 174.163 83.143,173.833 83.570,173.773 83.758 C 173.714 83.946,173.366 84.421,172.999 84.814 C 172.633 85.206,172.333 85.589,172.333 85.663 C 172.333 85.737,172.221 85.841,172.083 85.894 C 171.946 85.946,171.833 86.127,171.833 86.294 C 171.833 86.462,171.612 86.783,171.340 87.008 C 171.069 87.233,170.844 87.540,170.840 87.691 C 170.837 87.841,170.721 88.008,170.583 88.060 C 170.446 88.113,170.333 88.271,170.333 88.411 C 170.333 88.552,170.221 88.667,170.083 88.667 C 169.946 88.667,169.833 88.771,169.833 88.899 C 169.833 89.027,169.721 89.174,169.583 89.227 C 169.446 89.280,169.333 89.404,169.333 89.504 C 169.333 89.603,169.109 89.924,168.834 90.217 C 168.560 90.510,168.335 90.844,168.334 90.958 C 168.334 91.073,168.274 91.167,168.202 91.167 C 168.074 91.167,166.833 92.744,166.833 92.907 C 166.833 92.952,166.608 93.219,166.333 93.500 C 166.058 93.781,165.833 94.159,165.833 94.339 C 165.833 94.519,165.758 94.667,165.667 94.667 C 165.493 94.667,164.833 95.266,164.833 95.424 C 164.833 95.473,164.757 95.605,164.663 95.715 C 164.569 95.826,164.109 96.404,163.641 97.000 C 163.173 97.596,162.743 98.121,162.686 98.167 C 162.563 98.266,162.210 98.819,162.050 99.162 C 161.987 99.297,161.725 99.613,161.468 99.865 C 161.211 100.116,161.000 100.475,161.000 100.661 C 161.000 100.851,160.890 101.000,160.750 101.000 C 160.612 101.000,160.500 101.112,160.500 101.250 C 160.500 101.388,160.387 101.500,160.250 101.500 C 160.112 101.500,160.000 101.604,160.000 101.732 C 160.000 101.860,159.887 102.008,159.750 102.060 C 159.612 102.113,159.500 102.257,159.500 102.380 C 159.500 102.503,159.275 102.820,159.000 103.083 C 158.725 103.347,158.500 103.627,158.500 103.706 C 158.500 103.785,158.330 104.014,158.122 104.216 C 157.915 104.418,157.541 104.883,157.292 105.250 C 157.043 105.617,156.651 106.135,156.420 106.401 C 156.189 106.667,156.000 106.943,156.000 107.014 C 156.000 107.085,155.750 107.408,155.445 107.731 C 155.140 108.055,154.675 108.660,154.412 109.076 C 154.149 109.493,153.873 109.833,153.800 109.833 C 153.727 109.833,153.667 109.904,153.667 109.990 C 153.667 110.076,153.442 110.392,153.167 110.694 C 152.892 110.995,152.667 111.374,152.667 111.537 C 152.667 111.700,152.554 111.833,152.417 111.833 C 152.279 111.833,152.167 111.946,152.167 112.083 C 152.167 112.221,152.063 112.333,151.936 112.333 C 151.809 112.333,151.658 112.465,151.600 112.625 C 151.413 113.143,151.066 113.650,150.611 114.072 C 150.367 114.299,150.167 114.555,150.167 114.641 C 150.167 114.727,150.054 114.841,149.917 114.894 C 149.779 114.946,149.663 115.123,149.660 115.286 C 149.656 115.450,149.431 115.767,149.160 115.992 C 148.888 116.217,148.667 116.464,148.667 116.541 C 148.667 116.683,148.485 116.931,147.958 117.512 C 147.798 117.689,147.667 117.866,147.667 117.906 C 147.667 117.947,147.442 118.226,147.167 118.527 C 146.892 118.828,146.667 119.166,146.667 119.277 C 146.667 119.389,146.329 119.823,145.917 120.241 C 145.504 120.660,145.167 121.116,145.167 121.256 C 145.167 121.396,145.054 121.554,144.917 121.606 C 144.779 121.659,144.667 121.779,144.667 121.874 C 144.667 121.968,144.479 122.219,144.250 122.431 C 144.021 122.644,143.833 122.854,143.833 122.898 C 143.833 122.943,143.608 123.226,143.333 123.527 C 143.058 123.828,142.833 124.162,142.833 124.269 C 142.833 124.377,142.721 124.508,142.583 124.560 C 142.446 124.613,142.333 124.763,142.333 124.894 C 142.333 125.024,142.221 125.174,142.083 125.227 C 141.946 125.280,141.833 125.475,141.833 125.661 C 141.833 125.851,141.724 126.000,141.583 126.000 C 141.446 126.000,141.333 126.109,141.333 126.242 C 141.333 126.375,141.220 126.547,141.082 126.624 C 140.862 126.747,140.836 128.022,140.874 137.001 L 140.917 147.237 141.417 147.480 C 141.692 147.613,142.116 147.822,142.359 147.944 C 142.831 148.181,155.210 148.283,156.330 148.059 C 157.007 147.924,159.500 145.486,159.500 144.960 C 159.500 144.882,159.677 144.652,159.894 144.450 C 160.110 144.249,160.342 143.907,160.410 143.692 C 160.477 143.477,160.825 143.017,161.183 142.670 C 161.613 142.253,161.833 141.891,161.833 141.603 C 161.833 141.326,161.925 141.167,162.083 141.167 C 162.221 141.167,162.333 141.054,162.333 140.917 C 162.333 140.779,162.446 140.667,162.583 140.667 C 162.721 140.667,162.833 140.554,162.833 140.417 C 162.833 140.279,162.946 140.167,163.083 140.167 C 163.221 140.167,163.333 140.054,163.333 139.917 C 163.333 139.779,163.437 139.667,163.564 139.667 C 163.691 139.667,163.839 139.535,163.892 139.375 C 164.032 138.959,164.348 138.509,164.875 137.975 C 165.127 137.720,165.333 137.359,165.333 137.172 C 165.333 136.982,165.443 136.833,165.583 136.833 C 165.721 136.833,165.833 136.721,165.833 136.583 C 165.833 136.446,165.946 136.333,166.083 136.333 C 166.221 136.333,166.333 136.229,166.333 136.101 C 166.333 135.973,166.446 135.826,166.583 135.773 C 166.721 135.720,166.833 135.487,166.833 135.255 C 166.833 135.023,166.908 134.833,167.000 134.833 C 167.183 134.833,167.833 134.230,167.833 134.061 C 167.833 134.003,168.021 133.781,168.250 133.569 C 168.479 133.356,168.667 133.116,168.667 133.034 C 168.667 132.952,168.817 132.749,169.000 132.583 C 169.183 132.417,169.333 132.208,169.333 132.118 C 169.333 132.028,169.512 131.789,169.731 131.587 C 169.949 131.384,170.174 131.072,170.231 130.893 C 170.288 130.714,170.634 130.246,171.001 129.853 C 171.367 129.460,171.667 128.995,171.667 128.819 C 171.667 128.644,171.779 128.500,171.917 128.500 C 172.054 128.500,172.167 128.403,172.167 128.284 C 172.167 128.165,172.388 127.884,172.660 127.659 C 172.931 127.434,173.156 127.164,173.160 127.059 C 173.163 126.955,173.279 126.826,173.417 126.773 C 173.554 126.720,173.667 126.525,173.667 126.339 C 173.667 126.149,173.776 126.000,173.917 126.000 C 174.054 126.000,174.167 125.930,174.167 125.844 C 174.167 125.758,174.392 125.441,174.667 125.140 C 174.942 124.839,175.167 124.459,175.167 124.296 C 175.167 124.133,175.279 124.000,175.417 124.000 C 175.554 124.000,175.667 123.888,175.667 123.750 C 175.667 123.612,175.779 123.500,175.917 123.500 C 176.054 123.500,176.167 123.396,176.167 123.268 C 176.167 123.140,176.279 122.992,176.417 122.940 C 176.554 122.887,176.667 122.654,176.667 122.422 C 176.667 122.158,176.760 122.000,176.917 122.000 C 177.054 122.000,177.167 121.888,177.167 121.750 C 177.167 121.612,177.279 121.500,177.417 121.500 C 177.554 121.500,177.667 121.419,177.667 121.321 C 177.667 121.222,177.899 120.909,178.183 120.625 C 178.467 120.341,178.890 119.803,179.124 119.429 C 179.357 119.056,179.650 118.690,179.774 118.617 C 179.898 118.543,180.000 118.377,180.000 118.247 C 180.000 118.118,180.225 117.781,180.500 117.500 C 180.782 117.211,181.000 116.809,181.000 116.578 C 181.000 116.323,181.095 116.167,181.250 116.167 C 181.387 116.167,181.500 116.072,181.500 115.956 C 181.500 115.840,181.669 115.672,181.875 115.581 C 182.081 115.491,182.324 115.248,182.415 115.042 C 182.505 114.835,182.674 114.667,182.790 114.667 C 182.905 114.667,183.003 114.573,183.007 114.458 C 183.011 114.344,183.236 114.066,183.507 113.841 C 183.791 113.605,184.000 113.270,184.000 113.049 C 184.000 112.820,184.100 112.667,184.250 112.667 C 184.387 112.667,184.500 112.554,184.500 112.417 C 184.500 112.279,184.612 112.167,184.750 112.167 C 184.887 112.167,185.000 112.062,185.000 111.934 C 185.000 111.807,185.112 111.659,185.250 111.606 C 185.387 111.554,185.500 111.373,185.500 111.206 C 185.500 111.038,185.722 110.717,185.993 110.492 C 186.264 110.267,186.489 109.956,186.493 109.800 C 186.497 109.644,186.856 109.147,187.292 108.696 C 188.382 107.568,188.794 107.052,188.917 106.664 C 188.975 106.482,189.092 106.333,189.178 106.333 C 189.263 106.333,189.333 106.221,189.333 106.083 C 189.333 105.946,189.438 105.833,189.565 105.833 C 189.693 105.833,189.840 105.665,189.893 105.458 C 189.946 105.252,190.179 104.880,190.411 104.632 C 190.643 104.384,190.833 104.103,190.833 104.007 C 190.833 103.912,190.946 103.833,191.083 103.833 C 191.250 103.833,191.333 103.667,191.333 103.333 C 191.333 103.058,191.407 102.833,191.498 102.833 C 191.752 102.833,192.333 102.285,192.333 102.046 C 192.333 101.929,192.446 101.833,192.583 101.833 C 192.721 101.833,192.833 101.763,192.833 101.677 C 192.833 101.591,193.058 101.274,193.333 100.973 C 193.608 100.672,193.837 100.349,193.840 100.255 C 193.844 100.160,194.069 99.899,194.340 99.674 C 194.625 99.439,194.833 99.104,194.833 98.883 C 194.833 98.654,194.934 98.500,195.083 98.500 C 195.221 98.500,195.333 98.388,195.333 98.250 C 195.333 98.112,195.404 98.000,195.491 98.000 C 195.646 98.000,196.057 97.359,196.265 96.792 C 196.324 96.631,196.476 96.500,196.603 96.500 C 196.730 96.500,196.833 96.388,196.833 96.250 C 196.833 96.112,196.946 96.000,197.083 96.000 C 197.221 96.000,197.333 95.888,197.333 95.750 C 197.333 95.612,197.408 95.500,197.500 95.500 C 197.592 95.500,197.667 95.388,197.667 95.250 C 197.667 95.112,197.731 95.000,197.811 95.000 C 197.890 95.000,198.170 94.681,198.433 94.292 C 198.696 93.902,199.081 93.418,199.289 93.216 C 199.497 93.014,199.667 92.746,199.667 92.619 C 199.667 92.492,199.890 92.170,200.162 91.903 C 200.434 91.635,200.659 91.248,200.662 91.042 C 200.665 90.822,200.770 90.667,200.917 90.667 C 201.054 90.667,201.167 90.554,201.167 90.417 C 201.167 90.279,201.279 90.167,201.417 90.167 C 201.554 90.167,201.667 90.054,201.667 89.917 C 201.667 89.779,201.779 89.667,201.917 89.667 C 202.054 89.667,202.169 89.573,202.171 89.458 C 202.174 89.344,202.399 89.031,202.671 88.764 C 202.944 88.497,203.167 88.140,203.167 87.972 C 203.167 87.804,203.279 87.667,203.417 87.667 C 203.554 87.667,203.667 87.594,203.667 87.506 C 203.667 87.417,203.892 87.115,204.167 86.833 C 204.442 86.552,204.667 86.174,204.667 85.994 C 204.667 85.814,204.779 85.667,204.917 85.667 C 205.054 85.667,205.167 85.562,205.167 85.434 C 205.167 85.307,205.279 85.159,205.417 85.106 C 205.554 85.054,205.667 84.821,205.667 84.589 C 205.667 84.357,205.741 84.167,205.831 84.167 C 206.085 84.167,206.667 83.619,206.667 83.380 C 206.667 83.262,206.779 83.167,206.917 83.167 C 207.054 83.167,207.167 83.054,207.167 82.917 C 207.167 82.779,207.227 82.667,207.300 82.667 C 207.373 82.667,207.644 82.334,207.901 81.927 C 208.158 81.521,208.623 80.902,208.934 80.552 C 209.245 80.203,209.500 79.785,209.500 79.625 C 209.500 79.465,209.612 79.333,209.750 79.333 C 209.887 79.333,210.000 79.221,210.000 79.083 C 210.000 78.946,210.112 78.833,210.250 78.833 C 210.417 78.833,210.500 78.667,210.500 78.333 C 210.500 78.000,210.583 77.833,210.750 77.833 C 210.887 77.833,211.000 77.721,211.000 77.583 C 211.000 77.446,211.112 77.333,211.250 77.333 C 211.387 77.333,211.500 77.221,211.500 77.083 C 211.500 76.946,211.612 76.833,211.750 76.833 C 211.887 76.833,212.000 76.762,212.000 76.675 C 212.000 76.588,212.189 76.313,212.421 76.063 C 212.652 75.814,212.885 75.435,212.939 75.221 C 212.992 75.008,213.141 74.833,213.268 74.833 C 213.396 74.833,213.500 74.721,213.500 74.583 C 213.500 74.446,213.612 74.333,213.750 74.333 C 213.901 74.333,214.000 74.179,214.000 73.942 C 214.000 73.703,214.195 73.400,214.500 73.167 C 214.775 72.956,215.000 72.682,215.000 72.558 C 215.000 72.435,215.070 72.333,215.155 72.333 C 215.241 72.333,215.361 72.176,215.422 71.984 C 215.483 71.792,215.825 71.351,216.183 71.003 C 216.541 70.656,216.833 70.292,216.833 70.194 C 216.833 70.097,216.931 69.957,217.051 69.883 C 217.170 69.810,217.439 69.469,217.648 69.125 C 217.856 68.781,218.096 68.500,218.180 68.500 C 218.264 68.500,218.333 68.387,218.333 68.250 C 218.333 68.112,218.446 68.000,218.583 68.000 C 218.721 68.000,218.833 67.855,218.833 67.679 C 218.833 67.502,218.946 67.245,219.083 67.107 C 219.221 66.970,219.333 66.777,219.333 66.679 C 219.333 66.580,219.446 66.500,219.583 66.500 C 219.750 66.500,219.833 66.333,219.833 66.000 C 219.833 65.725,219.915 65.500,220.014 65.500 C 220.184 65.500,221.333 64.413,221.333 64.253 C 221.333 64.212,221.558 63.948,221.833 63.667 C 222.108 63.385,222.333 63.091,222.333 63.012 C 222.333 62.933,222.671 62.511,223.083 62.074 C 223.496 61.638,223.833 61.142,223.833 60.973 C 223.833 60.805,223.946 60.667,224.083 60.667 C 224.221 60.667,224.333 60.562,224.333 60.434 C 224.333 60.307,224.446 60.159,224.583 60.106 C 224.721 60.054,224.833 59.821,224.833 59.589 C 224.833 59.325,224.927 59.167,225.083 59.167 C 225.221 59.167,225.333 59.054,225.333 58.917 C 225.333 58.779,225.446 58.667,225.583 58.667 C 225.721 58.667,225.833 58.592,225.833 58.500 C 225.833 58.408,225.965 58.194,226.125 58.025 C 226.803 57.307,227.333 56.621,227.333 56.460 C 227.333 56.366,227.521 56.114,227.750 55.902 C 227.979 55.690,228.167 55.445,228.167 55.359 C 228.167 55.273,228.279 55.159,228.417 55.106 C 228.554 55.054,228.670 54.877,228.674 54.714 C 228.678 54.550,228.903 54.233,229.174 54.008 C 229.458 53.772,229.667 53.437,229.667 53.216 C 229.667 52.987,229.767 52.833,229.917 52.833 C 230.054 52.833,230.167 52.721,230.167 52.583 C 230.167 52.446,230.279 52.333,230.417 52.333 C 230.554 52.333,230.667 52.221,230.667 52.083 C 230.667 51.946,230.770 51.833,230.897 51.833 C 231.024 51.833,231.176 51.702,231.235 51.542 C 231.443 50.975,231.854 50.333,232.009 50.333 C 232.096 50.333,232.170 50.240,232.174 50.125 C 232.178 50.010,232.403 49.733,232.674 49.508 C 232.958 49.272,233.167 48.937,233.167 48.716 C 233.167 48.487,233.267 48.333,233.417 48.333 C 233.554 48.333,233.667 48.221,233.667 48.083 C 233.667 47.946,233.779 47.833,233.917 47.833 C 234.054 47.833,234.167 47.729,234.167 47.601 C 234.167 47.473,234.279 47.326,234.417 47.273 C 234.554 47.220,234.667 47.060,234.667 46.916 C 234.667 46.773,234.892 46.435,235.167 46.167 C 235.442 45.898,235.667 45.600,235.667 45.506 C 235.667 45.411,235.729 45.333,235.806 45.333 C 235.882 45.333,236.226 44.924,236.571 44.424 C 236.915 43.925,237.367 43.343,237.576 43.133 C 237.784 42.922,238.008 42.581,238.072 42.375 C 238.136 42.169,238.259 42.000,238.345 42.000 C 238.430 42.000,238.500 41.887,238.500 41.750 C 238.500 41.612,238.612 41.500,238.750 41.500 C 238.887 41.500,239.000 41.358,239.000 41.184 C 239.000 41.011,239.112 40.826,239.250 40.773 C 239.387 40.720,239.500 40.525,239.500 40.339 C 239.500 40.149,239.610 40.000,239.750 40.000 C 239.887 40.000,240.000 39.887,240.000 39.750 C 240.000 39.612,240.112 39.500,240.250 39.500 C 240.387 39.500,240.500 39.429,240.500 39.342 C 240.500 39.255,240.689 38.980,240.921 38.730 C 241.152 38.480,241.385 38.101,241.439 37.888 C 241.492 37.675,241.641 37.500,241.768 37.500 C 241.896 37.500,242.000 37.387,242.000 37.250 C 242.000 37.112,242.112 37.000,242.250 37.000 C 242.387 37.000,242.500 36.896,242.500 36.768 C 242.500 36.640,242.612 36.492,242.750 36.440 C 242.887 36.387,243.003 36.210,243.007 36.047 C 243.011 35.884,243.236 35.566,243.507 35.341 C 243.778 35.116,244.000 34.796,244.000 34.630 C 244.000 34.464,244.338 34.004,244.750 33.609 C 245.162 33.214,245.500 32.834,245.500 32.766 C 245.500 32.697,245.718 32.423,245.985 32.156 C 246.252 31.889,246.570 31.445,246.692 31.169 C 246.815 30.893,247.009 30.667,247.124 30.667 C 247.239 30.667,247.333 30.562,247.333 30.434 C 247.333 30.307,247.446 30.159,247.583 30.106 C 247.721 30.054,247.833 29.821,247.833 29.589 C 247.833 29.325,247.927 29.167,248.083 29.167 C 248.221 29.167,248.333 29.054,248.333 28.917 C 248.333 28.779,248.446 28.667,248.583 28.667 C 248.721 28.667,248.833 28.519,248.833 28.338 C 248.833 28.157,249.171 27.671,249.583 27.259 C 249.996 26.846,250.333 26.466,250.333 26.414 C 250.333 26.314,250.556 26.023,251.042 25.488 C 251.202 25.311,251.337 25.110,251.340 25.042 C 251.344 24.973,251.569 24.733,251.840 24.508 C 252.112 24.283,252.333 24.034,252.333 23.954 C 252.333 23.875,252.446 23.697,252.583 23.560 C 252.721 23.422,252.833 23.098,252.833 22.839 C 252.833 22.575,252.943 22.327,253.083 22.273 C 253.449 22.133,253.464 2.373,253.098 2.233 C 252.969 2.183,252.818 1.960,252.762 1.738 L 252.660 1.333 245.038 1.343 L 237.417 1.353 236.792 1.762 M108.939 13.251 C 108.677 13.388,108.367 13.500,108.251 13.500 C 108.136 13.500,107.947 13.612,107.833 13.750 C 107.719 13.887,107.494 14.000,107.333 14.000 C 107.172 14.000,106.954 14.105,106.848 14.233 C 106.742 14.360,106.403 14.512,106.094 14.570 C 105.400 14.700,104.500 15.138,104.500 15.346 C 104.500 15.430,104.310 15.500,104.078 15.500 C 103.846 15.500,103.613 15.612,103.560 15.750 C 103.507 15.889,103.259 16.000,103.003 16.000 C 102.749 16.000,102.447 16.112,102.333 16.250 C 102.219 16.387,102.020 16.500,101.891 16.500 C 101.762 16.500,101.613 16.612,101.560 16.750 C 101.506 16.890,101.258 17.000,100.994 17.000 C 100.735 17.000,100.411 17.112,100.274 17.250 C 100.136 17.387,99.836 17.500,99.607 17.500 C 99.378 17.500,99.078 17.612,98.940 17.750 C 98.803 17.887,98.573 18.000,98.429 18.000 C 98.285 18.000,98.167 18.112,98.167 18.250 C 98.167 18.406,98.009 18.500,97.745 18.500 C 97.513 18.500,97.280 18.612,97.227 18.750 C 97.174 18.887,96.933 19.002,96.691 19.005 C 96.448 19.008,96.104 19.121,95.926 19.255 C 95.749 19.390,95.434 19.500,95.226 19.500 C 95.019 19.500,94.790 19.594,94.717 19.709 C 94.643 19.823,94.396 20.001,94.167 20.103 C 93.938 20.205,93.404 20.448,92.982 20.644 C 92.559 20.840,92.128 21.000,92.023 21.000 C 91.919 21.000,91.833 21.069,91.833 21.153 C 91.833 21.238,91.592 21.360,91.297 21.425 C 91.002 21.489,90.646 21.599,90.505 21.668 C 90.365 21.737,89.895 21.957,89.462 22.157 C 89.029 22.356,88.631 22.590,88.577 22.676 C 88.524 22.763,88.344 22.833,88.177 22.833 C 88.011 22.833,87.787 22.938,87.681 23.066 C 87.575 23.194,87.237 23.346,86.929 23.403 C 86.239 23.533,84.333 24.470,84.333 24.680 C 84.333 24.764,84.160 24.833,83.949 24.833 C 83.737 24.833,83.418 24.943,83.240 25.078 C 83.062 25.213,82.783 25.325,82.620 25.328 C 82.456 25.331,82.280 25.446,82.227 25.583 C 82.174 25.721,81.957 25.833,81.744 25.833 C 81.531 25.833,81.245 25.946,81.107 26.083 C 80.970 26.221,80.673 26.333,80.449 26.333 C 80.224 26.333,79.947 26.446,79.833 26.583 C 79.719 26.721,79.485 26.833,79.313 26.833 C 79.141 26.833,79.000 26.946,79.000 27.083 C 79.000 27.240,78.842 27.333,78.578 27.333 C 78.346 27.333,78.113 27.446,78.060 27.583 C 78.007 27.722,77.759 27.833,77.503 27.833 C 77.249 27.833,76.947 27.946,76.833 28.083 C 76.719 28.221,76.414 28.333,76.155 28.333 C 75.895 28.333,75.623 28.428,75.550 28.543 C 75.374 28.821,73.254 29.833,72.850 29.833 C 72.749 29.833,72.667 29.902,72.667 29.987 C 72.667 30.071,72.429 30.192,72.139 30.256 C 71.849 30.320,71.276 30.551,70.864 30.769 C 70.453 30.988,70.043 31.167,69.952 31.167 C 69.861 31.167,69.421 31.392,68.974 31.667 C 68.527 31.942,68.059 32.167,67.935 32.167 C 67.810 32.167,67.614 32.279,67.500 32.417 C 67.386 32.554,67.161 32.667,67.001 32.667 C 66.586 32.667,65.167 33.318,65.167 33.508 C 65.167 33.595,64.998 33.669,64.792 33.672 C 64.585 33.675,64.271 33.787,64.093 33.922 C 63.915 34.057,63.642 34.167,63.486 34.167 C 63.330 34.167,63.159 34.279,63.106 34.417 C 63.054 34.554,62.867 34.667,62.692 34.667 C 62.517 34.667,62.281 34.779,62.167 34.917 C 62.053 35.054,61.715 35.167,61.417 35.167 C 61.118 35.167,60.781 35.279,60.667 35.417 C 60.553 35.554,60.354 35.667,60.224 35.667 C 60.095 35.667,59.946 35.779,59.894 35.917 C 59.841 36.054,59.616 36.167,59.394 36.167 C 59.171 36.167,58.946 36.279,58.894 36.417 C 58.840 36.556,58.593 36.667,58.336 36.667 C 58.082 36.667,57.781 36.779,57.667 36.917 C 57.553 37.054,57.328 37.167,57.167 37.167 C 57.006 37.167,56.781 37.279,56.667 37.417 C 56.553 37.554,56.290 37.667,56.083 37.667 C 55.877 37.667,55.614 37.779,55.500 37.917 C 55.386 38.054,55.145 38.167,54.964 38.167 C 54.664 38.167,53.701 38.614,53.500 38.846 C 53.339 39.033,52.331 39.474,51.800 39.591 C 51.505 39.655,50.848 39.935,50.340 40.211 C 48.455 41.238,48.061 41.424,47.107 41.742 C 46.570 41.920,46.093 42.164,46.048 42.283 C 46.002 42.402,45.794 42.500,45.586 42.500 C 45.378 42.500,45.114 42.612,45.000 42.750 C 44.886 42.887,44.661 43.000,44.500 43.000 C 44.339 43.000,44.114 43.112,44.000 43.250 C 43.886 43.387,43.649 43.500,43.474 43.500 C 43.299 43.500,43.113 43.613,43.060 43.750 C 43.005 43.895,42.755 44.000,42.466 44.000 C 42.028 44.000,41.553 44.182,40.667 44.691 C 40.529 44.770,40.248 44.907,40.042 44.996 C 39.835 45.085,39.667 45.235,39.667 45.329 C 39.667 45.423,39.451 45.500,39.187 45.500 C 38.923 45.500,38.614 45.612,38.500 45.750 C 38.386 45.887,38.161 46.000,38.000 46.000 C 37.839 46.000,37.614 46.112,37.500 46.250 C 37.386 46.387,37.161 46.500,37.000 46.500 C 36.839 46.500,36.614 46.612,36.500 46.750 C 36.386 46.887,36.170 47.002,36.021 47.005 C 35.872 47.008,35.604 47.121,35.426 47.255 C 35.249 47.390,34.938 47.500,34.736 47.500 C 34.534 47.500,34.326 47.613,34.273 47.750 C 34.220 47.888,33.987 48.000,33.755 48.000 C 33.523 48.000,33.333 48.074,33.333 48.163 C 33.333 48.253,33.127 48.373,32.875 48.429 C 32.398 48.535,31.461 48.901,30.960 49.175 C 30.023 49.689,28.092 50.601,26.542 51.262 C 26.152 51.428,25.833 51.625,25.833 51.699 C 25.833 51.773,25.655 51.833,25.437 51.833 C 25.219 51.833,24.947 51.946,24.833 52.083 C 24.719 52.221,24.493 52.333,24.331 52.333 C 24.168 52.333,23.992 52.446,23.940 52.583 C 23.887 52.721,23.663 52.833,23.442 52.833 C 23.221 52.833,22.947 52.946,22.833 53.083 C 22.719 53.221,22.382 53.333,22.083 53.333 C 21.785 53.333,21.447 53.446,21.333 53.583 C 21.219 53.721,21.020 53.833,20.891 53.833 C 20.762 53.833,20.613 53.946,20.560 54.083 C 20.508 54.221,20.283 54.333,20.060 54.333 C 19.838 54.333,19.613 54.446,19.560 54.583 C 19.507 54.722,19.259 54.833,19.003 54.833 C 18.749 54.833,18.447 54.946,18.333 55.083 C 18.219 55.221,17.994 55.333,17.833 55.333 C 17.672 55.333,17.447 55.446,17.333 55.583 C 17.219 55.721,16.994 55.833,16.833 55.833 C 16.672 55.833,16.447 55.946,16.333 56.083 C 16.219 56.221,15.957 56.333,15.750 56.333 C 15.543 56.333,15.281 56.446,15.167 56.583 C 15.053 56.721,14.781 56.833,14.563 56.833 C 14.345 56.833,14.167 56.905,14.167 56.992 C 14.167 57.164,13.563 57.457,12.250 57.921 C 11.792 58.083,11.042 58.419,10.583 58.667 C 10.125 58.916,9.544 59.169,9.292 59.229 C 9.040 59.290,8.833 59.413,8.833 59.503 C 8.833 59.593,8.689 59.667,8.512 59.667 C 8.335 59.667,8.078 59.779,7.940 59.917 C 7.803 60.054,7.603 60.167,7.495 60.167 C 7.388 60.167,7.064 60.271,6.775 60.399 C 6.486 60.527,6.138 60.677,6.000 60.734 C 5.862 60.791,5.525 60.985,5.250 61.167 C 4.975 61.348,4.637 61.540,4.500 61.594 C 4.362 61.647,4.137 61.760,4.000 61.846 C 3.862 61.931,3.600 62.067,3.416 62.147 C 2.852 62.395,1.561 63.898,1.187 64.742 C 0.723 65.791,0.634 82.305,1.089 82.907 C 1.223 83.085,1.333 83.396,1.333 83.599 C 1.333 83.858,1.481 84.019,1.833 84.142 C 2.108 84.238,2.333 84.395,2.333 84.491 C 2.333 84.588,2.633 84.667,3.000 84.667 C 3.481 84.667,3.667 84.736,3.667 84.917 C 3.667 85.083,3.833 85.167,4.167 85.167 C 4.500 85.167,4.667 85.250,4.667 85.417 C 4.667 85.569,4.822 85.667,5.066 85.667 C 5.285 85.667,5.508 85.779,5.560 85.917 C 5.616 86.063,5.866 86.167,6.161 86.167 C 6.499 86.167,6.667 86.249,6.667 86.417 C 6.667 86.583,6.833 86.667,7.167 86.667 C 7.500 86.667,7.667 86.750,7.667 86.917 C 7.667 87.054,7.807 87.167,7.980 87.167 C 8.152 87.167,8.386 87.279,8.500 87.417 C 8.627 87.569,8.992 87.667,9.437 87.667 C 9.974 87.667,10.167 87.733,10.167 87.917 C 10.167 88.054,10.307 88.167,10.480 88.167 C 10.652 88.167,10.886 88.279,11.000 88.417 C 11.114 88.554,11.279 88.667,11.366 88.667 C 11.453 88.667,11.636 88.779,11.774 88.917 C 11.911 89.054,12.235 89.167,12.494 89.167 C 12.758 89.167,13.006 89.276,13.060 89.417 C 13.113 89.554,13.290 89.667,13.453 89.667 C 13.701 89.667,15.239 90.337,16.167 90.849 C 16.304 90.925,16.754 91.159,17.167 91.369 C 17.579 91.578,17.954 91.797,18.000 91.854 C 18.046 91.912,18.402 92.012,18.792 92.078 C 19.181 92.143,19.500 92.264,19.500 92.348 C 19.500 92.432,19.645 92.500,19.821 92.500 C 19.998 92.500,20.243 92.600,20.365 92.722 C 20.487 92.844,20.792 92.995,21.043 93.058 C 21.294 93.121,21.500 93.247,21.500 93.337 C 21.500 93.426,21.690 93.500,21.922 93.500 C 22.154 93.500,22.387 93.612,22.440 93.750 C 22.502 93.913,22.762 94.000,23.184 94.000 C 23.650 94.000,23.833 94.071,23.833 94.250 C 23.833 94.388,23.974 94.500,24.146 94.500 C 24.318 94.500,24.553 94.612,24.667 94.750 C 24.781 94.887,25.090 95.000,25.354 95.000 C 25.669 95.000,25.833 95.086,25.833 95.250 C 25.833 95.417,26.000 95.500,26.333 95.500 C 26.667 95.500,26.833 95.583,26.833 95.750 C 26.833 95.888,26.974 96.000,27.146 96.000 C 27.318 96.000,27.553 96.112,27.667 96.250 C 27.781 96.388,28.046 96.500,28.257 96.500 C 28.593 96.500,29.159 96.726,30.000 97.196 C 30.137 97.273,30.363 97.387,30.500 97.450 C 30.637 97.513,30.849 97.663,30.970 97.782 C 31.091 97.902,31.363 98.000,31.575 98.000 C 31.786 98.000,32.053 98.112,32.167 98.250 C 32.281 98.387,32.517 98.500,32.692 98.500 C 32.867 98.500,33.054 98.612,33.106 98.750 C 33.159 98.888,33.387 99.000,33.613 99.000 C 33.839 99.000,34.136 99.112,34.274 99.250 C 34.411 99.388,34.706 99.500,34.929 99.500 C 35.151 99.500,35.333 99.561,35.333 99.635 C 35.333 99.709,35.745 99.953,36.248 100.176 C 36.752 100.400,37.164 100.640,37.165 100.708 C 37.166 100.777,37.260 100.836,37.375 100.839 C 37.490 100.842,37.883 100.990,38.250 101.167 C 38.617 101.344,39.079 101.491,39.278 101.494 C 39.476 101.497,39.664 101.556,39.694 101.625 C 39.765 101.784,41.224 102.500,41.477 102.500 C 41.581 102.500,41.667 102.575,41.667 102.667 C 41.667 102.758,41.846 102.833,42.066 102.833 C 42.285 102.833,42.508 102.946,42.560 103.083 C 42.613 103.221,42.838 103.333,43.060 103.333 C 43.283 103.333,43.508 103.446,43.560 103.583 C 43.624 103.748,43.885 103.833,44.328 103.833 C 44.814 103.833,45.000 103.902,45.000 104.083 C 45.000 104.250,45.167 104.333,45.500 104.333 C 45.833 104.333,46.000 104.417,46.000 104.583 C 46.000 104.721,46.141 104.833,46.313 104.833 C 46.485 104.833,46.719 104.946,46.833 105.083 C 46.947 105.221,47.257 105.333,47.520 105.333 C 47.836 105.333,48.000 105.419,48.000 105.583 C 48.000 105.756,48.174 105.833,48.563 105.833 C 48.873 105.833,49.219 105.946,49.333 106.083 C 49.447 106.221,49.635 106.333,49.750 106.333 C 49.865 106.333,50.053 106.446,50.167 106.583 C 50.281 106.721,50.506 106.833,50.667 106.833 C 50.828 106.833,51.053 106.946,51.167 107.083 C 51.281 107.221,51.555 107.333,51.776 107.333 C 51.996 107.333,52.220 107.446,52.273 107.583 C 52.326 107.721,52.479 107.833,52.613 107.833 C 52.747 107.833,52.970 107.946,53.107 108.083 C 53.245 108.221,53.558 108.336,53.804 108.339 C 54.049 108.342,54.396 108.454,54.574 108.589 C 54.751 108.723,55.033 108.833,55.199 108.833 C 55.364 108.833,55.500 108.907,55.500 108.997 C 55.500 109.087,55.687 109.207,55.917 109.265 C 56.146 109.322,56.333 109.436,56.333 109.518 C 56.333 109.600,56.414 109.667,56.513 109.667 C 56.612 109.667,57.238 109.929,57.906 110.250 C 58.573 110.571,59.197 110.833,59.293 110.833 C 59.388 110.833,60.054 111.133,60.771 111.500 C 61.488 111.867,62.207 112.167,62.370 112.167 C 62.533 112.167,62.667 112.279,62.667 112.417 C 62.667 112.554,62.798 112.669,62.958 112.672 C 63.119 112.675,63.396 112.787,63.574 112.922 C 63.751 113.057,64.183 113.167,64.532 113.167 C 64.985 113.167,65.167 113.238,65.167 113.417 C 65.167 113.583,65.333 113.667,65.667 113.667 C 66.000 113.667,66.167 113.750,66.167 113.917 C 66.167 114.083,66.333 114.167,66.667 114.167 C 67.000 114.167,67.167 114.250,67.167 114.417 C 67.167 114.573,67.325 114.667,67.589 114.667 C 67.821 114.667,68.054 114.779,68.106 114.917 C 68.159 115.054,68.335 115.167,68.497 115.167 C 68.660 115.167,68.886 115.279,69.000 115.417 C 69.114 115.554,69.414 115.667,69.667 115.667 C 69.919 115.667,70.219 115.779,70.333 115.917 C 70.447 116.054,70.749 116.167,71.003 116.167 C 71.259 116.167,71.507 116.278,71.560 116.417 C 71.613 116.554,71.771 116.667,71.911 116.667 C 72.052 116.667,72.167 116.740,72.167 116.830 C 72.167 116.920,72.372 117.045,72.623 117.108 C 72.875 117.171,73.180 117.323,73.302 117.445 C 73.424 117.567,73.781 117.667,74.095 117.667 C 74.410 117.667,74.667 117.740,74.667 117.830 C 74.667 117.920,74.854 118.041,75.083 118.098 C 75.313 118.156,75.500 118.264,75.500 118.338 C 75.500 118.413,75.725 118.523,76.000 118.583 C 76.275 118.644,76.500 118.762,76.500 118.847 C 76.500 118.931,76.586 119.000,76.690 119.000 C 76.903 119.000,78.371 119.692,78.500 119.854 C 78.546 119.911,78.832 120.012,79.136 120.078 C 79.440 120.144,79.890 120.303,80.136 120.431 C 80.382 120.560,80.677 120.665,80.792 120.666 C 80.906 120.666,81.000 120.734,81.000 120.815 C 81.000 120.897,81.187 121.011,81.417 121.068 C 81.646 121.126,81.833 121.247,81.833 121.337 C 81.833 121.426,82.050 121.500,82.316 121.500 C 82.590 121.500,82.839 121.607,82.894 121.750 C 82.946 121.888,83.171 122.000,83.394 122.000 C 83.616 122.000,83.841 122.112,83.894 122.250 C 83.957 122.415,84.218 122.500,84.661 122.500 C 85.148 122.500,85.333 122.569,85.333 122.750 C 85.333 122.917,85.500 123.000,85.833 123.000 C 86.167 123.000,86.333 123.083,86.333 123.250 C 86.333 123.417,86.500 123.500,86.833 123.500 C 87.167 123.500,87.333 123.583,87.333 123.750 C 87.333 123.903,87.489 124.000,87.732 124.000 C 87.952 124.000,88.174 124.112,88.227 124.250 C 88.280 124.387,88.429 124.500,88.558 124.500 C 88.687 124.500,88.886 124.612,89.000 124.750 C 89.125 124.901,89.490 125.000,89.919 125.000 C 90.398 125.000,90.662 125.082,90.727 125.250 C 90.780 125.388,90.978 125.500,91.167 125.500 C 91.356 125.500,91.554 125.612,91.606 125.750 C 91.659 125.888,91.812 126.000,91.946 126.000 C 92.081 126.000,92.303 126.112,92.440 126.250 C 92.578 126.388,92.910 126.500,93.179 126.500 C 93.501 126.500,93.667 126.585,93.667 126.750 C 93.667 126.888,93.811 127.000,93.988 127.000 C 94.165 127.000,94.422 127.112,94.560 127.250 C 94.697 127.387,94.970 127.500,95.167 127.500 C 95.363 127.500,95.636 127.613,95.774 127.750 C 95.911 127.888,96.197 128.000,96.408 128.000 C 96.620 128.000,96.886 128.113,97.000 128.250 C 97.114 128.387,97.311 128.500,97.437 128.500 C 97.563 128.500,97.667 128.569,97.667 128.653 C 97.667 128.738,97.892 128.856,98.167 128.917 C 98.442 128.977,98.667 129.090,98.667 129.167 C 98.667 129.244,98.910 129.357,99.208 129.418 C 99.935 129.568,101.000 130.032,101.000 130.199 C 101.000 130.273,101.145 130.333,101.321 130.333 C 101.498 130.333,101.755 130.446,101.893 130.583 C 102.030 130.721,102.328 130.833,102.554 130.833 C 102.780 130.833,103.008 130.946,103.060 131.083 C 103.113 131.221,103.346 131.333,103.578 131.333 C 103.842 131.333,104.000 131.427,104.000 131.583 C 104.000 131.769,104.194 131.833,104.750 131.833 C 105.306 131.833,105.500 131.898,105.500 132.083 C 105.500 132.250,105.667 132.333,106.000 132.333 C 106.333 132.333,106.500 132.417,106.500 132.583 C 106.500 132.736,106.655 132.833,106.899 132.833 C 107.118 132.833,107.341 132.946,107.394 133.083 C 107.446 133.221,107.652 133.333,107.851 133.333 C 108.050 133.333,108.297 133.444,108.398 133.578 C 108.672 133.941,111.499 134.017,111.664 133.667 C 111.729 133.529,111.867 133.251,111.971 133.049 C 112.227 132.553,112.261 108.027,112.006 107.773 C 111.911 107.678,111.833 107.477,111.833 107.328 C 111.833 106.951,110.682 105.833,110.294 105.833 C 110.119 105.833,109.864 105.721,109.726 105.583 C 109.589 105.446,109.314 105.333,109.115 105.333 C 108.917 105.333,108.341 105.138,107.836 104.900 C 107.330 104.661,106.692 104.372,106.417 104.258 C 104.531 103.472,103.991 103.273,103.260 103.096 C 102.808 102.986,102.408 102.807,102.372 102.698 C 102.335 102.589,102.057 102.500,101.754 102.500 C 101.417 102.500,101.165 102.403,101.106 102.250 C 101.054 102.113,100.821 102.000,100.589 102.000 C 100.357 102.000,100.167 101.933,100.167 101.852 C 100.167 101.770,99.912 101.656,99.600 101.597 C 99.288 101.539,98.942 101.381,98.830 101.246 C 98.718 101.111,98.452 101.000,98.239 101.000 C 98.027 101.000,97.812 100.934,97.762 100.852 C 97.711 100.771,97.407 100.655,97.085 100.595 C 96.763 100.534,96.500 100.430,96.500 100.364 C 96.500 100.196,95.522 99.702,94.917 99.564 C 94.642 99.502,94.269 99.349,94.088 99.225 C 93.907 99.101,93.560 99.000,93.317 99.000 C 93.073 99.000,92.781 98.887,92.667 98.750 C 92.553 98.612,92.337 98.498,92.188 98.495 C 92.039 98.492,91.771 98.379,91.593 98.245 C 91.415 98.110,91.133 98.000,90.966 98.000 C 90.799 98.000,90.532 97.928,90.373 97.840 C 89.839 97.544,88.159 96.833,87.993 96.833 C 87.903 96.833,87.699 96.765,87.539 96.681 C 86.979 96.385,86.031 96.000,85.864 96.000 C 85.770 96.000,85.332 95.818,84.889 95.596 C 84.446 95.374,83.876 95.141,83.623 95.078 C 83.370 95.015,83.122 94.896,83.072 94.815 C 83.022 94.733,82.816 94.666,82.615 94.666 C 82.414 94.665,82.035 94.553,81.773 94.416 C 81.510 94.279,81.199 94.167,81.082 94.167 C 80.965 94.167,80.826 94.054,80.773 93.917 C 80.720 93.779,80.496 93.667,80.276 93.667 C 80.055 93.667,79.781 93.554,79.667 93.417 C 79.553 93.279,79.285 93.167,79.073 93.167 C 78.860 93.167,78.644 93.098,78.592 93.015 C 78.541 92.931,78.203 92.812,77.842 92.751 C 77.481 92.690,77.097 92.534,76.989 92.404 C 76.881 92.273,76.698 92.167,76.582 92.167 C 76.466 92.167,76.157 92.055,75.894 91.918 C 75.631 91.781,75.267 91.666,75.083 91.662 C 74.900 91.659,74.604 91.546,74.426 91.411 C 74.249 91.277,73.930 91.167,73.718 91.167 C 73.487 91.167,73.333 91.067,73.333 90.917 C 73.333 90.750,73.167 90.667,72.833 90.667 C 72.558 90.667,72.333 90.598,72.333 90.513 C 72.333 90.429,72.103 90.309,71.822 90.248 C 71.541 90.186,71.110 90.030,70.864 89.902 C 70.618 89.774,70.218 89.668,69.976 89.668 C 69.734 89.667,69.492 89.554,69.440 89.417 C 69.387 89.279,69.235 89.167,69.102 89.167 C 68.970 89.167,68.836 89.093,68.806 89.002 C 68.775 88.912,68.377 88.769,67.922 88.684 C 67.466 88.599,67.066 88.448,67.033 88.348 C 66.999 88.248,66.847 88.164,66.694 88.161 C 66.542 88.158,66.271 88.046,66.093 87.911 C 65.915 87.777,65.596 87.667,65.385 87.667 C 65.173 87.667,65.000 87.592,65.000 87.500 C 65.000 87.408,64.883 87.333,64.739 87.333 C 64.596 87.333,64.069 87.146,63.568 86.917 C 63.067 86.688,62.565 86.500,62.453 86.499 C 62.342 86.499,62.023 86.361,61.747 86.192 C 61.470 86.023,60.971 85.834,60.638 85.771 C 60.305 85.709,59.684 85.472,59.258 85.246 C 58.831 85.019,58.308 84.833,58.095 84.833 C 57.882 84.833,57.614 84.721,57.500 84.583 C 57.386 84.446,57.161 84.333,57.000 84.333 C 56.839 84.333,56.614 84.221,56.500 84.083 C 56.386 83.946,56.074 83.833,55.808 83.833 C 55.530 83.833,55.282 83.726,55.227 83.583 C 55.174 83.446,55.008 83.331,54.857 83.328 C 54.707 83.325,54.438 83.213,54.260 83.078 C 54.082 82.943,53.726 82.833,53.468 82.833 C 53.211 82.833,53.000 82.759,53.000 82.669 C 53.000 82.578,52.700 82.456,52.333 82.397 C 51.967 82.339,51.667 82.221,51.667 82.136 C 51.667 82.050,51.592 82.027,51.500 82.083 C 51.408 82.140,51.333 82.107,51.333 82.010 C 51.333 81.913,51.202 81.831,51.042 81.828 C 50.881 81.825,50.604 81.713,50.426 81.578 C 50.249 81.443,49.924 81.333,49.706 81.333 C 49.488 81.333,49.197 81.221,49.060 81.083 C 48.922 80.946,48.590 80.833,48.321 80.833 C 47.999 80.833,47.833 80.749,47.833 80.583 C 47.833 80.426,47.675 80.333,47.405 80.333 C 47.169 80.333,46.864 80.221,46.726 80.083 C 46.589 79.946,46.303 79.833,46.092 79.833 C 45.880 79.833,45.614 79.721,45.500 79.583 C 45.386 79.446,45.198 79.333,45.082 79.333 C 44.966 79.333,44.657 79.221,44.394 79.084 C 44.131 78.947,43.785 78.835,43.625 78.834 C 43.465 78.834,43.333 78.764,43.333 78.679 C 43.333 78.594,42.921 78.432,42.417 78.319 C 41.912 78.206,41.500 78.055,41.500 77.983 C 41.500 77.912,41.050 77.720,40.500 77.556 C 39.950 77.393,39.500 77.207,39.500 77.143 C 39.500 77.079,39.256 76.977,38.958 76.917 C 38.480 76.820,37.737 76.510,36.111 75.727 C 35.852 75.602,35.500 75.500,35.330 75.500 C 35.159 75.500,34.979 75.434,34.928 75.352 C 34.878 75.271,34.576 75.155,34.256 75.096 C 33.937 75.036,33.617 74.896,33.546 74.785 C 33.328 74.446,32.697 74.164,31.912 74.057 C 31.037 73.937,31.130 73.607,32.089 73.427 C 32.407 73.367,32.667 73.253,32.667 73.174 C 32.667 73.094,32.969 72.978,33.339 72.916 C 34.054 72.795,34.930 72.415,35.090 72.156 C 35.143 72.070,35.330 72.000,35.505 72.000 C 35.952 72.000,37.185 71.332,37.073 71.150 C 37.022 71.068,37.282 71.000,37.650 71.000 C 38.395 71.000,39.490 70.531,39.496 70.208 C 39.498 70.077,39.748 70.000,40.172 70.000 C 40.615 70.000,40.876 69.915,40.940 69.750 C 41.002 69.587,41.262 69.500,41.690 69.500 C 42.117 69.500,42.377 69.413,42.440 69.250 C 42.492 69.112,42.707 69.000,42.917 69.000 C 43.126 69.000,43.341 68.887,43.394 68.750 C 43.448 68.607,43.697 68.500,43.974 68.500 C 44.241 68.500,44.553 68.388,44.667 68.250 C 44.781 68.112,45.090 68.000,45.354 68.000 C 45.669 68.000,45.833 67.914,45.833 67.750 C 45.833 67.583,46.000 67.500,46.333 67.500 C 46.667 67.500,46.833 67.417,46.833 67.250 C 46.833 67.079,47.005 67.000,47.375 66.999 C 47.673 66.998,48.131 66.886,48.394 66.749 C 48.657 66.612,48.966 66.500,49.082 66.500 C 49.198 66.500,49.386 66.387,49.500 66.250 C 49.614 66.112,49.848 66.000,50.020 66.000 C 50.193 66.000,50.333 65.887,50.333 65.750 C 50.333 65.577,50.507 65.500,50.898 65.500 C 51.208 65.500,51.677 65.388,51.939 65.251 C 52.202 65.114,52.576 65.002,52.771 65.001 C 52.966 65.000,53.219 64.888,53.333 64.750 C 53.447 64.613,53.682 64.500,53.854 64.500 C 54.026 64.500,54.167 64.425,54.167 64.333 C 54.167 64.242,54.345 64.167,54.563 64.167 C 54.781 64.167,55.053 64.054,55.167 63.917 C 55.281 63.779,55.496 63.666,55.645 63.666 C 55.795 63.665,56.131 63.553,56.394 63.416 C 56.657 63.279,57.015 63.167,57.191 63.167 C 57.367 63.167,57.554 63.054,57.606 62.917 C 57.659 62.779,57.884 62.667,58.106 62.667 C 58.329 62.667,58.554 62.554,58.606 62.417 C 58.669 62.253,58.929 62.167,59.356 62.167 C 59.784 62.167,60.044 62.080,60.106 61.917 C 60.159 61.779,60.379 61.667,60.594 61.667 C 61.112 61.667,62.157 61.139,62.163 60.875 C 62.165 60.736,62.448 60.667,63.005 60.667 C 63.597 60.667,63.872 60.593,63.940 60.417 C 63.992 60.279,64.142 60.167,64.273 60.167 C 64.404 60.167,64.554 60.054,64.606 59.917 C 64.669 59.754,64.928 59.667,65.351 59.667 C 65.817 59.667,66.000 59.596,66.000 59.417 C 66.000 59.231,66.194 59.167,66.750 59.167 C 67.306 59.167,67.500 59.102,67.500 58.917 C 67.500 58.750,67.667 58.667,68.000 58.667 C 68.333 58.667,68.500 58.583,68.500 58.417 C 68.500 58.250,68.667 58.167,69.000 58.167 C 69.333 58.167,69.500 58.083,69.500 57.917 C 69.500 57.736,69.686 57.667,70.172 57.667 C 70.615 57.667,70.876 57.582,70.940 57.417 C 70.995 57.273,71.244 57.167,71.523 57.167 C 71.803 57.167,72.051 57.060,72.106 56.917 C 72.159 56.779,72.382 56.667,72.601 56.667 C 72.845 56.667,73.000 56.569,73.000 56.417 C 73.000 56.235,73.187 56.167,73.683 56.167 C 74.313 56.167,75.333 55.744,75.333 55.483 C 75.333 55.421,75.671 55.321,76.083 55.259 C 76.496 55.197,76.833 55.082,76.833 55.004 C 76.833 54.926,77.152 54.809,77.542 54.744 C 77.931 54.679,78.288 54.579,78.333 54.521 C 78.509 54.301,79.542 53.833,79.852 53.833 C 80.031 53.833,80.220 53.721,80.273 53.583 C 80.327 53.443,80.575 53.333,80.839 53.333 C 81.098 53.333,81.422 53.221,81.560 53.083 C 81.697 52.946,82.005 52.833,82.243 52.833 C 82.482 52.833,82.720 52.721,82.773 52.583 C 82.826 52.446,83.040 52.333,83.250 52.333 C 83.460 52.333,83.674 52.221,83.727 52.083 C 83.786 51.930,84.038 51.833,84.380 51.833 C 84.686 51.833,85.082 51.723,85.260 51.589 C 85.438 51.454,85.792 51.342,86.047 51.339 C 86.302 51.336,86.554 51.221,86.606 51.083 C 86.659 50.946,86.775 50.833,86.863 50.833 C 86.951 50.833,87.136 50.721,87.274 50.583 C 87.411 50.446,87.809 50.333,88.158 50.333 C 88.507 50.333,88.880 50.228,88.986 50.100 C 89.093 49.971,89.365 49.820,89.590 49.763 C 89.816 49.707,90.000 49.587,90.000 49.497 C 90.000 49.407,90.227 49.333,90.505 49.333 C 90.801 49.333,91.050 49.229,91.106 49.083 C 91.168 48.922,91.426 48.833,91.831 48.833 C 92.186 48.833,92.549 48.725,92.667 48.583 C 92.781 48.446,93.015 48.333,93.187 48.333 C 93.359 48.333,93.500 48.221,93.500 48.083 C 93.500 47.917,93.667 47.833,94.000 47.833 C 94.333 47.833,94.500 47.750,94.500 47.583 C 94.500 47.402,94.686 47.333,95.172 47.333 C 95.615 47.333,95.876 47.248,95.940 47.083 C 96.001 46.924,96.257 46.833,96.645 46.833 C 97.058 46.833,97.393 46.704,97.688 46.430 C 97.947 46.190,98.433 45.981,98.889 45.912 C 99.311 45.849,99.743 45.693,99.848 45.565 C 99.954 45.438,100.144 45.333,100.270 45.333 C 100.397 45.333,100.500 45.258,100.500 45.167 C 100.500 45.075,100.711 45.000,100.968 45.000 C 101.226 45.000,101.582 44.890,101.760 44.755 C 101.938 44.621,102.284 44.508,102.530 44.505 C 102.775 44.502,103.089 44.388,103.226 44.250 C 103.364 44.113,103.589 44.000,103.726 44.000 C 103.864 44.000,104.079 43.906,104.204 43.792 C 104.605 43.425,105.515 43.000,105.898 43.000 C 106.103 43.000,106.415 42.890,106.593 42.755 C 106.771 42.621,107.088 42.508,107.297 42.505 C 107.506 42.502,107.720 42.388,107.773 42.250 C 107.826 42.112,108.051 42.000,108.273 42.000 C 108.495 42.000,108.720 41.887,108.773 41.750 C 108.831 41.598,109.083 41.500,109.414 41.500 C 109.714 41.500,110.053 41.388,110.167 41.250 C 110.281 41.112,110.511 41.000,110.678 41.000 C 111.107 41.000,111.833 40.281,111.833 39.856 C 111.833 39.660,111.908 39.500,112.000 39.500 C 112.110 39.500,112.167 35.222,112.167 27.000 C 112.167 19.968,112.103 14.500,112.021 14.500 C 111.941 14.500,111.831 14.294,111.777 14.042 C 111.591 13.173,109.960 12.719,108.939 13.251 M284.151 13.483 C 283.439 13.715,282.833 14.345,282.833 14.854 C 282.833 15.107,282.758 15.360,282.667 15.417 C 282.558 15.484,282.500 19.471,282.500 26.833 C 282.500 34.196,282.558 38.183,282.667 38.250 C 282.758 38.307,282.833 38.495,282.833 38.668 C 282.833 39.179,283.833 39.998,284.458 39.999 C 284.797 40.000,284.984 40.076,284.958 40.204 C 284.935 40.317,285.104 40.436,285.333 40.470 C 285.563 40.504,285.810 40.637,285.883 40.766 C 285.958 40.897,286.273 41.000,286.597 41.000 C 286.959 41.000,287.213 41.094,287.273 41.250 C 287.331 41.402,287.583 41.500,287.914 41.500 C 288.214 41.500,288.553 41.612,288.667 41.750 C 288.781 41.887,289.090 42.000,289.354 42.000 C 289.618 42.000,289.833 42.074,289.833 42.163 C 289.833 42.253,290.039 42.379,290.290 42.442 C 290.541 42.505,290.847 42.656,290.969 42.778 C 291.091 42.900,291.391 43.002,291.637 43.005 C 291.882 43.008,292.229 43.121,292.407 43.255 C 292.585 43.390,292.933 43.500,293.181 43.500 C 293.428 43.500,293.674 43.612,293.727 43.750 C 293.780 43.887,293.956 44.002,294.120 44.005 C 294.283 44.008,294.562 44.121,294.740 44.255 C 294.918 44.390,295.256 44.500,295.490 44.501 C 295.725 44.501,296.367 44.726,296.917 45.000 C 297.467 45.274,298.002 45.499,298.106 45.499 C 298.210 45.500,298.510 45.612,298.773 45.749 C 299.035 45.886,299.419 45.998,299.625 45.999 C 299.831 46.000,300.000 46.075,300.000 46.167 C 300.000 46.258,300.145 46.333,300.321 46.333 C 300.498 46.333,300.755 46.446,300.893 46.583 C 301.030 46.721,301.338 46.833,301.577 46.833 C 301.815 46.833,302.054 46.946,302.106 47.083 C 302.168 47.244,302.426 47.333,302.831 47.333 C 303.186 47.333,303.549 47.442,303.667 47.583 C 303.781 47.721,304.127 47.833,304.437 47.833 C 304.826 47.833,305.000 47.910,305.000 48.083 C 305.000 48.250,305.167 48.333,305.500 48.333 C 305.833 48.333,306.000 48.417,306.000 48.583 C 306.000 48.764,306.186 48.833,306.672 48.833 C 307.115 48.833,307.376 48.918,307.440 49.083 C 307.499 49.238,307.753 49.333,308.106 49.333 C 308.460 49.333,308.714 49.428,308.773 49.583 C 308.826 49.721,308.979 49.833,309.113 49.833 C 309.247 49.833,309.470 49.946,309.607 50.083 C 309.752 50.228,310.159 50.333,310.577 50.333 C 311.064 50.333,311.329 50.414,311.394 50.583 C 311.446 50.721,311.671 50.833,311.894 50.833 C 312.116 50.833,312.341 50.946,312.394 51.083 C 312.457 51.248,312.718 51.333,313.161 51.333 C 313.648 51.333,313.833 51.402,313.833 51.583 C 313.833 51.744,313.998 51.835,314.292 51.839 C 314.544 51.842,314.896 51.954,315.074 52.089 C 315.251 52.223,315.524 52.333,315.678 52.333 C 315.833 52.333,316.053 52.446,316.167 52.583 C 316.281 52.721,316.558 52.833,316.782 52.833 C 317.007 52.833,317.303 52.946,317.440 53.083 C 317.578 53.221,317.915 53.333,318.190 53.333 C 318.465 53.333,318.803 53.446,318.940 53.583 C 319.078 53.721,319.410 53.833,319.679 53.833 C 319.947 53.833,320.167 53.894,320.167 53.969 C 320.167 54.169,321.770 54.833,322.252 54.833 C 322.480 54.833,322.667 54.905,322.667 54.992 C 322.667 55.080,322.948 55.204,323.292 55.268 C 323.635 55.331,324.149 55.560,324.432 55.775 C 324.783 56.042,325.171 56.167,325.646 56.167 C 326.113 56.167,326.376 56.250,326.440 56.417 C 326.493 56.556,326.741 56.667,327.000 56.667 C 327.259 56.667,327.507 56.777,327.560 56.917 C 327.613 57.054,327.851 57.167,328.090 57.167 C 328.329 57.167,328.636 57.279,328.774 57.417 C 328.911 57.554,329.235 57.667,329.494 57.667 C 329.758 57.667,330.006 57.776,330.060 57.917 C 330.113 58.054,330.351 58.167,330.590 58.167 C 330.829 58.167,331.136 58.279,331.274 58.417 C 331.411 58.554,331.735 58.667,331.994 58.667 C 332.258 58.667,332.506 58.776,332.560 58.917 C 332.613 59.054,332.827 59.169,333.036 59.172 C 333.246 59.175,333.562 59.287,333.740 59.422 C 333.918 59.557,334.341 59.667,334.681 59.667 C 335.075 59.667,335.332 59.757,335.394 59.917 C 335.446 60.054,335.595 60.167,335.724 60.167 C 335.854 60.167,336.053 60.279,336.167 60.417 C 336.281 60.554,336.618 60.667,336.917 60.667 C 337.215 60.667,337.553 60.779,337.667 60.917 C 337.781 61.054,338.046 61.167,338.257 61.167 C 338.650 61.167,339.558 61.588,339.963 61.958 C 340.088 62.073,340.415 62.167,340.690 62.167 C 340.965 62.167,341.303 62.279,341.440 62.417 C 341.578 62.554,341.940 62.667,342.244 62.667 C 342.582 62.667,342.835 62.764,342.894 62.917 C 342.946 63.054,343.179 63.167,343.411 63.167 C 343.643 63.167,343.833 63.236,343.833 63.320 C 343.833 63.404,344.077 63.526,344.375 63.589 C 344.673 63.653,344.992 63.763,345.083 63.833 C 345.175 63.904,345.494 64.014,345.792 64.077 C 346.090 64.141,346.333 64.256,346.333 64.332 C 346.333 64.408,346.633 64.521,347.000 64.583 C 347.367 64.645,347.667 64.756,347.667 64.829 C 347.667 64.903,347.929 65.012,348.250 65.072 C 348.571 65.133,348.833 65.253,348.833 65.341 C 348.833 65.428,349.162 65.500,349.563 65.500 C 350.008 65.500,350.373 65.597,350.500 65.750 C 350.614 65.888,350.803 66.000,350.919 66.000 C 351.036 66.000,351.174 66.113,351.227 66.250 C 351.290 66.413,351.549 66.500,351.977 66.500 C 352.405 66.500,352.664 66.587,352.727 66.750 C 352.790 66.915,353.051 67.000,353.495 67.000 C 353.981 67.000,354.167 67.069,354.167 67.250 C 354.167 67.403,354.322 67.500,354.566 67.500 C 354.785 67.500,355.008 67.612,355.060 67.750 C 355.121 67.907,355.376 68.000,355.750 68.000 C 356.124 68.000,356.379 68.093,356.440 68.250 C 356.502 68.413,356.762 68.500,357.190 68.500 C 357.617 68.500,357.877 68.587,357.940 68.750 C 357.993 68.889,358.241 69.000,358.500 69.000 C 358.759 69.000,359.007 69.111,359.060 69.250 C 359.113 69.388,359.327 69.502,359.536 69.505 C 359.746 69.508,360.062 69.621,360.240 69.755 C 360.418 69.890,360.766 70.000,361.014 70.000 C 361.262 70.000,361.508 70.112,361.560 70.250 C 361.615 70.393,361.864 70.500,362.141 70.500 C 362.408 70.500,362.719 70.612,362.833 70.750 C 362.947 70.887,363.136 71.000,363.251 71.000 C 363.367 71.000,363.677 71.112,363.939 71.249 C 364.202 71.386,364.576 71.498,364.771 71.499 C 364.966 71.500,365.219 71.612,365.333 71.750 C 365.447 71.887,365.700 72.002,365.895 72.005 C 366.090 72.008,366.396 72.121,366.574 72.255 C 366.751 72.390,367.108 72.500,367.365 72.500 C 367.623 72.500,367.833 72.575,367.833 72.667 C 367.833 72.758,367.946 72.833,368.083 72.833 C 368.680 72.833,368.181 73.429,367.500 73.530 C 367.271 73.564,367.102 73.683,367.125 73.796 C 367.152 73.930,366.938 74.000,366.500 74.000 C 366.133 74.000,365.833 74.079,365.833 74.177 C 365.833 74.274,365.758 74.307,365.667 74.250 C 365.575 74.193,365.500 74.226,365.500 74.323 C 365.500 74.421,365.289 74.500,365.032 74.500 C 364.774 74.500,364.418 74.610,364.240 74.745 C 364.062 74.879,363.788 74.992,363.631 74.995 C 363.473 74.998,363.061 75.123,362.714 75.274 C 362.367 75.425,361.821 75.663,361.500 75.802 C 361.179 75.942,360.654 76.167,360.333 76.303 C 360.012 76.438,359.635 76.603,359.495 76.670 C 359.354 76.737,358.985 76.847,358.675 76.915 C 358.365 76.983,357.787 77.211,357.389 77.423 C 356.992 77.634,356.430 77.859,356.139 77.923 C 355.849 77.986,355.276 78.217,354.864 78.436 C 354.453 78.655,353.984 78.833,353.820 78.833 C 353.657 78.833,353.411 78.946,353.274 79.083 C 353.136 79.221,352.885 79.333,352.716 79.333 C 352.546 79.333,352.260 79.430,352.079 79.547 C 351.898 79.665,351.300 79.905,350.750 80.082 C 350.200 80.259,349.690 80.500,349.617 80.618 C 349.543 80.737,349.318 80.834,349.117 80.834 C 348.915 80.835,348.535 80.947,348.273 81.084 C 348.010 81.221,347.700 81.333,347.585 81.333 C 347.469 81.333,347.281 81.446,347.167 81.583 C 347.053 81.721,346.741 81.833,346.474 81.833 C 346.197 81.833,345.948 81.940,345.894 82.083 C 345.840 82.222,345.593 82.333,345.336 82.333 C 345.082 82.333,344.781 82.446,344.667 82.583 C 344.553 82.721,344.300 82.834,344.105 82.834 C 343.910 82.835,343.535 82.947,343.273 83.084 C 343.010 83.221,342.700 83.333,342.585 83.333 C 342.469 83.333,342.281 83.446,342.167 83.583 C 342.053 83.721,341.774 83.833,341.547 83.833 C 341.320 83.833,340.917 83.946,340.651 84.083 C 340.384 84.221,339.949 84.446,339.683 84.583 C 339.416 84.721,339.051 84.833,338.870 84.833 C 338.689 84.833,338.447 84.946,338.333 85.083 C 338.219 85.221,337.952 85.333,337.739 85.333 C 337.527 85.333,337.312 85.400,337.262 85.481 C 337.211 85.562,336.910 85.678,336.592 85.737 C 336.274 85.797,335.805 85.955,335.549 86.089 C 335.293 86.222,334.992 86.332,334.881 86.332 C 334.573 86.334,333.500 86.877,333.500 87.031 C 333.500 87.106,333.294 87.167,333.042 87.167 C 332.790 87.168,332.133 87.392,331.583 87.667 C 331.033 87.941,330.457 88.166,330.304 88.166 C 330.150 88.166,329.911 88.279,329.774 88.417 C 329.636 88.554,329.340 88.667,329.116 88.667 C 328.891 88.667,328.614 88.779,328.500 88.917 C 328.386 89.054,328.148 89.167,327.970 89.167 C 327.534 89.167,326.167 89.802,326.167 90.004 C 326.167 90.094,325.905 90.167,325.586 90.167 C 325.077 90.167,324.537 90.384,322.445 91.431 C 322.185 91.560,321.801 91.667,321.590 91.667 C 321.380 91.667,321.122 91.770,321.017 91.896 C 320.913 92.022,320.528 92.173,320.164 92.231 C 319.799 92.290,319.500 92.411,319.500 92.502 C 319.500 92.593,319.348 92.667,319.161 92.667 C 318.975 92.667,318.780 92.779,318.727 92.917 C 318.670 93.065,318.419 93.167,318.107 93.167 C 317.819 93.168,317.133 93.392,316.583 93.667 C 316.033 93.941,315.461 94.166,315.312 94.166 C 315.163 94.166,314.947 94.279,314.833 94.417 C 314.719 94.554,314.494 94.667,314.332 94.667 C 314.170 94.667,313.823 94.779,313.561 94.916 C 313.298 95.053,312.951 95.165,312.788 95.166 C 312.626 95.166,312.212 95.345,311.867 95.562 C 311.523 95.779,311.000 96.010,310.706 96.075 C 310.411 96.139,310.128 96.262,310.075 96.346 C 310.023 96.431,309.865 96.500,309.724 96.500 C 309.482 96.500,308.902 96.722,307.750 97.257 C 307.475 97.384,307.043 97.537,306.790 97.596 C 306.537 97.655,306.289 97.770,306.239 97.852 C 306.188 97.933,305.997 98.000,305.814 98.000 C 305.370 98.000,304.000 98.632,304.000 98.837 C 304.000 98.927,303.785 99.000,303.521 99.000 C 303.010 99.000,301.580 99.569,301.414 99.838 C 301.359 99.927,301.136 100.000,300.919 100.000 C 300.702 100.000,300.411 100.112,300.274 100.250 C 300.136 100.388,299.840 100.500,299.616 100.500 C 299.391 100.500,299.114 100.613,299.000 100.750 C 298.886 100.888,298.633 101.000,298.438 101.001 C 298.243 101.002,297.869 101.114,297.606 101.251 C 297.343 101.388,297.025 101.500,296.898 101.500 C 296.771 101.500,296.667 101.612,296.667 101.750 C 296.667 101.934,296.474 102.000,295.937 102.000 C 295.492 102.000,295.127 102.097,295.000 102.250 C 294.886 102.387,294.574 102.500,294.308 102.500 C 294.030 102.500,293.782 102.607,293.727 102.750 C 293.674 102.888,293.470 103.000,293.274 103.001 C 293.077 103.001,292.467 103.226,291.917 103.500 C 291.367 103.774,290.805 103.999,290.669 103.999 C 290.533 104.000,290.045 104.182,289.586 104.405 C 289.126 104.628,288.262 104.972,287.667 105.169 C 287.071 105.367,286.508 105.584,286.417 105.652 C 286.325 105.720,285.875 105.912,285.417 106.077 C 284.958 106.243,284.465 106.481,284.320 106.606 C 284.175 106.731,283.945 106.833,283.808 106.833 C 283.386 106.833,282.833 107.566,282.833 108.126 C 282.833 108.413,282.758 108.693,282.667 108.750 C 282.449 108.885,282.436 132.368,282.654 132.592 C 282.738 132.679,282.832 132.975,282.862 133.250 C 282.908 133.667,283.000 133.759,283.417 133.806 C 283.692 133.837,284.004 133.935,284.110 134.023 C 284.235 134.126,284.342 134.121,284.412 134.008 C 284.471 133.912,284.881 133.833,285.323 133.833 C 285.833 133.833,286.201 133.742,286.333 133.583 C 286.447 133.446,286.682 133.333,286.854 133.333 C 287.026 133.333,287.167 133.221,287.167 133.083 C 287.167 132.917,287.333 132.833,287.667 132.833 C 288.000 132.833,288.167 132.750,288.167 132.583 C 288.167 132.404,288.350 132.333,288.816 132.333 C 289.238 132.333,289.498 132.246,289.560 132.083 C 289.613 131.946,289.848 131.833,290.083 131.833 C 290.318 131.833,290.554 131.721,290.606 131.583 C 290.659 131.446,290.874 131.333,291.083 131.333 C 291.293 131.333,291.508 131.221,291.560 131.083 C 291.614 130.942,291.863 130.833,292.130 130.833 C 292.390 130.833,292.749 130.723,292.926 130.589 C 293.104 130.454,293.355 130.342,293.484 130.339 C 293.613 130.336,293.964 130.146,294.265 129.917 C 294.565 129.688,294.968 129.500,295.159 129.500 C 295.350 129.500,295.928 129.275,296.443 129.000 C 296.959 128.725,297.485 128.500,297.612 128.500 C 297.739 128.500,297.887 128.387,297.940 128.250 C 297.998 128.098,298.250 128.000,298.581 128.000 C 298.881 128.000,299.219 127.888,299.333 127.750 C 299.447 127.612,299.676 127.500,299.842 127.500 C 300.007 127.500,300.255 127.388,300.393 127.250 C 300.530 127.113,300.790 127.000,300.970 127.000 C 301.150 127.000,301.341 126.888,301.394 126.750 C 301.449 126.606,301.698 126.500,301.983 126.500 C 302.254 126.500,302.589 126.387,302.726 126.250 C 302.864 126.112,303.134 126.000,303.327 126.000 C 303.519 126.000,303.720 125.888,303.773 125.750 C 303.826 125.612,304.051 125.500,304.273 125.500 C 304.495 125.500,304.720 125.387,304.773 125.250 C 304.827 125.110,305.075 125.000,305.339 125.000 C 305.598 125.000,305.922 124.887,306.060 124.750 C 306.197 124.612,306.456 124.500,306.634 124.500 C 306.813 124.500,307.053 124.387,307.167 124.250 C 307.281 124.112,307.477 124.000,307.604 124.000 C 307.730 124.000,307.833 123.888,307.833 123.750 C 307.833 123.565,308.028 123.500,308.583 123.500 C 309.139 123.500,309.333 123.435,309.333 123.250 C 309.333 123.085,309.499 123.000,309.821 123.000 C 310.090 123.000,310.422 122.888,310.560 122.750 C 310.697 122.612,310.892 122.500,310.993 122.500 C 311.094 122.500,311.220 122.388,311.273 122.250 C 311.336 122.087,311.595 122.000,312.018 122.000 C 312.483 122.000,312.667 121.929,312.667 121.750 C 312.667 121.583,312.833 121.500,313.167 121.500 C 313.442 121.500,313.667 121.431,313.667 121.347 C 313.667 121.262,313.892 121.144,314.167 121.083 C 314.442 121.023,314.667 120.904,314.667 120.820 C 314.667 120.736,314.817 120.667,315.001 120.667 C 315.184 120.667,315.614 120.517,315.956 120.333 C 316.299 120.150,316.705 120.000,316.859 120.000 C 317.013 120.000,317.164 119.944,317.194 119.875 C 317.284 119.674,318.333 119.167,318.660 119.167 C 318.824 119.167,319.046 119.062,319.152 118.934 C 319.258 118.806,319.605 118.653,319.923 118.593 C 320.240 118.534,320.500 118.413,320.500 118.326 C 320.500 118.238,320.615 118.167,320.755 118.167 C 320.896 118.167,321.054 118.054,321.106 117.917 C 321.169 117.754,321.428 117.667,321.851 117.667 C 322.317 117.667,322.500 117.596,322.500 117.417 C 322.500 117.262,322.657 117.167,322.910 117.167 C 323.442 117.167,324.491 116.643,324.496 116.375 C 324.498 116.243,324.748 116.167,325.172 116.167 C 325.615 116.167,325.876 116.082,325.940 115.917 C 325.992 115.779,326.217 115.667,326.440 115.667 C 326.662 115.667,326.887 115.554,326.940 115.417 C 326.992 115.279,327.217 115.167,327.440 115.167 C 327.662 115.167,327.887 115.054,327.940 114.917 C 327.999 114.762,328.253 114.667,328.606 114.667 C 328.960 114.667,329.214 114.572,329.273 114.417 C 329.327 114.277,329.574 114.167,329.833 114.167 C 330.092 114.167,330.340 114.056,330.394 113.917 C 330.446 113.779,330.679 113.667,330.911 113.667 C 331.175 113.667,331.333 113.573,331.333 113.417 C 331.333 113.252,331.498 113.167,331.816 113.167 C 332.090 113.167,332.339 113.059,332.394 112.917 C 332.453 112.761,332.708 112.667,333.070 112.667 C 333.389 112.667,333.710 112.573,333.783 112.458 C 333.956 112.188,334.607 111.881,335.292 111.746 C 335.590 111.688,335.833 111.575,335.833 111.494 C 335.833 111.414,336.113 111.296,336.454 111.232 C 336.796 111.168,337.168 111.033,337.282 110.933 C 337.863 110.419,338.014 110.333,338.342 110.333 C 338.538 110.333,338.898 110.230,339.141 110.104 C 339.384 109.978,339.938 109.711,340.371 109.511 C 340.805 109.311,341.203 109.076,341.256 108.990 C 341.309 108.904,341.522 108.833,341.728 108.833 C 341.934 108.833,342.249 108.723,342.426 108.589 C 342.604 108.454,342.921 108.342,343.130 108.339 C 343.339 108.336,343.554 108.221,343.606 108.083 C 343.659 107.946,343.884 107.833,344.106 107.833 C 344.329 107.833,344.554 107.721,344.606 107.583 C 344.661 107.441,344.910 107.333,345.184 107.333 C 345.502 107.333,345.667 107.248,345.667 107.083 C 345.667 106.910,345.840 106.833,346.230 106.833 C 346.539 106.833,346.880 106.728,346.986 106.600 C 347.093 106.471,347.365 106.320,347.590 106.263 C 347.816 106.207,348.000 106.087,348.000 105.997 C 348.000 105.907,348.227 105.833,348.505 105.833 C 348.801 105.833,349.050 105.729,349.106 105.583 C 349.166 105.428,349.419 105.333,349.773 105.333 C 350.127 105.333,350.380 105.238,350.440 105.083 C 350.492 104.946,350.632 104.833,350.750 104.833 C 350.868 104.833,351.008 104.721,351.060 104.583 C 351.124 104.418,351.385 104.333,351.828 104.333 C 352.314 104.333,352.500 104.264,352.500 104.083 C 352.500 103.919,352.664 103.833,352.980 103.833 C 353.243 103.833,353.553 103.721,353.667 103.583 C 353.781 103.446,354.015 103.333,354.187 103.333 C 354.359 103.333,354.500 103.221,354.500 103.083 C 354.500 102.916,354.667 102.833,355.002 102.833 C 355.279 102.833,355.635 102.763,355.794 102.676 C 356.390 102.353,358.264 101.520,358.625 101.417 C 358.831 101.359,359.000 101.251,359.000 101.177 C 359.000 101.103,359.294 100.996,359.653 100.938 C 360.012 100.881,360.330 100.777,360.361 100.709 C 360.454 100.500,361.505 100.000,361.852 100.000 C 362.031 100.000,362.220 99.887,362.273 99.750 C 362.327 99.610,362.575 99.500,362.839 99.500 C 363.098 99.500,363.422 99.388,363.560 99.250 C 363.697 99.112,363.927 99.000,364.071 99.000 C 364.215 99.000,364.333 98.888,364.333 98.750 C 364.333 98.569,364.519 98.500,365.005 98.500 C 365.449 98.500,365.710 98.415,365.773 98.250 C 365.826 98.112,366.039 98.000,366.247 98.000 C 366.456 98.000,366.719 97.887,366.833 97.750 C 366.947 97.612,367.184 97.500,367.359 97.500 C 367.534 97.500,367.720 97.387,367.773 97.250 C 367.827 97.110,368.075 97.000,368.339 97.000 C 368.598 97.000,368.922 96.888,369.060 96.750 C 369.197 96.612,369.467 96.500,369.660 96.500 C 369.853 96.500,370.054 96.388,370.106 96.250 C 370.161 96.107,370.410 96.000,370.684 96.000 C 371.002 96.000,371.167 95.915,371.167 95.750 C 371.167 95.583,371.333 95.500,371.667 95.500 C 372.000 95.500,372.167 95.417,372.167 95.250 C 372.167 95.077,372.340 95.000,372.730 95.000 C 373.039 95.000,373.386 94.888,373.500 94.750 C 373.614 94.612,373.888 94.500,374.109 94.500 C 374.330 94.500,374.554 94.388,374.606 94.250 C 374.661 94.107,374.910 94.000,375.184 94.000 C 375.502 94.000,375.667 93.915,375.667 93.750 C 375.667 93.576,375.841 93.500,376.240 93.500 C 376.556 93.500,376.857 93.430,376.910 93.344 C 377.046 93.125,377.902 92.715,378.498 92.584 C 378.774 92.523,379.000 92.410,379.000 92.333 C 379.000 92.256,379.224 92.144,379.498 92.084 C 379.772 92.024,380.039 91.905,380.091 91.821 C 380.144 91.736,380.334 91.667,380.515 91.667 C 380.696 91.667,380.887 91.554,380.940 91.417 C 380.992 91.279,381.213 91.167,381.429 91.167 C 381.770 91.167,382.473 90.885,383.539 90.320 C 383.699 90.236,383.945 90.167,384.086 90.167 C 384.228 90.167,384.387 90.054,384.440 89.917 C 384.494 89.774,384.743 89.667,385.018 89.667 C 385.335 89.667,385.500 89.581,385.500 89.417 C 385.500 89.252,385.664 89.167,385.980 89.167 C 386.243 89.167,386.553 89.054,386.667 88.917 C 386.781 88.779,387.055 88.667,387.276 88.667 C 387.496 88.667,387.720 88.554,387.773 88.417 C 387.827 88.277,388.074 88.167,388.333 88.167 C 388.589 88.167,388.839 88.060,388.889 87.929 C 388.939 87.798,389.191 87.667,389.448 87.637 C 389.714 87.607,389.899 87.493,389.875 87.375 C 389.850 87.248,390.016 87.167,390.301 87.167 C 390.559 87.167,390.915 87.057,391.093 86.922 C 391.271 86.787,391.623 86.675,391.875 86.672 C 392.169 86.669,392.333 86.577,392.333 86.417 C 392.333 86.252,392.498 86.167,392.813 86.167 C 393.077 86.167,393.386 86.054,393.500 85.917 C 393.614 85.779,393.848 85.667,394.020 85.667 C 394.193 85.667,394.333 85.554,394.333 85.417 C 394.333 85.237,394.517 85.167,394.982 85.167 C 395.405 85.167,395.664 85.080,395.727 84.917 C 395.780 84.779,396.007 84.667,396.233 84.667 C 396.458 84.667,396.755 84.554,396.893 84.417 C 397.030 84.279,397.227 84.167,397.329 84.167 C 397.620 84.167,398.333 83.320,398.333 82.976 C 398.333 82.806,398.408 82.667,398.500 82.667 C 398.718 82.667,398.731 63.893,398.513 63.758 C 398.428 63.706,398.310 63.439,398.250 63.165 C 398.189 62.891,398.043 62.667,397.924 62.667 C 397.805 62.667,397.614 62.554,397.500 62.417 C 397.386 62.279,397.123 62.167,396.917 62.167 C 396.710 62.167,396.447 62.054,396.333 61.917 C 396.219 61.779,395.989 61.667,395.823 61.667 C 395.656 61.667,395.477 61.597,395.425 61.513 C 395.372 61.428,395.091 61.307,394.799 61.243 C 394.508 61.178,394.166 61.023,394.039 60.896 C 393.913 60.770,393.637 60.667,393.425 60.667 C 393.214 60.667,392.947 60.554,392.833 60.417 C 392.719 60.279,392.522 60.167,392.394 60.167 C 392.266 60.167,392.032 60.096,391.873 60.010 C 391.714 59.925,391.208 59.691,390.750 59.491 C 390.292 59.291,389.804 59.061,389.667 58.979 C 389.529 58.898,389.304 58.786,389.167 58.731 C 389.029 58.676,388.680 58.527,388.391 58.399 C 388.103 58.271,387.779 58.167,387.671 58.167 C 387.564 58.167,387.360 58.050,387.218 57.908 C 387.076 57.766,386.746 57.607,386.484 57.555 C 386.222 57.503,385.922 57.356,385.817 57.230 C 385.712 57.103,385.509 57.000,385.366 57.000 C 385.222 57.000,384.800 56.859,384.428 56.687 C 384.055 56.514,383.637 56.327,383.500 56.271 C 383.363 56.215,383.137 56.105,383.000 56.027 C 382.387 55.679,382.037 55.535,381.548 55.427 C 381.259 55.364,380.934 55.204,380.824 55.073 C 380.715 54.941,380.457 54.833,380.250 54.833 C 380.043 54.833,379.781 54.721,379.667 54.583 C 379.553 54.446,379.364 54.333,379.249 54.333 C 379.133 54.333,378.823 54.221,378.561 54.084 C 378.298 53.947,377.960 53.835,377.809 53.834 C 377.659 53.834,377.492 53.721,377.440 53.583 C 377.387 53.446,377.162 53.333,376.940 53.333 C 376.717 53.333,376.492 53.221,376.440 53.083 C 376.385 52.940,376.136 52.833,375.859 52.833 C 375.592 52.833,375.281 52.721,375.167 52.583 C 375.053 52.446,374.781 52.333,374.563 52.333 C 374.345 52.333,374.167 52.262,374.167 52.174 C 374.167 51.982,372.745 51.333,372.324 51.333 C 372.159 51.333,371.911 51.221,371.774 51.083 C 371.636 50.946,371.331 50.833,371.095 50.833 C 370.860 50.833,370.667 50.760,370.667 50.671 C 370.667 50.466,369.297 49.833,368.852 49.833 C 368.669 49.833,368.477 49.764,368.425 49.680 C 368.278 49.443,366.321 48.544,365.667 48.413 C 365.346 48.349,364.845 48.118,364.553 47.898 C 364.261 47.679,363.875 47.500,363.696 47.500 C 363.516 47.500,363.326 47.388,363.273 47.250 C 363.218 47.107,362.970 47.000,362.692 47.000 C 362.426 47.000,362.114 46.887,362.000 46.750 C 361.886 46.612,361.577 46.500,361.313 46.500 C 360.998 46.500,360.833 46.414,360.833 46.250 C 360.833 46.085,360.669 46.000,360.351 46.000 C 360.076 46.000,359.828 45.893,359.773 45.750 C 359.718 45.607,359.470 45.500,359.192 45.500 C 358.926 45.500,358.614 45.387,358.500 45.250 C 358.386 45.112,358.114 45.000,357.896 45.000 C 357.678 45.000,357.500 44.923,357.500 44.828 C 357.500 44.734,357.369 44.607,357.208 44.546 C 357.048 44.485,356.818 44.337,356.696 44.218 C 356.575 44.098,356.228 44.000,355.925 44.000 C 355.622 44.000,355.281 43.887,355.167 43.750 C 355.053 43.612,354.828 43.500,354.667 43.500 C 354.506 43.500,354.281 43.387,354.167 43.250 C 354.053 43.112,353.823 43.000,353.656 43.000 C 353.489 43.000,353.311 42.932,353.259 42.848 C 353.207 42.764,352.870 42.646,352.509 42.585 C 352.148 42.524,351.764 42.367,351.656 42.237 C 351.548 42.107,351.388 42.000,351.301 42.000 C 351.214 42.000,351.030 41.888,350.893 41.750 C 350.755 41.613,350.507 41.500,350.340 41.500 C 350.174 41.500,349.823 41.388,349.561 41.251 C 349.298 41.114,348.961 41.002,348.812 41.001 C 348.663 41.000,348.447 40.888,348.333 40.750 C 348.219 40.613,348.023 40.500,347.896 40.500 C 347.770 40.500,347.667 40.426,347.667 40.337 C 347.667 40.247,347.460 40.128,347.208 40.074 C 346.669 39.957,346.350 39.836,345.315 39.356 C 344.893 39.160,344.468 39.000,344.371 39.000 C 344.274 39.000,344.169 38.944,344.139 38.875 C 344.063 38.705,342.880 38.167,342.583 38.167 C 342.293 38.167,340.939 37.485,340.861 37.299 C 340.831 37.226,340.656 37.167,340.474 37.167 C 340.292 37.167,340.030 37.054,339.893 36.917 C 339.755 36.779,339.348 36.667,338.988 36.667 C 338.517 36.667,338.333 36.596,338.333 36.417 C 338.333 36.279,338.218 36.167,338.078 36.167 C 337.938 36.167,337.780 36.054,337.727 35.917 C 337.674 35.779,337.463 35.667,337.257 35.667 C 337.051 35.667,336.547 35.488,336.136 35.269 C 335.724 35.051,335.157 34.821,334.875 34.759 C 334.592 34.697,334.320 34.538,334.269 34.406 C 334.219 34.275,334.006 34.164,333.797 34.161 C 333.588 34.158,333.271 34.046,333.093 33.911 C 332.915 33.777,332.643 33.667,332.489 33.667 C 332.334 33.667,332.114 33.554,332.000 33.417 C 331.886 33.279,331.612 33.167,331.391 33.167 C 331.170 33.167,330.946 33.054,330.894 32.917 C 330.841 32.779,330.613 32.667,330.387 32.667 C 330.161 32.667,329.864 32.554,329.726 32.417 C 329.589 32.279,329.303 32.167,329.092 32.167 C 328.880 32.167,328.614 32.054,328.500 31.917 C 328.386 31.779,328.161 31.667,328.000 31.667 C 327.839 31.667,327.614 31.554,327.500 31.417 C 327.386 31.279,327.198 31.167,327.082 31.167 C 326.966 31.167,326.657 31.055,326.394 30.918 C 326.131 30.781,325.780 30.668,325.614 30.668 C 325.447 30.667,325.072 30.485,324.781 30.263 C 324.489 30.041,324.025 29.804,323.750 29.735 C 323.475 29.667,323.020 29.483,322.739 29.326 C 322.458 29.168,321.989 28.988,321.698 28.924 C 321.407 28.860,321.112 28.715,321.043 28.603 C 320.859 28.305,319.770 27.833,319.266 27.833 C 319.028 27.833,318.833 27.773,318.833 27.699 C 318.833 27.547,317.820 27.078,317.132 26.911 C 316.884 26.850,316.593 26.695,316.486 26.567 C 316.380 26.438,316.123 26.333,315.917 26.333 C 315.710 26.333,315.447 26.221,315.333 26.083 C 315.219 25.946,315.004 25.831,314.855 25.828 C 314.705 25.825,314.438 25.713,314.260 25.578 C 314.082 25.443,313.772 25.333,313.572 25.333 C 313.371 25.333,313.114 25.221,313.000 25.083 C 312.886 24.946,312.623 24.833,312.417 24.833 C 312.210 24.833,311.947 24.721,311.833 24.583 C 311.719 24.446,311.494 24.333,311.333 24.333 C 311.172 24.333,310.947 24.221,310.833 24.083 C 310.719 23.946,310.457 23.833,310.250 23.833 C 310.043 23.833,309.782 23.723,309.670 23.588 C 309.558 23.453,309.212 23.294,308.900 23.236 C 308.588 23.177,308.333 23.068,308.333 22.993 C 308.333 22.917,308.165 22.809,307.958 22.751 C 307.483 22.618,307.219 22.507,305.583 21.754 C 304.850 21.416,303.950 21.007,303.583 20.843 C 303.217 20.680,302.412 20.311,301.795 20.023 C 301.178 19.735,300.490 19.500,300.265 19.500 C 300.041 19.500,299.745 19.388,299.607 19.250 C 299.470 19.113,299.248 19.000,299.116 19.000 C 298.983 19.000,298.781 18.887,298.667 18.750 C 298.553 18.612,298.328 18.500,298.167 18.500 C 298.006 18.500,297.781 18.387,297.667 18.250 C 297.553 18.112,297.243 18.000,296.980 18.000 C 296.716 18.000,296.500 17.930,296.500 17.846 C 296.500 17.673,295.563 17.167,295.245 17.167 C 295.133 17.167,294.952 17.060,294.844 16.930 C 294.736 16.799,294.356 16.643,294.000 16.583 C 293.644 16.523,293.264 16.367,293.156 16.237 C 293.048 16.107,292.875 16.000,292.771 15.999 C 292.668 15.999,292.133 15.774,291.583 15.500 C 291.033 15.226,290.484 15.001,290.363 15.001 C 290.242 15.000,290.030 14.887,289.893 14.750 C 289.755 14.612,289.470 14.500,289.259 14.500 C 289.047 14.500,288.781 14.387,288.667 14.250 C 288.553 14.112,288.367 14.000,288.255 14.000 C 288.143 14.000,287.801 13.875,287.496 13.723 C 286.874 13.413,284.820 13.265,284.151 13.483 " stroke="none" fill="#34a4c4" fill-rule="evenodd"></path></g></svg>